<svg xmlns="http://www.w3.org/2000/svg" xmlns:xlink="http://www.w3.org/1999/xlink" viewBox="0 0 1442.47 1125.48"><defs><style>.cls-1{fill:none;}.cls-2{clip-path:url(#clip-path);}.cls-3{fill:#282828;}.cls-4{fill:#2f3640;}.cls-5{clip-path:url(#clip-path-2);}.cls-6{fill:#ff5050;}</style><clipPath id="clip-path"><rect class="cls-1" x="258" y="6" width="1024" height="1024"/></clipPath><clipPath id="clip-path-2"><circle class="cls-1" cx="1163.5" cy="832.5" r="290.5"/></clipPath></defs><title>Asset 2</title><g id="Layer_2" data-name="Layer 2"><g id="Layer_2-2" data-name="Layer 2"><g class="cls-2"><rect class="cls-3" x="3" width="1282" height="1024"/><rect class="cls-4" y="6" width="1282" height="1024"/><g class="cls-5"><path class="cls-6" d="M928.89,604.69l-4.84.73a.67.67,0,0,1-.83-.44l-3.28-20.88v0l-1-14.59a6.93,6.93,0,0,0-.25-1.42l-2.57-9.1c-.09-.32.2-.65.64-.72l4.84-.73a.69.69,0,0,1,.83.45l2.74,17.41v0l1.46,17.46a4.16,4.16,0,0,0,.12.69L929.54,604C929.63,604.29,929.33,604.62,928.89,604.69Z"/><path class="cls-6" d="M947.05,685l-2.69,4.1a.71.71,0,0,1-1,.27l-20.29-13.26,0,0-13.32-10.17a9.22,9.22,0,0,0-1.4-.89l-9.63-4.94a.69.69,0,0,1-.18-1l2.69-4.09a.71.71,0,0,1,1-.27l16.92,11.06,0,0,16.09,12a5.22,5.22,0,0,0,.68.43l11,5.74A.69.69,0,0,1,947.05,685Z"/><path class="cls-6" d="M926.27,788.87l-4.9.18a.7.7,0,0,1-.78-.6l-.93-23.31v0l.59-16.12a8.33,8.33,0,0,0-.09-1.58l-1.54-10.31a.68.68,0,0,1,.72-.71l4.89-.18a.71.71,0,0,1,.78.6l.77,19.44v0l-.5,19.32a5.11,5.11,0,0,0,.05.78L927,788.17A.69.69,0,0,1,926.27,788.87Z"/><path class="cls-6" d="M935.14,880.85l-4.63,1.63a.73.73,0,0,1-.94-.42l-8.91-25.19v0l-5-17.78a11,11,0,0,0-.63-1.71l-5-10.8a.72.72,0,0,1,.45-1l4.62-1.63a.73.73,0,0,1,.94.42l7.43,21v0l6.17,21.25a6.34,6.34,0,0,0,.3.83l5.64,12.39A.72.72,0,0,1,935.14,880.85Z"/><path class="cls-6" d="M959.84,607.65l-4.6-1.69a.69.69,0,0,1-.48-.86l8.16-22.44s0,0,0,0l6.79-15a9,9,0,0,0,.53-1.54l2.56-10.35a.69.69,0,0,1,.94-.4l4.6,1.69a.7.7,0,0,1,.48.86L972,576.55v0l-7.94,18.12a6.81,6.81,0,0,0-.26.76l-3,11.8A.69.69,0,0,1,959.84,607.65Z"/><path class="cls-6" d="M983.23,699.21l-4.38,2.21a.74.74,0,0,1-1-.33l-12.64-25a.08.08,0,0,1,0,0l-7.62-17.81a12.33,12.33,0,0,0-.88-1.69L950.06,646a.76.76,0,0,1,.3-1.07l4.37-2.21a.75.75,0,0,1,1,.33l10.55,20.87v0l9.32,21.26a6.59,6.59,0,0,0,.44.83l7.47,12.16A.75.75,0,0,1,983.23,699.21Z"/><path class="cls-6" d="M946.92,776.55l-2.37-4.29a.7.7,0,0,1,.13-.94l18.63-10.45,0,0,13.44-6.13A7.14,7.14,0,0,0,978,754l7.72-5.64a.67.67,0,0,1,.91.35L989,753a.68.68,0,0,1-.13.93l-15.54,8.72,0,0-16,7.53a3.76,3.76,0,0,0-.61.36l-8.88,6.35A.67.67,0,0,1,946.92,776.55Z"/><path class="cls-6" d="M985.22,877.21l-4.12,2.66a.73.73,0,0,1-1-.19l-14.52-22.41s0,0,0,0l-9-16.12a10.84,10.84,0,0,0-1-1.52l-7.39-9.33a.73.73,0,0,1,.2-1.06l4.11-2.66a.74.74,0,0,1,1,.19l12.11,18.7,0,0,10.94,19.22a7.29,7.29,0,0,0,.49.74l8.37,10.73A.73.73,0,0,1,985.22,877.21Z"/><path class="cls-6" d="M1022.6,602.14l-4.49,2a.67.67,0,0,1-.91-.21l-8.5-19.16v0L1004,571a7.31,7.31,0,0,0-.61-1.3l-4.81-8.05c-.17-.28,0-.68.44-.85l4.49-2a.66.66,0,0,1,.91.21l7.09,16v0l5.87,16.35a3.6,3.6,0,0,0,.29.63l5.4,9.25C1023.21,601.57,1023,602,1022.6,602.14Z"/><path class="cls-6" d="M994.44,690.87l-3.35-3.58a.68.68,0,0,1-.09-.95l15.94-15.1,0,0,11.84-9.51a7.58,7.58,0,0,0,1.07-1.05l6.3-7.53a.65.65,0,0,1,1,.11l3.35,3.57a.68.68,0,0,1,.09,1l-13.29,12.59,0,0-14,11.57a3.59,3.59,0,0,0-.52.51L995.42,691A.66.66,0,0,1,994.44,690.87Z"/><path class="cls-6" d="M993.93,782.86l-3.45-3.48a.68.68,0,0,1-.09-1l16.43-16.4,0,0,12.2-10.44a8.39,8.39,0,0,0,1.1-1.13l6.5-8.09a.68.68,0,0,1,1,.06l3.44,3.48a.68.68,0,0,1,.09,1l-13.71,13.67,0,0L1003,773.2a4,4,0,0,0-.54.55l-7.51,9.17A.68.68,0,0,1,993.93,782.86Z"/><path class="cls-6" d="M1034.43,861.58l-2.1,4.43a.68.68,0,0,1-.85.43l-20-9.35h0l-13.28-7.56a7.37,7.37,0,0,0-1.37-.62l-9.37-3.13a.65.65,0,0,1-.26-.94l2.09-4.43a.69.69,0,0,1,.86-.43l16.69,7.8h0l16,8.88a4.43,4.43,0,0,0,.67.3l10.67,3.67A.67.67,0,0,1,1034.43,861.58Z"/><path class="cls-6" d="M1074,598.42l-3.59,3.34a.69.69,0,0,1-1,.07L1054,585.37l0,0-9.77-12.19a8.63,8.63,0,0,0-1.07-1.11l-7.69-6.53a.66.66,0,0,1,.09-1l3.58-3.34a.7.7,0,0,1,1-.07l12.9,13.73,0,0,11.86,14.48a3.8,3.8,0,0,0,.52.54l8.72,7.55A.67.67,0,0,1,1074,598.42Z"/><path class="cls-6" d="M1067.14,694.2l-4.5,1.95a.68.68,0,0,1-.93-.25l-9-20.46v0l-5.06-14.6a7.85,7.85,0,0,0-.64-1.38l-5-8.64a.66.66,0,0,1,.42-.89l4.5-1.95a.7.7,0,0,1,.93.25l7.48,17.07v0l6.26,17.43a5.11,5.11,0,0,0,.31.67l5.65,9.92A.66.66,0,0,1,1067.14,694.2Z"/><path class="cls-6" d="M1080,780.61l-3.16,3.76a.73.73,0,0,1-1,.1l-20.92-17.56,0,0-13.63-13a11.58,11.58,0,0,0-1.44-1.18l-10-6.93a.72.72,0,0,1-.13-1.08l3.15-3.75a.74.74,0,0,1,1-.11l17.45,14.65,0,0L1067.76,771a5.54,5.54,0,0,0,.71.57l11.38,8A.74.74,0,0,1,1080,780.61Z"/><path class="cls-6" d="M1064.56,878.84l-4.72,1.33a.71.71,0,0,1-.9-.42l-6.59-23.28s0,0,0,0L1049,840.05a9.57,9.57,0,0,0-.47-1.58l-4-10a.69.69,0,0,1,.53-.88l4.71-1.32a.71.71,0,0,1,.9.42l5.5,19.42v0l4.23,19.59a4.25,4.25,0,0,0,.23.77l4.49,11.5A.69.69,0,0,1,1064.56,878.84Z"/><path class="cls-6" d="M1110.05,604.69l-4.85.73a.67.67,0,0,1-.83-.44l-3.27-20.88v0l-1-14.59a7.68,7.68,0,0,0-.25-1.42l-2.58-9.1c-.09-.32.21-.65.65-.72l4.84-.73a.69.69,0,0,1,.83.45l2.73,17.41v0l1.46,17.46a4.16,4.16,0,0,0,.12.69L1110.7,604C1110.78,604.29,1110.49,604.62,1110.05,604.69Z"/><path class="cls-6" d="M1128.21,685l-2.69,4.1a.71.71,0,0,1-1,.27l-20.29-13.26,0,0-13.32-10.17a9.74,9.74,0,0,0-1.4-.89l-9.63-4.94a.69.69,0,0,1-.18-1l2.69-4.09a.71.71,0,0,1,1-.27l16.92,11.06,0,0,16.09,12a5.22,5.22,0,0,0,.68.43l11,5.74A.69.69,0,0,1,1128.21,685Z"/><path class="cls-6" d="M1107.42,788.87l-4.9.18a.7.7,0,0,1-.77-.6l-.93-23.31v0l.59-16.12a8.33,8.33,0,0,0-.09-1.58l-1.54-10.31a.68.68,0,0,1,.72-.71l4.89-.18a.71.71,0,0,1,.78.6l.77,19.44v0l-.5,19.32a4.09,4.09,0,0,0,0,.78l1.65,11.79A.68.68,0,0,1,1107.42,788.87Z"/><path class="cls-6" d="M1116.29,880.85l-4.62,1.63a.74.74,0,0,1-1-.42l-8.9-25.19v0l-5-17.78a11,11,0,0,0-.63-1.71l-5-10.8a.72.72,0,0,1,.44-1l4.62-1.63a.74.74,0,0,1,1,.42l7.43,21v0l6.16,21.25a8.29,8.29,0,0,0,.31.83l5.64,12.39A.72.72,0,0,1,1116.29,880.85Z"/><path class="cls-6" d="M1141,607.65l-4.6-1.69a.71.71,0,0,1-.49-.86l8.17-22.44s0,0,0,0l6.79-15a9,9,0,0,0,.53-1.54l2.56-10.35a.68.68,0,0,1,.94-.4l4.59,1.69a.71.71,0,0,1,.49.86l-6.81,18.72v0l-7.94,18.12a5.24,5.24,0,0,0-.26.76l-3,11.8A.69.69,0,0,1,1141,607.65Z"/><path class="cls-6" d="M1164.39,699.21l-4.38,2.21a.75.75,0,0,1-1-.33l-12.63-25a.08.08,0,0,1,0,0l-7.62-17.81a13.55,13.55,0,0,0-.88-1.69L1131.22,646a.76.76,0,0,1,.3-1.07l4.37-2.21a.75.75,0,0,1,1,.33l10.54,20.87,0,0,9.32,21.26a8.13,8.13,0,0,0,.43.83l7.48,12.16A.75.75,0,0,1,1164.39,699.21Z"/><path class="cls-6" d="M1128.08,776.55l-2.37-4.29a.68.68,0,0,1,.13-.94l18.63-10.45,0,0,13.44-6.13a7.14,7.14,0,0,0,1.26-.73l7.72-5.64a.67.67,0,0,1,.91.35l2.37,4.29a.68.68,0,0,1-.13.93l-15.54,8.72,0,0-16,7.53a3.76,3.76,0,0,0-.61.36L1129,776.9A.67.67,0,0,1,1128.08,776.55Z"/><path class="cls-6" d="M1166.38,877.21l-4.12,2.66a.74.74,0,0,1-1-.19l-14.51-22.41,0,0-9-16.12a10.84,10.84,0,0,0-1-1.52l-7.39-9.33a.72.72,0,0,1,.2-1.06l4.11-2.66a.74.74,0,0,1,1,.19l12.11,18.7,0,0,10.94,19.22a5.92,5.92,0,0,0,.49.74l8.37,10.73A.73.73,0,0,1,1166.38,877.21Z"/><path class="cls-6" d="M1203.76,602.14l-4.49,2a.69.69,0,0,1-.92-.21l-8.49-19.16v0l-4.74-13.7a6.63,6.63,0,0,0-.6-1.3l-4.81-8.05c-.17-.28,0-.68.44-.85l4.49-2a.66.66,0,0,1,.91.21l7.09,16v0l5.87,16.35a3,3,0,0,0,.29.63l5.4,9.25C1204.37,601.57,1204.17,602,1203.76,602.14Z"/><path class="cls-6" d="M1175.6,690.87l-3.36-3.58a.68.68,0,0,1-.08-.95l15.93-15.1,0,0L1200,661.7a7,7,0,0,0,1.06-1.05l6.3-7.53a.66.66,0,0,1,1,.11l3.35,3.57a.68.68,0,0,1,.09,1l-13.29,12.59,0,0-14.05,11.57a5,5,0,0,0-.52.51l-7.28,8.53A.65.65,0,0,1,1175.6,690.87Z"/><path class="cls-6" d="M1175.09,782.86l-3.46-3.48a.69.69,0,0,1-.08-1L1188,762l0,0,12.2-10.44a8.39,8.39,0,0,0,1.1-1.13l6.5-8.09a.68.68,0,0,1,1,.06l3.44,3.48a.7.7,0,0,1,.09,1l-13.71,13.67,0,0-14.49,12.66a4.59,4.59,0,0,0-.53.55l-7.51,9.17A.68.68,0,0,1,1175.09,782.86Z"/><path class="cls-6" d="M1215.59,861.58l-2.1,4.43a.69.69,0,0,1-.86.43l-20-9.35h0l-13.27-7.56a8,8,0,0,0-1.37-.62l-9.37-3.13a.66.66,0,0,1-.27-.94l2.1-4.43a.68.68,0,0,1,.85-.43l16.69,7.8h0l16,8.88a4,4,0,0,0,.67.3l10.67,3.67A.68.68,0,0,1,1215.59,861.58Z"/><path class="cls-6" d="M1255.18,598.42l-3.58,3.34a.71.71,0,0,1-1,.07l-15.46-16.46,0,0-9.76-12.19a8.63,8.63,0,0,0-1.07-1.11l-7.7-6.53a.67.67,0,0,1,.1-1l3.58-3.34a.69.69,0,0,1,1-.07l12.9,13.73,0,0L1246,589.34a3.8,3.8,0,0,0,.52.54l8.72,7.55A.67.67,0,0,1,1255.18,598.42Z"/><path class="cls-6" d="M1248.3,694.2l-4.5,1.95a.68.68,0,0,1-.93-.25l-9-20.46v0l-5.06-14.6a7.85,7.85,0,0,0-.64-1.38l-5-8.64a.66.66,0,0,1,.42-.89l4.5-1.95a.69.69,0,0,1,.92.25l7.49,17.07v0l6.26,17.43a4.07,4.07,0,0,0,.31.67l5.65,9.92A.67.67,0,0,1,1248.3,694.2Z"/><path class="cls-6" d="M1261.14,780.61l-3.16,3.76a.74.74,0,0,1-1,.1L1236,766.91l0,0-13.63-13a11,11,0,0,0-1.45-1.18l-10-6.93a.72.72,0,0,1-.13-1.08l3.15-3.75a.74.74,0,0,1,1-.11l17.45,14.65,0,0L1248.92,771a6.23,6.23,0,0,0,.7.57l11.39,8A.74.74,0,0,1,1261.14,780.61Z"/><path class="cls-6" d="M1245.72,878.84l-4.73,1.33a.7.7,0,0,1-.89-.42l-6.59-23.28s0,0,0,0l-3.36-16.38a8.73,8.73,0,0,0-.48-1.58l-4-10a.69.69,0,0,1,.53-.88l4.71-1.32a.71.71,0,0,1,.9.42l5.5,19.42v0l4.22,19.59a5.28,5.28,0,0,0,.24.77l4.49,11.5A.7.7,0,0,1,1245.72,878.84Z"/><path class="cls-6" d="M1291.21,604.69l-4.85.73a.67.67,0,0,1-.83-.44l-3.28-20.88v0l-1-14.59a7.68,7.68,0,0,0-.25-1.42l-2.58-9.1c-.09-.32.21-.65.65-.72l4.84-.73a.69.69,0,0,1,.83.45l2.73,17.41v0l1.45,17.46a3.35,3.35,0,0,0,.13.69l2.83,10.42C1291.94,604.29,1291.64,604.62,1291.21,604.69Z"/><path class="cls-6" d="M1309.37,685l-2.7,4.1a.7.7,0,0,1-1,.27l-20.29-13.26,0,0-13.31-10.17a9.74,9.74,0,0,0-1.4-.89l-9.63-4.94a.69.69,0,0,1-.18-1l2.69-4.09a.69.69,0,0,1,1-.27l16.93,11.06,0,0,16.08,12a6.12,6.12,0,0,0,.69.43l11,5.74A.69.69,0,0,1,1309.37,685Z"/><path class="cls-6" d="M1288.58,788.87l-4.9.18a.7.7,0,0,1-.77-.6l-.93-23.31v0l.59-16.12a8.33,8.33,0,0,0-.09-1.58l-1.55-10.31a.68.68,0,0,1,.72-.71l4.9-.18a.7.7,0,0,1,.77.6l.78,19.44v0l-.5,19.32a5.1,5.1,0,0,0,0,.78l1.66,11.79A.68.68,0,0,1,1288.58,788.87Z"/><path class="cls-6" d="M1297.45,880.85l-4.62,1.63a.74.74,0,0,1-.95-.42l-8.9-25.19v0l-5-17.78a12.13,12.13,0,0,0-.63-1.71l-5-10.8a.72.72,0,0,1,.44-1l4.62-1.63a.74.74,0,0,1,.95.42l7.42,21,0,0,6.16,21.25a6.39,6.39,0,0,0,.31.83l5.64,12.39A.73.73,0,0,1,1297.45,880.85Z"/><path class="cls-6" d="M1322.16,607.65l-4.6-1.69a.71.71,0,0,1-.49-.86l8.16-22.44,0,0,6.78-15a9.06,9.06,0,0,0,.54-1.54l2.56-10.35a.68.68,0,0,1,.94-.4l4.59,1.69a.71.71,0,0,1,.49.86l-6.81,18.72v0l-7.94,18.12a5.24,5.24,0,0,0-.26.76l-3,11.8A.69.69,0,0,1,1322.16,607.65Z"/><path class="cls-6" d="M1345.55,699.21l-4.38,2.21a.75.75,0,0,1-1-.33l-12.64-25,0,0-7.61-17.81a12.39,12.39,0,0,0-.89-1.69L1312.38,646a.76.76,0,0,1,.3-1.07l4.37-2.21a.75.75,0,0,1,1,.33l10.54,20.87,0,0,9.32,21.26a6.52,6.52,0,0,0,.43.83l7.48,12.16A.75.75,0,0,1,1345.55,699.21Z"/><path class="cls-6" d="M1309.24,776.55l-2.38-4.29a.69.69,0,0,1,.14-.94l18.63-10.45,0,0,13.44-6.13a7.93,7.93,0,0,0,1.26-.73l7.72-5.64a.67.67,0,0,1,.91.35l2.37,4.29a.68.68,0,0,1-.13.93l-15.54,8.72,0,0-16,7.53a3.37,3.37,0,0,0-.61.36l-8.89,6.35A.66.66,0,0,1,1309.24,776.55Z"/><path class="cls-6" d="M1347.54,877.21l-4.12,2.66a.74.74,0,0,1-1-.19l-14.51-22.41,0,0-9-16.12a11.79,11.79,0,0,0-1-1.52l-7.4-9.33a.73.73,0,0,1,.21-1.06l4.11-2.66a.74.74,0,0,1,1,.19l12.11,18.7,0,0,10.94,19.22a5.92,5.92,0,0,0,.49.74l8.37,10.73A.74.74,0,0,1,1347.54,877.21Z"/><path class="cls-6" d="M1384.92,602.14l-4.49,2a.69.69,0,0,1-.92-.21L1371,584.73l0,0-4.73-13.7a6.63,6.63,0,0,0-.6-1.3l-4.81-8.05c-.17-.28,0-.68.44-.85l4.48-2a.68.68,0,0,1,.92.21l7.09,16v0l5.86,16.35a3.64,3.64,0,0,0,.3.63l5.4,9.25C1385.53,601.57,1385.32,602,1384.92,602.14Z"/><path class="cls-6" d="M1356.76,690.87l-3.36-3.58a.68.68,0,0,1-.08-.95l15.93-15.1,0,0,11.83-9.51a7.08,7.08,0,0,0,1.07-1.05l6.3-7.53a.66.66,0,0,1,1,.11l3.35,3.57a.7.7,0,0,1,.09,1l-13.3,12.59,0,0-14,11.57a4.18,4.18,0,0,0-.52.51l-7.28,8.53A.65.65,0,0,1,1356.76,690.87Z"/><path class="cls-6" d="M1356.24,782.86l-3.45-3.48a.7.7,0,0,1-.09-1l16.44-16.4,0,0,12.2-10.44a8.39,8.39,0,0,0,1.1-1.13l6.5-8.09a.67.67,0,0,1,1,.06l3.45,3.48a.7.7,0,0,1,.09,1l-13.71,13.67,0,0-14.49,12.66a5.62,5.62,0,0,0-.54.55l-7.5,9.17A.69.69,0,0,1,1356.24,782.86Z"/><path class="cls-6" d="M1396.74,861.58l-2.09,4.43a.69.69,0,0,1-.86.43l-20-9.35h0l-13.27-7.56a7.76,7.76,0,0,0-1.38-.62l-9.36-3.13a.65.65,0,0,1-.27-.94l2.1-4.43a.68.68,0,0,1,.85-.43l16.69,7.8h0l16,8.88a4,4,0,0,0,.67.3l10.66,3.67A.67.67,0,0,1,1396.74,861.58Z"/><path class="cls-6" d="M1436.34,598.42l-3.59,3.34a.69.69,0,0,1-1,.07l-15.46-16.46,0,0-9.76-12.19a8.63,8.63,0,0,0-1.07-1.11l-7.7-6.53a.67.67,0,0,1,.1-1l3.58-3.34a.69.69,0,0,1,1-.07l12.9,13.73,0,0,11.87,14.48a3.8,3.8,0,0,0,.52.54l8.72,7.55A.67.67,0,0,1,1436.34,598.42Z"/><path class="cls-6" d="M1429.46,694.2l-4.5,1.95a.68.68,0,0,1-.93-.25l-9-20.46,0,0-5-14.6a7.85,7.85,0,0,0-.64-1.38l-5-8.64a.66.66,0,0,1,.42-.89l4.49-1.95a.7.7,0,0,1,.93.25l7.49,17.07v0l6.26,17.43a4.07,4.07,0,0,0,.31.67l5.65,9.92A.67.67,0,0,1,1429.46,694.2Z"/><path class="cls-6" d="M1442.29,780.61l-3.15,3.76a.74.74,0,0,1-1,.1l-20.92-17.56,0,0-13.64-13a10.89,10.89,0,0,0-1.44-1.18l-10-6.93a.74.74,0,0,1-.13-1.08l3.16-3.75a.74.74,0,0,1,1-.11l17.45,14.65,0,0L1430.08,771a5.45,5.45,0,0,0,.7.57l11.39,8A.73.73,0,0,1,1442.29,780.61Z"/><path class="cls-6" d="M1426.87,878.84l-4.72,1.33a.71.71,0,0,1-.9-.42l-6.59-23.28v0l-3.36-16.38a8.73,8.73,0,0,0-.48-1.58l-4-10a.69.69,0,0,1,.52-.88l4.72-1.32a.71.71,0,0,1,.9.42l5.5,19.42v0l4.23,19.59a6.82,6.82,0,0,0,.23.77l4.49,11.5A.68.68,0,0,1,1426.87,878.84Z"/><path class="cls-6" d="M928.89,941.13l-4.84.73c-.41.06-.79-.14-.83-.45l-3.28-20.87v0l-1-14.58a6.93,6.93,0,0,0-.25-1.42l-2.57-9.1c-.09-.32.2-.65.64-.72l4.84-.73a.67.67,0,0,1,.83.44l2.74,17.42v0l1.46,17.45a4.1,4.1,0,0,0,.12.7l2.84,10.42C929.63,940.73,929.33,941.06,928.89,941.13Z"/><path class="cls-6" d="M947.05,1021.45l-2.69,4.09a.72.72,0,0,1-1,.28l-20.29-13.27,0,0-13.32-10.18a9.16,9.16,0,0,0-1.4-.88l-9.63-4.94a.69.69,0,0,1-.18-1l2.69-4.09a.72.72,0,0,1,1-.28l16.92,11.07,0,0,16.09,12a5.22,5.22,0,0,0,.68.43l11,5.74A.69.69,0,0,1,947.05,1021.45Z"/><path class="cls-6" d="M926.27,1125.31l-4.9.17a.69.69,0,0,1-.78-.59l-.93-23.31v0l.59-16.12a8.49,8.49,0,0,0-.09-1.59l-1.54-10.31a.67.67,0,0,1,.72-.7l4.89-.18a.7.7,0,0,1,.78.59l.77,19.45v0l-.5,19.33a5,5,0,0,0,.05.77L927,1124.6A.69.69,0,0,1,926.27,1125.31Z"/><path class="cls-6" d="M959.84,944.09l-4.6-1.69a.7.7,0,0,1-.48-.86l8.16-22.44s0,0,0,0l6.79-15a9.34,9.34,0,0,0,.53-1.54l2.56-10.35a.69.69,0,0,1,.94-.4l4.6,1.69a.7.7,0,0,1,.48.86L972,913v0l-7.94,18.12a6,6,0,0,0-.26.75l-3,11.81A.69.69,0,0,1,959.84,944.09Z"/><path class="cls-6" d="M983.23,1035.65l-4.38,2.21a.74.74,0,0,1-1-.33l-12.64-25s0,0,0,0l-7.62-17.8a11.78,11.78,0,0,0-.88-1.69l-6.63-10.6a.75.75,0,0,1,.3-1.06l4.37-2.21a.75.75,0,0,1,1,.33l10.55,20.86v0l9.32,21.26a6.47,6.47,0,0,0,.44.82l7.47,12.17A.75.75,0,0,1,983.23,1035.65Z"/><path class="cls-6" d="M946.92,1113l-2.37-4.29a.68.68,0,0,1,.13-.93l18.63-10.45,0,0,13.44-6.13a6.61,6.61,0,0,0,1.26-.74l7.72-5.63a.65.65,0,0,1,.91.35l2.37,4.28a.69.69,0,0,1-.13.94l-15.54,8.72h0l-16,7.54a3.76,3.76,0,0,0-.61.36l-8.88,6.34C947.55,1113.53,947.14,1113.37,946.92,1113Z"/><path class="cls-6" d="M1022.6,938.57l-4.49,2a.67.67,0,0,1-.91-.22l-8.5-19.15v0l-4.73-13.7a7,7,0,0,0-.61-1.3l-4.81-8c-.17-.28,0-.68.44-.86l4.49-2a.68.68,0,0,1,.91.21l7.09,16v0l5.87,16.35a3.6,3.6,0,0,0,.29.63l5.4,9.25C1023.21,938,1023,938.4,1022.6,938.57Z"/><path class="cls-6" d="M994.44,1027.3l-3.35-3.57a.68.68,0,0,1-.09-1l15.94-15.1,0,0,11.84-9.51a8.84,8.84,0,0,0,1.07-1l6.3-7.53a.65.65,0,0,1,1,.1l3.35,3.57a.68.68,0,0,1,.09.95l-13.29,12.6,0,0-14,11.57a3.14,3.14,0,0,0-.52.51l-7.28,8.53A.67.67,0,0,1,994.44,1027.3Z"/><path class="cls-6" d="M993.93,1119.3l-3.45-3.49a.68.68,0,0,1-.09-1l16.43-16.39,0,0,12.2-10.43a8.39,8.39,0,0,0,1.1-1.13l6.5-8.09a.69.69,0,0,1,1,0l3.44,3.48a.69.69,0,0,1,.09,1L1017.48,1097l0,0L1003,1109.63a4.07,4.07,0,0,0-.54.56l-7.51,9.16A.67.67,0,0,1,993.93,1119.3Z"/><path class="cls-6" d="M1074,934.85l-3.59,3.34a.69.69,0,0,1-1,.08L1054,921.81l0,0-9.77-12.2a8,8,0,0,0-1.07-1.1l-7.69-6.54a.66.66,0,0,1,.09-1l3.58-3.33a.7.7,0,0,1,1-.08l12.9,13.74,0,0,11.86,14.48a5.29,5.29,0,0,0,.52.54l8.72,7.55A.66.66,0,0,1,1074,934.85Z"/><path class="cls-6" d="M1067.14,1030.64l-4.5,1.95a.7.7,0,0,1-.93-.25l-9-20.46v0l-5.06-14.6a8.3,8.3,0,0,0-.64-1.39l-5-8.63a.66.66,0,0,1,.42-.89l4.5-2a.68.68,0,0,1,.93.25l7.48,17.07v0l6.26,17.43a5.79,5.79,0,0,0,.31.67l5.65,9.92A.67.67,0,0,1,1067.14,1030.64Z"/><path class="cls-6" d="M1080,1117.05l-3.16,3.75a.74.74,0,0,1-1,.11l-20.92-17.56,0,0-13.63-13.06a11.5,11.5,0,0,0-1.44-1.17l-10-6.93a.74.74,0,0,1-.13-1.09l3.15-3.75a.74.74,0,0,1,1-.1l17.45,14.65,0,0,16.49,15.5a5.54,5.54,0,0,0,.71.57l11.38,8A.74.74,0,0,1,1080,1117.05Z"/><path class="cls-6" d="M1110.05,941.13l-4.85.73a.69.69,0,0,1-.83-.45l-3.27-20.87v0l-1-14.58a7.68,7.68,0,0,0-.25-1.42l-2.58-9.1c-.09-.32.21-.65.65-.72l4.84-.73a.67.67,0,0,1,.83.44l2.73,17.42v0l1.46,17.45a4.1,4.1,0,0,0,.12.7l2.84,10.42C1110.78,940.73,1110.49,941.06,1110.05,941.13Z"/><path class="cls-6" d="M1128.21,1021.45l-2.69,4.09a.72.72,0,0,1-1,.28l-20.29-13.27,0,0-13.32-10.18a9.68,9.68,0,0,0-1.4-.88l-9.63-4.94a.69.69,0,0,1-.18-1l2.69-4.09a.72.72,0,0,1,1-.28l16.92,11.07,0,0,16.09,12a5.22,5.22,0,0,0,.68.43l11,5.74A.69.69,0,0,1,1128.21,1021.45Z"/><path class="cls-6" d="M1107.42,1125.31l-4.9.17a.69.69,0,0,1-.77-.59l-.93-23.31v0l.59-16.12a8.49,8.49,0,0,0-.09-1.59l-1.54-10.31a.67.67,0,0,1,.72-.7l4.89-.18a.71.71,0,0,1,.78.59l.77,19.45v0l-.5,19.33a4,4,0,0,0,0,.77l1.65,11.79A.68.68,0,0,1,1107.42,1125.31Z"/><path class="cls-6" d="M1141,944.09l-4.6-1.69a.71.71,0,0,1-.49-.86l8.17-22.44s0,0,0,0l6.79-15a9.34,9.34,0,0,0,.53-1.54l2.56-10.35a.68.68,0,0,1,.94-.4l4.59,1.69a.7.7,0,0,1,.49.86L1153.18,913v0l-7.94,18.12a4.74,4.74,0,0,0-.26.75l-3,11.81A.69.69,0,0,1,1141,944.09Z"/><path class="cls-6" d="M1164.39,1035.65l-4.38,2.21a.75.75,0,0,1-1-.33l-12.63-25s0,0,0,0l-7.62-17.8a12.88,12.88,0,0,0-.88-1.69l-6.63-10.6a.75.75,0,0,1,.3-1.06l4.37-2.21a.75.75,0,0,1,1,.33l10.54,20.86,0,0,9.32,21.26a8,8,0,0,0,.43.82l7.48,12.17A.75.75,0,0,1,1164.39,1035.65Z"/><path class="cls-6" d="M1128.08,1113l-2.37-4.29a.66.66,0,0,1,.13-.93l18.63-10.45,0,0,13.44-6.13a6.61,6.61,0,0,0,1.26-.74l7.72-5.63c.27-.2.69,0,.91.35l2.37,4.28a.69.69,0,0,1-.13.94l-15.54,8.72h0l-16,7.54a3.76,3.76,0,0,0-.61.36l-8.88,6.34C1128.71,1113.53,1128.3,1113.37,1128.08,1113Z"/><path class="cls-6" d="M1203.76,938.57l-4.49,2a.69.69,0,0,1-.92-.22l-8.49-19.15v0l-4.74-13.7a6.37,6.37,0,0,0-.6-1.3l-4.81-8c-.17-.28,0-.68.44-.86l4.49-2a.68.68,0,0,1,.91.21l7.09,16v0l5.87,16.35a3,3,0,0,0,.29.63l5.4,9.25C1204.37,938,1204.17,938.4,1203.76,938.57Z"/><path class="cls-6" d="M1175.6,1027.3l-3.36-3.57a.68.68,0,0,1-.08-1l15.93-15.1,0,0,11.84-9.51a8.09,8.09,0,0,0,1.06-1l6.3-7.53a.66.66,0,0,1,1,.1l3.35,3.57a.68.68,0,0,1,.09.95l-13.29,12.6,0,0-14.05,11.57a4.16,4.16,0,0,0-.52.51l-7.28,8.53A.66.66,0,0,1,1175.6,1027.3Z"/><path class="cls-6" d="M1175.09,1119.3l-3.46-3.49a.69.69,0,0,1-.08-1l16.43-16.39,0,0,12.2-10.43a8.39,8.39,0,0,0,1.1-1.13l6.5-8.09a.69.69,0,0,1,1,0l3.44,3.48a.71.71,0,0,1,.09,1L1198.64,1097l0,0-14.49,12.66a4.68,4.68,0,0,0-.53.56l-7.51,9.16A.67.67,0,0,1,1175.09,1119.3Z"/><path class="cls-6" d="M1255.18,934.85l-3.58,3.34a.7.7,0,0,1-1,.08l-15.46-16.46,0,0-9.76-12.2a8,8,0,0,0-1.07-1.1l-7.7-6.54a.67.67,0,0,1,.1-1l3.58-3.33a.69.69,0,0,1,1-.08l12.9,13.74,0,0L1246,925.78a5.29,5.29,0,0,0,.52.54l8.72,7.55A.66.66,0,0,1,1255.18,934.85Z"/><path class="cls-6" d="M1248.3,1030.64l-4.5,1.95a.7.7,0,0,1-.93-.25l-9-20.46v0l-5.06-14.6a8.3,8.3,0,0,0-.64-1.39l-5-8.63a.66.66,0,0,1,.42-.89l4.5-2a.67.67,0,0,1,.92.25l7.49,17.07v0l6.26,17.43a4.49,4.49,0,0,0,.31.67l5.65,9.92A.68.68,0,0,1,1248.3,1030.64Z"/><path class="cls-6" d="M1261.14,1117.05l-3.16,3.75a.74.74,0,0,1-1,.11L1236,1103.35l0,0-13.63-13.06a10.91,10.91,0,0,0-1.45-1.17l-10-6.93a.74.74,0,0,1-.13-1.09l3.15-3.75a.74.74,0,0,1,1-.1l17.45,14.65,0,0,16.49,15.5a6.23,6.23,0,0,0,.7.57l11.39,8A.74.74,0,0,1,1261.14,1117.05Z"/><path class="cls-6" d="M1291.21,941.13l-4.85.73a.69.69,0,0,1-.83-.45l-3.28-20.87v0l-1-14.58a7.68,7.68,0,0,0-.25-1.42l-2.58-9.1c-.09-.32.21-.65.65-.72l4.84-.73a.67.67,0,0,1,.83.44l2.73,17.42v0l1.45,17.45a3.32,3.32,0,0,0,.13.7l2.83,10.42C1291.94,940.73,1291.64,941.06,1291.21,941.13Z"/><path class="cls-6" d="M1309.37,1021.45l-2.7,4.09a.7.7,0,0,1-1,.28l-20.29-13.27,0,0-13.31-10.18a9.68,9.68,0,0,0-1.4-.88l-9.63-4.94a.69.69,0,0,1-.18-1l2.69-4.09a.71.71,0,0,1,1-.28l16.93,11.07,0,0,16.08,12a6.12,6.12,0,0,0,.69.43l11,5.74A.69.69,0,0,1,1309.37,1021.45Z"/><path class="cls-6" d="M1288.58,1125.31l-4.9.17a.69.69,0,0,1-.77-.59l-.93-23.31v0l.59-16.12a8.49,8.49,0,0,0-.09-1.59l-1.55-10.31a.68.68,0,0,1,.72-.7l4.9-.18a.69.69,0,0,1,.77.59l.78,19.45v0l-.5,19.33a5,5,0,0,0,0,.77l1.66,11.79A.68.68,0,0,1,1288.58,1125.31Z"/><path class="cls-6" d="M1322.16,944.09l-4.6-1.69a.71.71,0,0,1-.49-.86l8.16-22.44,0,0,6.78-15a9.38,9.38,0,0,0,.54-1.54l2.56-10.35a.68.68,0,0,1,.94-.4l4.59,1.69a.7.7,0,0,1,.49.86L1334.34,913v0l-7.94,18.12a4.74,4.74,0,0,0-.26.75l-3,11.81A.69.69,0,0,1,1322.16,944.09Z"/><path class="cls-6" d="M1345.55,1035.65l-4.38,2.21a.75.75,0,0,1-1-.33l-12.64-25s0,0,0,0l-7.61-17.8A11.83,11.83,0,0,0,1319,993l-6.62-10.6a.75.75,0,0,1,.3-1.06l4.37-2.21a.75.75,0,0,1,1,.33l10.54,20.86,0,0,9.32,21.26a6.4,6.4,0,0,0,.43.82l7.48,12.17A.75.75,0,0,1,1345.55,1035.65Z"/><path class="cls-6" d="M1309.24,1113l-2.38-4.29a.67.67,0,0,1,.14-.93l18.63-10.45,0,0,13.44-6.13a7.29,7.29,0,0,0,1.26-.74l7.72-5.63c.27-.2.69,0,.91.35l2.37,4.28a.69.69,0,0,1-.13.94l-15.54,8.72h0l-16,7.54a3.37,3.37,0,0,0-.61.36l-8.89,6.34C1309.87,1113.53,1309.45,1113.37,1309.24,1113Z"/><path class="cls-6" d="M1384.92,938.57l-4.49,2a.69.69,0,0,1-.92-.22L1371,921.17l0,0-4.73-13.7a6.37,6.37,0,0,0-.6-1.3l-4.81-8c-.17-.28,0-.68.44-.86l4.48-2a.7.7,0,0,1,.92.21l7.09,16v0l5.86,16.35a3.64,3.64,0,0,0,.3.63l5.4,9.25C1385.53,938,1385.32,938.4,1384.92,938.57Z"/><path class="cls-6" d="M1356.76,1027.3l-3.36-3.57a.68.68,0,0,1-.08-1l15.93-15.1,0,0,11.83-9.51a8.17,8.17,0,0,0,1.07-1l6.3-7.53a.66.66,0,0,1,1,.1l3.35,3.57a.7.7,0,0,1,.09.95l-13.3,12.6,0,0-14,11.57a3.58,3.58,0,0,0-.52.51l-7.28,8.53A.66.66,0,0,1,1356.76,1027.3Z"/><path class="cls-6" d="M1356.24,1119.3l-3.45-3.49a.7.7,0,0,1-.09-1l16.44-16.39,0,0,12.2-10.43a8.39,8.39,0,0,0,1.1-1.13l6.5-8.09a.68.68,0,0,1,1,0l3.45,3.48a.71.71,0,0,1,.09,1L1379.8,1097l0,0-14.49,12.66a5.73,5.73,0,0,0-.54.56l-7.5,9.16A.68.68,0,0,1,1356.24,1119.3Z"/><path class="cls-6" d="M1436.34,934.85l-3.59,3.34a.69.69,0,0,1-1,.08l-15.46-16.46,0,0-9.76-12.2a8,8,0,0,0-1.07-1.1l-7.7-6.54a.67.67,0,0,1,.1-1l3.58-3.33a.69.69,0,0,1,1-.08l12.9,13.74,0,0,11.87,14.48a5.29,5.29,0,0,0,.52.54l8.72,7.55A.66.66,0,0,1,1436.34,934.85Z"/><path class="cls-6" d="M1429.46,1030.64l-4.5,1.95a.7.7,0,0,1-.93-.25l-9-20.46,0,0-5-14.6a8.3,8.3,0,0,0-.64-1.39l-5-8.63a.66.66,0,0,1,.42-.89l4.49-2a.68.68,0,0,1,.93.25l7.49,17.07v0l6.26,17.43a4.49,4.49,0,0,0,.31.67l5.65,9.92A.68.68,0,0,1,1429.46,1030.64Z"/><path class="cls-6" d="M1442.29,1117.05l-3.15,3.75a.74.74,0,0,1-1,.11l-20.92-17.56,0,0-13.64-13.06a10.82,10.82,0,0,0-1.44-1.17l-10-6.93a.75.75,0,0,1-.13-1.09l3.16-3.75a.74.74,0,0,1,1-.1l17.45,14.65,0,0,16.49,15.5a5.45,5.45,0,0,0,.7.57l11.39,8A.73.73,0,0,1,1442.29,1117.05Z"/></g></g></g></g></svg>