<svg xmlns="http://www.w3.org/2000/svg" xmlns:xlink="http://www.w3.org/1999/xlink" viewBox="0 0 1642.41 1142"><defs><style>.cls-1{fill:none;}.cls-2{clip-path:url(#clip-path);}.cls-3{clip-path:url(#clip-path-2);}.cls-4{fill:#2f3640;}.cls-5{clip-path:url(#clip-path-3);}.cls-6{fill:#31843b;}</style><clipPath id="clip-path"><rect class="cls-1" x="314" y="59" width="966" height="966"/></clipPath><clipPath id="clip-path-2"><rect class="cls-1" width="1280" height="1024"/></clipPath><clipPath id="clip-path-3"><circle class="cls-1" cx="1171" cy="817" r="253"/></clipPath></defs><title>bg-bubbles</title><g id="Layer_2" data-name="Layer 2"><g id="Layer_1-2" data-name="Layer 1"><g class="cls-2"><g class="cls-3"><rect class="cls-4" width="1280" height="1024"/><g class="cls-5"><ellipse class="cls-6" cx="964.09" cy="390" rx="6.08" ry="6.91"/><ellipse class="cls-6" cx="958.74" cy="443" rx="7.44" ry="8.15"/><ellipse class="cls-6" cx="960.13" cy="496" rx="8.72" ry="8.06" transform="translate(460.47 1454.23) rotate(-89.78)"/><ellipse class="cls-6" cx="966.15" cy="549" rx="8.1" ry="8.76" transform="translate(-1.35 2.38) rotate(-0.14)"/><ellipse class="cls-6" cx="1013.1" cy="390" rx="7.33" ry="6.54" transform="translate(616.93 1400.7) rotate(-89.65)"/><ellipse class="cls-6" cx="1003.87" cy="443" rx="6.12" ry="5.23" transform="translate(554.02 1443.82) rotate(-89.61)"/><ellipse class="cls-6" cx="1002.67" cy="496" rx="8.96" ry="8.32" transform="translate(500.71 1495.7) rotate(-89.66)"/><ellipse class="cls-6" cx="1015.05" cy="549" rx="10.16" ry="9.62" transform="translate(460.27 1560.9) rotate(-89.67)"/><ellipse class="cls-6" cx="1060.87" cy="390" rx="12.38" ry="12.05" transform="translate(668.32 1449.93) rotate(-89.86)"/><ellipse class="cls-6" cx="1052.74" cy="443" rx="14.27" ry="14.11" transform="translate(601.94 1492.42) rotate(-89.57)"/><ellipse class="cls-6" cx="1049.8" cy="496" rx="8.34" ry="7.64" transform="translate(549.3 1543.66) rotate(-89.75)"/><ellipse class="cls-6" cx="1058.25" cy="549" rx="14" ry="13.82" transform="matrix(0.01, -1, 1, 0.01, 500.44, 1602.63)"/><ellipse class="cls-6" cx="1101.57" cy="390" rx="6.74" ry="5.89" transform="translate(708.85 1490.61) rotate(-89.86)"/><ellipse class="cls-6" cx="1106.81" cy="443" rx="11.05" ry="10.6" transform="matrix(0, -1, 1, 0, 660.82, 1548.61)"/><ellipse class="cls-6" cx="1108.78" cy="496" rx="6.27" ry="7.08" transform="translate(-3.8 8.59) rotate(-0.44)"/><ellipse class="cls-6" cx="1096.71" cy="549" rx="13.25" ry="13.48" transform="matrix(1, 0, 0, 1, -2.59, 5.21)"/><ellipse class="cls-6" cx="1139.09" cy="390" rx="6.08" ry="6.91"/><ellipse class="cls-6" cx="1133.74" cy="443" rx="7.44" ry="8.15"/><ellipse class="cls-6" cx="1135.13" cy="496" rx="8.72" ry="8.06" transform="translate(634.8 1629.23) rotate(-89.78)"/><ellipse class="cls-6" cx="1141.15" cy="549" rx="8.1" ry="8.76" transform="translate(-1.35 2.82) rotate(-0.14)"/><ellipse class="cls-6" cx="1188.1" cy="390" rx="7.33" ry="6.54" transform="translate(790.86 1575.7) rotate(-89.65)"/><ellipse class="cls-6" cx="1178.87" cy="443" rx="6.12" ry="5.23" transform="translate(727.83 1618.81) rotate(-89.61)"/><ellipse class="cls-6" cx="1177.67" cy="496" rx="8.96" ry="8.32" transform="translate(674.67 1670.69) rotate(-89.66)"/><ellipse class="cls-6" cx="1190.05" cy="549" rx="10.16" ry="9.62" transform="translate(634.27 1735.9) rotate(-89.67)"/><ellipse class="cls-6" cx="1235.87" cy="390" rx="12.38" ry="12.05" transform="translate(842.9 1624.93) rotate(-89.86)"/><ellipse class="cls-6" cx="1227.74" cy="443" rx="14.27" ry="14.11" transform="translate(775.64 1667.42) rotate(-89.57)"/><ellipse class="cls-6" cx="1224.8" cy="496" rx="8.34" ry="7.64" transform="translate(723.55 1718.66) rotate(-89.75)"/><ellipse class="cls-6" cx="1233.25" cy="549" rx="14" ry="13.82" transform="matrix(0.01, -1, 1, 0.01, 673.98, 1777.62)"/><ellipse class="cls-6" cx="1276.57" cy="390" rx="6.74" ry="5.89" transform="translate(883.42 1665.61) rotate(-89.86)"/><ellipse class="cls-6" cx="1281.81" cy="443" rx="11.05" ry="10.6" transform="matrix(0, -1, 1, 0, 835.34, 1723.61)"/><ellipse class="cls-6" cx="1283.78" cy="496" rx="6.27" ry="7.08" transform="translate(-3.8 9.94) rotate(-0.44)"/><ellipse class="cls-6" cx="1271.71" cy="549" rx="13.25" ry="13.48" transform="matrix(1, 0, 0, 1, -2.59, 6.04)"/><ellipse class="cls-6" cx="964.09" cy="583" rx="6.08" ry="6.91"/><ellipse class="cls-6" cx="958.74" cy="636" rx="7.44" ry="8.15"/><ellipse class="cls-6" cx="967.13" cy="691" rx="8.72" ry="8.06" transform="translate(272.44 1655.48) rotate(-89.78)"/><ellipse class="cls-6" cx="953.15" cy="742" rx="8.1" ry="8.76" transform="translate(-1.83 2.35) rotate(-0.14)"/><ellipse class="cls-6" cx="1013.1" cy="583" rx="7.33" ry="6.54" transform="translate(423.93 1592.53) rotate(-89.65)"/><ellipse class="cls-6" cx="1003.87" cy="636" rx="6.12" ry="5.23" transform="translate(361.03 1635.5) rotate(-89.61)"/><ellipse class="cls-6" cx="1002.67" cy="689" rx="8.96" ry="8.32" transform="translate(307.71 1687.55) rotate(-89.66)"/><ellipse class="cls-6" cx="1015.05" cy="742" rx="10.16" ry="9.62" transform="translate(267.27 1752.8) rotate(-89.67)"/><ellipse class="cls-6" cx="1076.87" cy="602" rx="12.38" ry="12.05" transform="translate(472.28 1677.42) rotate(-89.86)"/><ellipse class="cls-6" cx="1052.74" cy="636" rx="14.27" ry="14.11" transform="translate(408.95 1683.99) rotate(-89.57)"/><ellipse class="cls-6" cx="1049.8" cy="689" rx="8.34" ry="7.64" transform="translate(356.3 1735.83) rotate(-89.75)"/><ellipse class="cls-6" cx="1058.25" cy="742" rx="14" ry="13.82" transform="translate(307.44 1794.02) rotate(-89.52)"/><ellipse class="cls-6" cx="1101.57" cy="583" rx="6.74" ry="5.89" transform="translate(515.85 1683.13) rotate(-89.86)"/><ellipse class="cls-6" cx="1106.81" cy="636" rx="11.05" ry="10.6" transform="translate(467.82 1741.08) rotate(-89.84)"/><ellipse class="cls-6" cx="1108.78" cy="689" rx="6.27" ry="7.08" transform="translate(-5.29 8.59) rotate(-0.44)"/><ellipse class="cls-6" cx="1096.71" cy="742" rx="13.25" ry="13.48" transform="translate(-3.51 5.21) rotate(-0.27)"/><ellipse class="cls-6" cx="1139.09" cy="583" rx="6.08" ry="6.91"/><ellipse class="cls-6" cx="1133.74" cy="636" rx="7.44" ry="8.15"/><ellipse class="cls-6" cx="1135.13" cy="689" rx="8.72" ry="8.06" transform="translate(441.8 1821.49) rotate(-89.78)"/><ellipse class="cls-6" cx="1141.15" cy="742" rx="8.1" ry="8.76" transform="translate(-1.83 2.82) rotate(-0.14)"/><ellipse class="cls-6" cx="1188.1" cy="583" rx="7.33" ry="6.54" transform="translate(597.86 1767.52) rotate(-89.65)"/><ellipse class="cls-6" cx="1178.87" cy="636" rx="6.12" ry="5.23" transform="translate(534.83 1810.5) rotate(-89.61)"/><ellipse class="cls-6" cx="1177.67" cy="689" rx="8.96" ry="8.32" transform="translate(481.67 1862.54) rotate(-89.66)"/><ellipse class="cls-6" cx="1190.05" cy="742" rx="10.16" ry="9.62" transform="translate(441.27 1927.8) rotate(-89.67)"/><ellipse class="cls-6" cx="1235.87" cy="588" rx="12.38" ry="12.05" transform="translate(644.9 1822.45) rotate(-89.86)"/><ellipse class="cls-6" cx="1227.74" cy="636" rx="14.27" ry="14.11" transform="translate(582.65 1858.99) rotate(-89.57)"/><ellipse class="cls-6" cx="1224.8" cy="689" rx="8.34" ry="7.64" transform="translate(530.55 1910.83) rotate(-89.75)"/><ellipse class="cls-6" cx="1233.25" cy="742" rx="14" ry="13.82" transform="translate(480.98 1969.01) rotate(-89.52)"/><ellipse class="cls-6" cx="1276.57" cy="596" rx="6.74" ry="5.89" transform="translate(677.42 1871.1) rotate(-89.86)"/><ellipse class="cls-6" cx="1281.81" cy="636" rx="11.05" ry="10.6" transform="translate(642.34 1916.08) rotate(-89.84)"/><ellipse class="cls-6" cx="1283.78" cy="689" rx="6.27" ry="7.08" transform="translate(-5.29 9.95) rotate(-0.44)"/><ellipse class="cls-6" cx="1271.71" cy="742" rx="13.25" ry="13.48" transform="translate(-3.51 6.04) rotate(-0.27)"/><ellipse class="cls-6" cx="1314.09" cy="390" rx="6.08" ry="6.91"/><ellipse class="cls-6" cx="1308.74" cy="443" rx="7.44" ry="8.15"/><ellipse class="cls-6" cx="1310.13" cy="496" rx="8.72" ry="8.06" transform="translate(809.13 1804.23) rotate(-89.78)"/><ellipse class="cls-6" cx="1316.15" cy="549" rx="8.1" ry="8.76" transform="translate(-1.35 3.25) rotate(-0.14)"/><ellipse class="cls-6" cx="1363.1" cy="390" rx="7.33" ry="6.54" transform="translate(964.79 1750.7) rotate(-89.65)"/><ellipse class="cls-6" cx="1353.87" cy="443" rx="6.12" ry="5.23" transform="translate(901.63 1793.81) rotate(-89.61)"/><ellipse class="cls-6" cx="1352.67" cy="496" rx="8.96" ry="8.32" transform="translate(848.62 1845.69) rotate(-89.66)"/><ellipse class="cls-6" cx="1365.05" cy="549" rx="10.16" ry="9.62" transform="translate(808.27 1910.89) rotate(-89.67)"/><ellipse class="cls-6" cx="1410.87" cy="390" rx="12.38" ry="12.05" transform="translate(1017.48 1799.93) rotate(-89.86)"/><ellipse class="cls-6" cx="1402.74" cy="443" rx="14.27" ry="14.11" transform="translate(949.34 1842.41) rotate(-89.57)"/><ellipse class="cls-6" cx="1399.8" cy="496" rx="8.34" ry="7.64" transform="translate(897.79 1893.66) rotate(-89.75)"/><ellipse class="cls-6" cx="1408.25" cy="549" rx="14" ry="13.82" transform="translate(847.52 1952.62) rotate(-89.52)"/><ellipse class="cls-6" cx="1451.57" cy="390" rx="6.74" ry="5.89" transform="translate(1057.99 1840.61) rotate(-89.86)"/><ellipse class="cls-6" cx="1456.81" cy="443" rx="11.05" ry="10.6" transform="matrix(0, -1, 1, 0, 1009.87, 1898.61)"/><ellipse class="cls-6" cx="1458.78" cy="496" rx="6.27" ry="7.08" transform="translate(-3.79 11.29) rotate(-0.44)"/><ellipse class="cls-6" cx="1446.71" cy="549" rx="13.25" ry="13.48" transform="matrix(1, 0, 0, 1, -2.59, 6.87)"/><ellipse class="cls-6" cx="1489.09" cy="390" rx="6.08" ry="6.91"/><ellipse class="cls-6" cx="1483.74" cy="443" rx="7.44" ry="8.15"/><ellipse class="cls-6" cx="1485.13" cy="496" rx="8.72" ry="8.06" transform="translate(983.46 1979.23) rotate(-89.78)"/><ellipse class="cls-6" cx="1491.15" cy="549" rx="8.1" ry="8.76" transform="translate(-1.35 3.68) rotate(-0.14)"/><ellipse class="cls-6" cx="1538.1" cy="390" rx="7.33" ry="6.54" transform="translate(1138.72 1925.69) rotate(-89.65)"/><ellipse class="cls-6" cx="1528.87" cy="443" rx="6.12" ry="5.23" transform="translate(1075.44 1968.81) rotate(-89.61)"/><ellipse class="cls-6" cx="1527.67" cy="496" rx="8.96" ry="8.32" transform="translate(1022.58 2020.69) rotate(-89.66)"/><ellipse class="cls-6" cx="1540.05" cy="549" rx="10.16" ry="9.62" transform="translate(982.27 2085.89) rotate(-89.67)"/><ellipse class="cls-6" cx="1585.87" cy="390" rx="12.38" ry="12.05" transform="translate(1192.06 1974.93) rotate(-89.86)"/><ellipse class="cls-6" cx="1577.74" cy="443" rx="14.27" ry="14.11" transform="translate(1123.04 2017.41) rotate(-89.57)"/><ellipse class="cls-6" cx="1574.8" cy="496" rx="8.34" ry="7.64" transform="translate(1072.04 2068.65) rotate(-89.75)"/><ellipse class="cls-6" cx="1583.25" cy="549" rx="14" ry="13.82" transform="translate(1021.06 2127.61) rotate(-89.52)"/><ellipse class="cls-6" cx="1626.57" cy="390" rx="6.74" ry="5.89" transform="translate(1232.55 2015.61) rotate(-89.86)"/><ellipse class="cls-6" cx="1631.81" cy="443" rx="11.05" ry="10.6" transform="matrix(0, -1, 1, 0, 1184.4, 2073.61)"/><ellipse class="cls-6" cx="1633.78" cy="496" rx="6.27" ry="7.08" transform="translate(-3.79 12.65) rotate(-0.44)"/><ellipse class="cls-6" cx="1621.71" cy="549" rx="13.25" ry="13.48" transform="matrix(1, 0, 0, 1, -2.59, 7.7)"/><ellipse class="cls-6" cx="1314.09" cy="583" rx="6.08" ry="6.91"/><ellipse class="cls-6" cx="1308.74" cy="636" rx="7.44" ry="8.15"/><ellipse class="cls-6" cx="1310.13" cy="689" rx="8.72" ry="8.06" transform="translate(616.13 1996.49) rotate(-89.78)"/><ellipse class="cls-6" cx="1316.15" cy="742" rx="8.1" ry="8.76" transform="translate(-1.83 3.25) rotate(-0.14)"/><ellipse class="cls-6" cx="1363.1" cy="583" rx="7.33" ry="6.54" transform="translate(771.79 1942.52) rotate(-89.65)"/><ellipse class="cls-6" cx="1353.87" cy="636" rx="6.12" ry="5.23" transform="translate(708.64 1985.49) rotate(-89.61)"/><ellipse class="cls-6" cx="1352.67" cy="689" rx="8.96" ry="8.32" transform="translate(655.63 2037.54) rotate(-89.66)"/><ellipse class="cls-6" cx="1365.05" cy="742" rx="10.16" ry="9.62" transform="translate(615.27 2102.79) rotate(-89.67)"/><ellipse class="cls-6" cx="1410.87" cy="583" rx="12.38" ry="12.05" transform="translate(824.48 1992.47) rotate(-89.86)"/><ellipse class="cls-6" cx="1402.74" cy="636" rx="14.27" ry="14.11" transform="translate(756.35 2033.98) rotate(-89.57)"/><ellipse class="cls-6" cx="1399.8" cy="689" rx="8.34" ry="7.64" transform="translate(704.8 2085.83) rotate(-89.75)"/><ellipse class="cls-6" cx="1408.25" cy="742" rx="14" ry="13.82" transform="translate(654.52 2144.01) rotate(-89.52)"/><ellipse class="cls-6" cx="1451.57" cy="583" rx="6.74" ry="5.89" transform="translate(864.99 2033.13) rotate(-89.86)"/><ellipse class="cls-6" cx="1456.81" cy="636" rx="11.05" ry="10.6" transform="translate(816.87 2091.08) rotate(-89.84)"/><ellipse class="cls-6" cx="1458.78" cy="689" rx="6.27" ry="7.08" transform="translate(-5.28 11.3) rotate(-0.44)"/><ellipse class="cls-6" cx="1446.71" cy="742" rx="13.25" ry="13.48" transform="translate(-3.51 6.88) rotate(-0.27)"/><ellipse class="cls-6" cx="1489.09" cy="583" rx="6.08" ry="6.91"/><ellipse class="cls-6" cx="1483.74" cy="636" rx="7.44" ry="8.15"/><ellipse class="cls-6" cx="1485.13" cy="689" rx="8.72" ry="8.06" transform="translate(790.46 2171.49) rotate(-89.78)"/><ellipse class="cls-6" cx="1491.15" cy="742" rx="8.1" ry="8.76" transform="translate(-1.83 3.68) rotate(-0.14)"/><ellipse class="cls-6" cx="1538.1" cy="583" rx="7.33" ry="6.54" transform="translate(945.72 2117.52) rotate(-89.65)"/><ellipse class="cls-6" cx="1528.87" cy="636" rx="6.12" ry="5.23" transform="translate(882.44 2160.49) rotate(-89.61)"/><ellipse class="cls-6" cx="1527.67" cy="689" rx="8.96" ry="8.32" transform="translate(829.59 2212.54) rotate(-89.66)"/><ellipse class="cls-6" cx="1540.05" cy="742" rx="10.16" ry="9.62" transform="translate(789.28 2277.79) rotate(-89.67)"/><ellipse class="cls-6" cx="1585.87" cy="583" rx="12.38" ry="12.05" transform="translate(999.06 2167.46) rotate(-89.86)"/><ellipse class="cls-6" cx="1577.74" cy="636" rx="14.27" ry="14.11" transform="translate(930.05 2208.98) rotate(-89.57)"/><ellipse class="cls-6" cx="1574.8" cy="689" rx="8.34" ry="7.64" transform="translate(879.05 2260.83) rotate(-89.75)"/><ellipse class="cls-6" cx="1583.25" cy="742" rx="14" ry="13.82" transform="translate(828.07 2319) rotate(-89.52)"/><ellipse class="cls-6" cx="1626.57" cy="583" rx="6.74" ry="5.89" transform="translate(1039.56 2208.13) rotate(-89.86)"/><ellipse class="cls-6" cx="1631.81" cy="636" rx="11.05" ry="10.6" transform="translate(991.4 2266.08) rotate(-89.84)"/><ellipse class="cls-6" cx="1633.78" cy="689" rx="6.27" ry="7.08" transform="translate(-5.28 12.65) rotate(-0.44)"/><ellipse class="cls-6" cx="1621.71" cy="742" rx="13.25" ry="13.48" transform="translate(-3.5 7.71) rotate(-0.27)"/><ellipse class="cls-6" cx="964.09" cy="776" rx="6.08" ry="6.91"/><ellipse class="cls-6" cx="958.74" cy="829" rx="7.44" ry="8.15"/><ellipse class="cls-6" cx="960.13" cy="882" rx="8.72" ry="8.06" transform="translate(74.47 1838.75) rotate(-89.78)"/><ellipse class="cls-6" cx="966.15" cy="935" rx="8.1" ry="8.76" transform="translate(-2.3 2.39) rotate(-0.14)"/><ellipse class="cls-6" cx="1013.1" cy="776" rx="7.33" ry="6.54" transform="translate(230.93 1784.35) rotate(-89.65)"/><ellipse class="cls-6" cx="1003.87" cy="829" rx="6.12" ry="5.23" transform="translate(168.03 1827.18) rotate(-89.61)"/><ellipse class="cls-6" cx="1002.67" cy="882" rx="8.96" ry="8.32" transform="translate(114.71 1879.4) rotate(-89.66)"/><ellipse class="cls-6" cx="1015.05" cy="935" rx="10.16" ry="9.62" transform="translate(74.27 1944.7) rotate(-89.67)"/><ellipse class="cls-6" cx="1060.87" cy="776" rx="12.38" ry="12.05" transform="translate(282.32 1835) rotate(-89.86)"/><ellipse class="cls-6" cx="1052.74" cy="829" rx="14.27" ry="14.11" transform="translate(215.95 1875.56) rotate(-89.57)"/><ellipse class="cls-6" cx="1049.8" cy="882" rx="8.34" ry="7.64" transform="translate(163.3 1928) rotate(-89.75)"/><ellipse class="cls-6" cx="1058.25" cy="935" rx="14" ry="13.82" transform="translate(114.45 1985.41) rotate(-89.52)"/><ellipse class="cls-6" cx="1101.57" cy="776" rx="6.74" ry="5.89" transform="translate(322.85 1875.65) rotate(-89.86)"/><ellipse class="cls-6" cx="1106.81" cy="829" rx="11.05" ry="10.6" transform="matrix(0, -1, 1, 0, 274.82, 1933.56)"/><ellipse class="cls-6" cx="1108.78" cy="882" rx="6.27" ry="7.08" transform="translate(-6.79 8.6) rotate(-0.44)"/><ellipse class="cls-6" cx="1096.71" cy="935" rx="13.25" ry="13.48" transform="translate(-4.43 5.22) rotate(-0.27)"/><ellipse class="cls-6" cx="1139.09" cy="776" rx="6.08" ry="6.91"/><ellipse class="cls-6" cx="1133.74" cy="829" rx="7.44" ry="8.15"/><ellipse class="cls-6" cx="1135.13" cy="882" rx="8.72" ry="8.06" transform="translate(248.8 2013.75) rotate(-89.78)"/><ellipse class="cls-6" cx="1141.15" cy="935" rx="8.1" ry="8.76" transform="translate(-2.3 2.82) rotate(-0.14)"/><ellipse class="cls-6" cx="1188.1" cy="776" rx="7.33" ry="6.54" transform="translate(404.86 1959.34) rotate(-89.65)"/><ellipse class="cls-6" cx="1178.87" cy="829" rx="6.12" ry="5.23" transform="translate(341.84 2002.18) rotate(-89.61)"/><ellipse class="cls-6" cx="1177.67" cy="882" rx="8.96" ry="8.32" transform="translate(288.67 2054.4) rotate(-89.66)"/><ellipse class="cls-6" cx="1190.05" cy="935" rx="10.16" ry="9.62" transform="translate(248.28 2119.7) rotate(-89.67)"/><ellipse class="cls-6" cx="1235.87" cy="776" rx="12.38" ry="12.05" transform="translate(456.9 2010) rotate(-89.86)"/><ellipse class="cls-6" cx="1227.74" cy="829" rx="14.27" ry="14.11" transform="translate(389.65 2050.55) rotate(-89.57)"/><ellipse class="cls-6" cx="1224.8" cy="882" rx="8.34" ry="7.64" transform="translate(337.55 2103) rotate(-89.75)"/><ellipse class="cls-6" cx="1233.25" cy="935" rx="14" ry="13.82" transform="translate(287.99 2160.4) rotate(-89.52)"/><ellipse class="cls-6" cx="1276.57" cy="776" rx="6.74" ry="5.89" transform="translate(497.42 2050.65) rotate(-89.86)"/><ellipse class="cls-6" cx="1281.81" cy="829" rx="11.05" ry="10.6" transform="matrix(0, -1, 1, 0, 449.34, 2108.56)"/><ellipse class="cls-6" cx="1283.78" cy="882" rx="6.27" ry="7.08" transform="translate(-6.78 9.95) rotate(-0.44)"/><ellipse class="cls-6" cx="1271.71" cy="935" rx="13.25" ry="13.48" transform="translate(-4.42 6.05) rotate(-0.27)"/><ellipse class="cls-6" cx="964.09" cy="969" rx="6.08" ry="6.91"/><ellipse class="cls-6" cx="958.74" cy="1022" rx="7.44" ry="8.15"/><ellipse class="cls-6" cx="960.13" cy="1075" rx="8.72" ry="8.06" transform="translate(-118.53 2031.02) rotate(-89.78)"/><ellipse class="cls-6" cx="966.15" cy="1128" rx="8.1" ry="8.76" transform="translate(-2.78 2.39) rotate(-0.14)"/><ellipse class="cls-6" cx="1013.1" cy="969" rx="7.33" ry="6.54" transform="translate(37.94 1976.17) rotate(-89.65)"/><ellipse class="cls-6" cx="1003.87" cy="1022" rx="6.12" ry="5.23" transform="translate(-24.97 2018.86) rotate(-89.61)"/><ellipse class="cls-6" cx="1002.67" cy="1075" rx="8.96" ry="8.32" transform="translate(-78.28 2071.25) rotate(-89.66)"/><ellipse class="cls-6" cx="1015.05" cy="1128" rx="10.16" ry="9.62" transform="translate(-118.72 2136.6) rotate(-89.67)"/><ellipse class="cls-6" cx="1060.87" cy="969" rx="12.38" ry="12.05" transform="translate(89.32 2027.54) rotate(-89.86)"/><ellipse class="cls-6" cx="1052.74" cy="1022" rx="14.27" ry="14.11" transform="translate(22.96 2067.13) rotate(-89.57)"/><ellipse class="cls-6" cx="1049.8" cy="1075" rx="8.34" ry="7.64" transform="translate(-29.7 2120.17) rotate(-89.75)"/><ellipse class="cls-6" cx="1058.25" cy="1128" rx="14" ry="13.82" transform="translate(-78.54 2176.8) rotate(-89.52)"/><ellipse class="cls-6" cx="1101.57" cy="969" rx="6.74" ry="5.89" transform="translate(129.85 2068.18) rotate(-89.86)"/><ellipse class="cls-6" cx="1106.81" cy="1022" rx="11.05" ry="10.6" transform="matrix(0, -1, 1, 0, 81.82, 2126.04)"/><ellipse class="cls-6" cx="1108.78" cy="1075" rx="6.27" ry="7.08" transform="translate(-8.28 8.6) rotate(-0.44)"/><ellipse class="cls-6" cx="1096.71" cy="1128" rx="13.25" ry="13.48" transform="translate(-5.34 5.22) rotate(-0.27)"/><ellipse class="cls-6" cx="1139.09" cy="969" rx="6.08" ry="6.91"/><ellipse class="cls-6" cx="1133.74" cy="1022" rx="7.44" ry="8.15"/><ellipse class="cls-6" cx="1135.13" cy="1075" rx="8.72" ry="8.06" transform="translate(55.8 2206.02) rotate(-89.78)"/><ellipse class="cls-6" cx="1141.15" cy="1128" rx="8.1" ry="8.76" transform="translate(-2.78 2.82) rotate(-0.14)"/><ellipse class="cls-6" cx="1188.1" cy="969" rx="7.33" ry="6.54" transform="translate(211.87 2151.17) rotate(-89.65)"/><ellipse class="cls-6" cx="1178.87" cy="1022" rx="6.12" ry="5.23" transform="translate(148.84 2193.86) rotate(-89.61)"/><ellipse class="cls-6" cx="1177.67" cy="1075" rx="8.96" ry="8.32" transform="translate(95.68 2246.25) rotate(-89.66)"/><ellipse class="cls-6" cx="1190.05" cy="1128" rx="10.16" ry="9.62" transform="translate(55.28 2311.59) rotate(-89.67)"/><ellipse class="cls-6" cx="1235.87" cy="969" rx="12.38" ry="12.05" transform="translate(263.9 2202.54) rotate(-89.86)"/><ellipse class="cls-6" cx="1227.74" cy="1022" rx="14.27" ry="14.11" transform="translate(196.66 2242.12) rotate(-89.57)"/><ellipse class="cls-6" cx="1224.8" cy="1075" rx="8.34" ry="7.64" transform="translate(144.55 2295.17) rotate(-89.75)"/><ellipse class="cls-6" cx="1233.25" cy="1128" rx="14" ry="13.82" transform="translate(95 2351.79) rotate(-89.52)"/><ellipse class="cls-6" cx="1276.57" cy="969" rx="6.74" ry="5.89" transform="translate(304.42 2243.17) rotate(-89.86)"/><ellipse class="cls-6" cx="1281.81" cy="1022" rx="11.05" ry="10.6" transform="matrix(0, -1, 1, 0, 256.34, 2301.04)"/><ellipse class="cls-6" cx="1283.78" cy="1075" rx="6.27" ry="7.08" transform="translate(-8.27 9.96) rotate(-0.44)"/><ellipse class="cls-6" cx="1271.71" cy="1128" rx="13.25" ry="13.48" transform="translate(-5.34 6.05) rotate(-0.27)"/><ellipse class="cls-6" cx="1314.09" cy="776" rx="6.08" ry="6.91"/><ellipse class="cls-6" cx="1308.74" cy="829" rx="7.44" ry="8.15"/><ellipse class="cls-6" cx="1310.13" cy="882" rx="8.72" ry="8.06" transform="translate(423.13 2188.75) rotate(-89.78)"/><ellipse class="cls-6" cx="1316.15" cy="935" rx="8.1" ry="8.76" transform="translate(-2.3 3.25) rotate(-0.14)"/><ellipse class="cls-6" cx="1363.1" cy="776" rx="7.33" ry="6.54" transform="translate(578.8 2134.34) rotate(-89.65)"/><ellipse class="cls-6" cx="1353.87" cy="829" rx="6.12" ry="5.23" transform="translate(515.64 2177.17) rotate(-89.61)"/><ellipse class="cls-6" cx="1352.67" cy="882" rx="8.96" ry="8.32" transform="translate(462.63 2229.39) rotate(-89.66)"/><ellipse class="cls-6" cx="1365.05" cy="935" rx="10.16" ry="9.62" transform="translate(422.28 2294.69) rotate(-89.67)"/><ellipse class="cls-6" cx="1410.87" cy="776" rx="12.38" ry="12.05" transform="translate(631.48 2185) rotate(-89.86)"/><ellipse class="cls-6" cx="940.74" cy="794" rx="14.27" ry="14.11" transform="translate(139.78 1728.82) rotate(-89.57)"/><ellipse class="cls-6" cx="1399.8" cy="882" rx="8.34" ry="7.64" transform="translate(511.8 2278) rotate(-89.75)"/><ellipse class="cls-6" cx="1408.25" cy="935" rx="14" ry="13.82" transform="translate(461.53 2335.4) rotate(-89.52)"/><ellipse class="cls-6" cx="1451.57" cy="776" rx="6.74" ry="5.89" transform="translate(671.99 2225.65) rotate(-89.86)"/><ellipse class="cls-6" cx="1456.81" cy="829" rx="11.05" ry="10.6" transform="matrix(0, -1, 1, 0, 623.87, 2283.56)"/><ellipse class="cls-6" cx="1458.78" cy="882" rx="6.27" ry="7.08" transform="translate(-6.78 11.3) rotate(-0.44)"/><ellipse class="cls-6" cx="1446.71" cy="935" rx="13.25" ry="13.48" transform="translate(-4.42 6.88) rotate(-0.27)"/><ellipse class="cls-6" cx="1489.09" cy="776" rx="6.08" ry="6.91"/><ellipse class="cls-6" cx="1483.74" cy="829" rx="7.44" ry="8.15"/><ellipse class="cls-6" cx="1485.13" cy="882" rx="8.72" ry="8.06" transform="translate(597.46 2363.75) rotate(-89.78)"/><ellipse class="cls-6" cx="1491.15" cy="935" rx="8.1" ry="8.76" transform="translate(-2.3 3.68) rotate(-0.14)"/><ellipse class="cls-6" cx="1538.1" cy="776" rx="7.33" ry="6.54" transform="translate(752.73 2309.34) rotate(-89.65)"/><ellipse class="cls-6" cx="1528.87" cy="829" rx="6.12" ry="5.23" transform="translate(689.44 2352.17) rotate(-89.61)"/><ellipse class="cls-6" cx="1527.67" cy="882" rx="8.96" ry="8.32" transform="translate(636.59 2404.39) rotate(-89.66)"/><ellipse class="cls-6" cx="1540.05" cy="935" rx="10.16" ry="9.62" transform="translate(596.28 2469.69) rotate(-89.67)"/><ellipse class="cls-6" cx="1585.87" cy="776" rx="12.38" ry="12.05" transform="translate(806.06 2360) rotate(-89.86)"/><ellipse class="cls-6" cx="1577.74" cy="829" rx="14.27" ry="14.11" transform="translate(737.05 2400.55) rotate(-89.57)"/><ellipse class="cls-6" cx="1574.8" cy="882" rx="8.34" ry="7.64" transform="translate(686.05 2453) rotate(-89.75)"/><ellipse class="cls-6" cx="1583.25" cy="935" rx="14" ry="13.82" transform="translate(635.07 2510.39) rotate(-89.52)"/><ellipse class="cls-6" cx="1626.57" cy="776" rx="6.74" ry="5.89" transform="translate(846.56 2400.65) rotate(-89.86)"/><ellipse class="cls-6" cx="1631.81" cy="829" rx="11.05" ry="10.6" transform="matrix(0, -1, 1, 0, 798.4, 2458.56)"/><ellipse class="cls-6" cx="1633.78" cy="882" rx="6.27" ry="7.08" transform="translate(-6.77 12.66) rotate(-0.44)"/><ellipse class="cls-6" cx="1621.71" cy="935" rx="13.25" ry="13.48" transform="translate(-4.42 7.71) rotate(-0.27)"/><ellipse class="cls-6" cx="1314.09" cy="969" rx="6.08" ry="6.91"/><ellipse class="cls-6" cx="1308.74" cy="1022" rx="7.44" ry="8.15"/><ellipse class="cls-6" cx="1310.13" cy="1075" rx="8.72" ry="8.06" transform="translate(230.13 2381.01) rotate(-89.78)"/><ellipse class="cls-6" cx="1316.15" cy="1128" rx="8.1" ry="8.76" transform="translate(-2.78 3.25) rotate(-0.14)"/><ellipse class="cls-6" cx="1363.1" cy="969" rx="7.33" ry="6.54" transform="translate(385.8 2326.16) rotate(-89.65)"/><ellipse class="cls-6" cx="1353.87" cy="1022" rx="6.12" ry="5.23" transform="translate(322.64 2368.86) rotate(-89.61)"/><ellipse class="cls-6" cx="1352.67" cy="1075" rx="8.96" ry="8.32" transform="translate(269.63 2421.24) rotate(-89.66)"/><ellipse class="cls-6" cx="1365.05" cy="1128" rx="10.16" ry="9.62" transform="translate(229.28 2486.59) rotate(-89.67)"/><ellipse class="cls-6" cx="1410.87" cy="969" rx="12.38" ry="12.05" transform="translate(438.48 2377.54) rotate(-89.86)"/><ellipse class="cls-6" cx="1402.74" cy="1022" rx="14.27" ry="14.11" transform="translate(370.36 2417.12) rotate(-89.57)"/><ellipse class="cls-6" cx="1399.8" cy="1075" rx="8.34" ry="7.64" transform="translate(318.8 2470.17) rotate(-89.75)"/><ellipse class="cls-6" cx="1408.25" cy="1128" rx="14" ry="13.82" transform="matrix(0.01, -1, 1, 0.01, 268.54, 2526.79)"/><ellipse class="cls-6" cx="1451.57" cy="969" rx="6.74" ry="5.89" transform="translate(478.99 2418.17) rotate(-89.86)"/><ellipse class="cls-6" cx="1456.81" cy="1022" rx="11.05" ry="10.6" transform="translate(430.87 2476.04) rotate(-89.84)"/><ellipse class="cls-6" cx="1458.78" cy="1075" rx="6.27" ry="7.08" transform="translate(-8.27 11.31) rotate(-0.44)"/><ellipse class="cls-6" cx="1446.71" cy="1128" rx="13.25" ry="13.48" transform="translate(-5.34 6.88) rotate(-0.27)"/><ellipse class="cls-6" cx="1489.09" cy="969" rx="6.08" ry="6.91"/><ellipse class="cls-6" cx="1483.74" cy="1022" rx="7.44" ry="8.15"/><ellipse class="cls-6" cx="1485.13" cy="1075" rx="8.72" ry="8.06" transform="translate(404.46 2556.01) rotate(-89.78)"/><ellipse class="cls-6" cx="1491.15" cy="1128" rx="8.1" ry="8.76" transform="translate(-2.78 3.68) rotate(-0.14)"/><ellipse class="cls-6" cx="1538.1" cy="969" rx="7.33" ry="6.54" transform="translate(559.73 2501.16) rotate(-89.65)"/><ellipse class="cls-6" cx="1528.87" cy="1022" rx="6.12" ry="5.23" transform="translate(496.45 2543.85) rotate(-89.61)"/><ellipse class="cls-6" cx="1527.67" cy="1075" rx="8.96" ry="8.32" transform="translate(443.59 2596.24) rotate(-89.66)"/><ellipse class="cls-6" cx="1540.05" cy="1128" rx="10.16" ry="9.62" transform="translate(403.28 2661.59) rotate(-89.67)"/><ellipse class="cls-6" cx="1585.87" cy="969" rx="12.38" ry="12.05" transform="translate(613.06 2552.54) rotate(-89.86)"/><ellipse class="cls-6" cx="1577.74" cy="1022" rx="14.27" ry="14.11" transform="translate(544.06 2592.11) rotate(-89.57)"/><ellipse class="cls-6" cx="1574.8" cy="1075" rx="8.34" ry="7.64" transform="translate(493.05 2645.17) rotate(-89.75)"/><ellipse class="cls-6" cx="1583.25" cy="1128" rx="14" ry="13.82" transform="matrix(0.01, -1, 1, 0.01, 442.08, 2701.78)"/><ellipse class="cls-6" cx="1626.57" cy="969" rx="6.74" ry="5.89" transform="translate(653.56 2593.17) rotate(-89.86)"/><ellipse class="cls-6" cx="1631.81" cy="1022" rx="11.05" ry="10.6" transform="translate(605.4 2651.04) rotate(-89.84)"/><ellipse class="cls-6" cx="1633.78" cy="1075" rx="6.27" ry="7.08" transform="translate(-8.26 12.66) rotate(-0.44)"/><ellipse class="cls-6" cx="1621.71" cy="1128" rx="13.25" ry="13.48" transform="translate(-5.34 7.71) rotate(-0.27)"/></g></g></g></g></g></svg>