<svg xmlns="http://www.w3.org/2000/svg" xmlns:xlink="http://www.w3.org/1999/xlink" viewBox="0 0 1196.17 1249.24"><defs><style>.cls-1,.cls-10,.cls-11,.cls-12,.cls-13,.cls-14,.cls-15,.cls-16,.cls-17,.cls-18,.cls-19,.cls-20,.cls-21,.cls-22,.cls-23,.cls-24,.cls-4,.cls-5,.cls-6,.cls-7,.cls-8,.cls-9{fill:none;}.cls-2{clip-path:url(#clip-path);}.cls-3{fill:#2f3640;stroke:#9286d4;}.cls-10,.cls-11,.cls-12,.cls-13,.cls-14,.cls-15,.cls-16,.cls-17,.cls-18,.cls-19,.cls-20,.cls-21,.cls-22,.cls-23,.cls-24,.cls-3,.cls-4,.cls-5,.cls-6,.cls-7,.cls-8,.cls-9{stroke-miterlimit:10;}.cls-4{stroke:#fafe20;}.cls-10,.cls-11,.cls-12,.cls-13,.cls-14,.cls-15,.cls-16,.cls-17,.cls-18,.cls-19,.cls-20,.cls-21,.cls-22,.cls-23,.cls-24,.cls-4,.cls-5,.cls-6,.cls-7,.cls-8,.cls-9{stroke-linecap:round;stroke-width:2px;stroke-dasharray:9.01 9.01;}.cls-5{stroke:#edfb2c;}.cls-6{stroke:#e2f836;}.cls-7{stroke:#d5f542;}.cls-8{stroke:#caf24b;}.cls-9{stroke:#bdef57;}.cls-10{stroke:#b1ed62;}.cls-11{stroke:#a6ea6c;}.cls-12{stroke:#99e777;}.cls-13{stroke:#8ce483;}.cls-14{stroke:#81e18d;}.cls-15{stroke:#74de97;}.cls-16{stroke:#67dba3;}.cls-17{stroke:#5bd8ae;}.cls-18{stroke:#4fd6b8;}.cls-19{stroke:#43d3c3;}.cls-20{stroke:#37d0ce;}.cls-21{stroke:#2bcdd9;}.cls-22{stroke:#20cbe2;}.cls-23{stroke:#14c8ed;}.cls-24{stroke:#07c5f9;}</style><clipPath id="clip-path"><rect class="cls-1" x="2" width="974" height="974"/></clipPath></defs><title>bg-dashes</title><g id="Layer_2" data-name="Layer 2"><g id="Layer_1-2" data-name="Layer 1"><g class="cls-2"><rect class="cls-3" x="0.5" y="0.5" width="974" height="974"/><path class="cls-4" d="M859.51,888.14a9.47,9.47,0,0,0-14.28-.74c-3.12,3.35-4.72,7.86-7.71,11.32a18.93,18.93,0,0,1-4.51,3.82c-13.19,8-30.08-2-29.92-17.49h0A11.85,11.85,0,0,0,792,873.67a60.51,60.51,0,0,0-11.81.09c-12.35,1.86-21.88-10.79-16.27-21.9,0-.08.08-.17.13-.25,5.49-10.59,15.77-18.1,20.91-28.92a9.25,9.25,0,0,0,.76-2.22c1.07-5.62-4.11-7.79-7.92-10.41-13.48-9.27-12-31.63,0-42.75q.55-.52,1.14-1c21-17.87,55.91,2.17,44.21,27.14l0,0a9.27,9.27,0,0,0,7.3,12.31q3,.47,6.11.75a15.13,15.13,0,0,0,15.23-21.16c-.05-.12-.1-.24-.16-.36a14.13,14.13,0,0,1,9-19.25c2.69-.8,5.39-1.54,8.13-2.07,8.31-1.63,17.78-1.05,24,4.7,9.78,9.05,6.43,25.81-1.34,36.5a4.89,4.89,0,0,0-.95,2.07c-.54,3,2.53,4.2,5,4.73a160.6,160.6,0,0,0,32.05,3.53,23.27,23.27,0,0,1,22.93,23.2v.28a13.44,13.44,0,0,1-2.26,7.7c-7.2,10.42-22.48,1.74-32,6.18-13.61,6.34-11.14,17.17-15.62,28.58-3.78,9.66-8.76,19.14-20.39,20.76C865.66,903.93,865.62,895.82,859.51,888.14Z"/><path class="cls-5" d="M854.86,893a10.21,10.21,0,0,0-15.24-2.13c-3.65,3.3-5.79,8-9.31,11.4a20.53,20.53,0,0,1-5.19,3.67c-14.89,7.37-32-5-30.41-21.54h0a12.77,12.77,0,0,0-10.79-13.23,66.38,66.38,0,0,0-12.67-1c-13.4.85-22.42-13.6-15.37-25l.16-.25c6.88-10.83,18.59-17.91,25.11-29a9.91,9.91,0,0,0,1-2.31c1.67-5.92-3.67-8.73-7.5-11.89-13.57-11.19-9.85-35,4-45.79.43-.34.87-.67,1.32-1,24.17-17.18,59.68,7.55,44.81,33.21l0,0a10,10,0,0,0,6.67,13.87q3.21.78,6.47,1.38a16.27,16.27,0,0,0,18.3-21.24c0-.14-.09-.27-.14-.4A15.21,15.21,0,0,1,867.54,762c2.94-.6,5.9-1.14,8.89-1.45,9.06-1,19.15.55,25.27,7.29,9.63,10.6,4.47,28.25-4.86,39a5.42,5.42,0,0,0-1.21,2.12c-.85,3.19,2.32,4.74,5,5.55a173.27,173.27,0,0,0,34,6.78,25,25,0,0,1,22.39,27l0,.3a14.44,14.44,0,0,1-3.15,8c-8.68,10.48-24.23-.25-34.87,3.62-15.17,5.51-13.55,17.34-19.41,29.14-5,10-11.18,19.69-23.78,20.33C860,910.5,860.67,901.8,854.86,893Z"/><path class="cls-6" d="M849.41,897.77a11,11,0,0,0-16.12-3.7c-4.22,3.18-6.95,8-11,11.33a21.72,21.72,0,0,1-5.91,3.44c-16.63,6.51-33.84-8.36-30.55-25.92h0a13.72,13.72,0,0,0-10.32-15.18A70.91,70.91,0,0,0,762,865.47c-14.44-.35-22.74-16.67-14.13-28.19a2.56,2.56,0,0,1,.2-.26c8.38-11,21.58-17.45,29.62-28.73a11.25,11.25,0,0,0,1.31-2.38c2.34-6.19-3.12-9.69-6.93-13.44-13.49-13.26-7.27-38.41,8.62-48.68.5-.32,1-.63,1.51-.92,27.5-16.14,63.22,13.69,44.88,39.77l0,.05a10.71,10.71,0,0,0,5.84,15.47c2.25.77,4.52,1.46,6.8,2.09a17.5,17.5,0,0,0,21.6-21c0-.14-.07-.29-.11-.44a16.34,16.34,0,0,1,14.08-20.12c3.21-.37,6.43-.67,9.67-.73,9.78-.18,20.46,2.39,26.38,10.18,9.32,12.26,2.14,30.68-8.86,41.29a5.89,5.89,0,0,0-1.5,2.16c-1.21,3.34,2,5.29,4.8,6.41a186.23,186.23,0,0,0,35.78,10.45,26.91,26.91,0,0,1,21.45,31c0,.11,0,.21,0,.32a15.56,15.56,0,0,1-4.13,8.31c-10.28,10.41-25.94-2.53-37.69.61C904.35,873.16,905,886,897.6,898.07c-6.25,10.24-13.82,20-27.39,19.54C853.23,917,854.82,907.75,849.41,897.77Z"/><path class="cls-7" d="M843.13,902.37a11.79,11.79,0,0,0-16.92-5.48c-4.82,3-8.19,7.92-12.89,11.11a23.71,23.71,0,0,1-6.65,3.13c-18.43,5.41-35.46-12.13-30.3-30.63h0a14.73,14.73,0,0,0-9.63-17.22,76.51,76.51,0,0,0-14.22-3.7c-15.43-1.73-22.79-20-12.49-31.53l.24-.25c10-10.95,24.76-16.67,34.42-28a11.56,11.56,0,0,0,1.62-2.43c3.09-6.41-2.43-10.67-6.16-15C757,766.86,766,740.5,784,731c.56-.3,1.13-.59,1.7-.86,31-14.71,66.44,20.59,44.36,46.81l0,0a11.53,11.53,0,0,0,4.81,17.13c2.34,1,4.7,2,7.09,2.87A18.82,18.82,0,0,0,867,776.49c0-.16-.05-.32-.08-.48a17.57,17.57,0,0,1,17-20.24c3.48-.09,7-.11,10.42.13,10.5.72,21.69,4.47,27.31,13.37,8.83,14-.59,33.06-13.36,43.4a6.36,6.36,0,0,0-1.81,2.18c-1.61,3.45,1.7,5.86,4.54,7.31a199.92,199.92,0,0,0,37.35,14.54A28.94,28.94,0,0,1,968.39,872l-.09.33a16.69,16.69,0,0,1-5.2,8.52c-12,10.19-27.54-5.15-40.43-2.88-18.38,3.23-18.91,17-27.95,29.29-7.65,10.38-16.68,20.17-31.17,18.37C845.43,923.32,848,913.57,843.13,902.37Z"/><path class="cls-8" d="M836,906.71a12.66,12.66,0,0,0-17.6-7.45C812.91,902,808.85,907,803.51,910a25.46,25.46,0,0,1-7.41,2.73c-20.25,4.07-36.86-16.32-29.59-35.65h0a15.86,15.86,0,0,0-8.7-19.36c-5.06-2.23-10.7-4.44-14.88-5.28-16.37-3.31-22.55-23.56-10.43-34.95l.28-.25c11.74-10.79,28.08-15.53,39.49-26.77a12.24,12.24,0,0,0,2-2.45c3.91-6.57-1.61-11.66-5.19-16.69-12.69-17.81-.56-45.2,19.59-53.69.63-.26,1.27-.52,1.9-.75,34.56-12.86,69.24,28.28,43.13,54.3l0,0a12.39,12.39,0,0,0,3.55,18.8q3.6,2,7.32,3.74a20.23,20.23,0,0,0,28.81-19.62l0-.52a18.89,18.89,0,0,1,20.07-20.09c3.73.23,7.46.54,11.15,1.12,11.18,1.75,22.82,6.82,28,16.88,8.15,15.84-3.72,35.36-18.38,45.24a6.79,6.79,0,0,0-2.14,2.16c-2,3.55,1.27,6.44,4.17,8.25a214.94,214.94,0,0,0,38.65,19.09A31.12,31.12,0,0,1,973,885.86c0,.12-.08.23-.13.35a18,18,0,0,1-6.36,8.64c-13.81,9.79-29-8.1-43-6.88-20,1.74-21.84,16.47-32.68,28.76-9.17,10.4-19.76,20-35.1,16.75C836.47,929.36,840.13,919.16,836,906.71Z"/><path class="cls-9" d="M827.9,910.69a13.63,13.63,0,0,0-18.16-9.64c-6.1,2.46-10.92,7.37-16.92,10.06a27.09,27.09,0,0,1-8.19,2.23c-22.07,2.46-38-20.93-28.36-41h0a17,17,0,0,0-7.5-21.54c-5.21-2.87-11-5.77-15.45-7.06-17.22-5.07-21.94-27.35-7.89-38.41l.32-.25c13.59-10.46,31.53-14,44.81-25a13.45,13.45,0,0,0,2.34-2.43c4.81-6.68-.63-12.65-4-18.37-11.92-20.27,3.64-48.47,26-55.68.7-.22,1.41-.43,2.11-.63,38.22-10.53,71.52,36.78,41.1,62.21l0,0a13.33,13.33,0,0,0,2,20.47q3.68,2.46,7.49,4.7a21.76,21.76,0,0,0,32.7-18.32c0-.19,0-.38,0-.56a20.33,20.33,0,0,1,23.39-19.64c4,.6,7.94,1.27,11.84,2.24,11.81,2.93,23.8,9.45,28.41,20.71,7.24,17.73-7.3,37.53-23.92,46.73a7.34,7.34,0,0,0-2.5,2.12c-2.53,3.61.75,7,3.69,9.23A230.89,230.89,0,0,0,960.85,857a33.45,33.45,0,0,1,15.78,44.16c0,.12-.11.24-.17.36a19.29,19.29,0,0,1-7.62,8.65c-15.71,9.2-30.34-11.39-45.47-11.39-21.57,0-24.94,15.59-37.7,27.73-10.8,10.29-23,19.62-39.17,14.66C826.31,935,831.18,924.41,827.9,910.69Z"/><path class="cls-10" d="M818.88,914.19c-1.3-8.76-10.08-14.61-18.55-12-6.77,2.06-12.39,6.87-19.07,9.19a29.2,29.2,0,0,1-9,1.62c-23.87.57-38.69-26-26.54-46.53h0a18.34,18.34,0,0,0-6-23.79c-5.31-3.56-11.29-7.21-15.88-9-18-7-20.94-31.34-4.86-41.88l.37-.23c15.53-9.93,35.09-12,50.35-22.55a14.4,14.4,0,0,0,2.72-2.39c5.78-6.7.52-13.6-2.55-20.05C759,723.73,778.31,695,803,689.35c.77-.18,1.54-.33,2.31-.48,41.92-7.7,73.16,46.1,38.2,70.49l-.05,0a14.33,14.33,0,0,0,.26,22.12c2.48,2,5,3.9,7.59,5.73A23.4,23.4,0,0,0,888,770.7l.06-.61A21.85,21.85,0,0,1,915,751.25c4.21,1,8.39,2.11,12.47,3.51,12.38,4.25,24.62,12.35,28.49,24.85,6.11,19.66-11.33,39.51-30,47.81a7.81,7.81,0,0,0-2.87,2c-3,3.63.15,7.58,3.09,10.23a247.85,247.85,0,0,0,40.17,29.49A36,36,0,0,1,979.09,918l-.22.38a20.76,20.76,0,0,1-9,8.55c-17.68,8.38-31.42-15-47.63-16.47-23.11-2-28.18,14.36-43,26.18-12.53,10-26.52,18.86-43.33,12C814.89,940.08,821.11,929.2,818.88,914.19Z"/><path class="cls-11" d="M808.89,917.1c-.58-9.51-9.43-16.6-18.75-14.62-7.44,1.58-13.91,6.2-21.28,8.06a31.44,31.44,0,0,1-9.78.89c-25.62-1.62-39-31.45-24.06-52.32h0a19.71,19.71,0,0,0-4.22-26c-5.35-4.31-11.42-8.78-16.17-11.14-18.6-9.23-19.49-35.54-1.28-45.31l.42-.22c17.57-9.18,38.72-9.61,56-19.44a15.42,15.42,0,0,0,3.15-2.3c6.81-6.63,1.82-14.52-.86-21.71-9.51-25.47,13.87-54.46,40.8-58.18.84-.11,1.69-.21,2.53-.29,45.63-4.32,74.05,56.24,34.31,79.08l-.06,0a15.42,15.42,0,0,0-1.79,23.72c2.46,2.36,5,4.64,7.59,6.85a25.16,25.16,0,0,0,40.92-14.29l.12-.64a23.49,23.49,0,0,1,30.57-17.66c4.41,1.47,8.79,3,13,4.92C953,762.2,965.33,772,968.31,785.78c4.69,21.64-15.85,41.26-36.62,48.41a8.31,8.31,0,0,0-3.27,1.91c-3.6,3.6-.55,8.13,2.36,11.25A266.45,266.45,0,0,0,971,882.7a38.69,38.69,0,0,1,9.11,53.45l-.27.38a22.35,22.35,0,0,1-10.42,8.33c-19.73,7.31-32.26-19.06-49.48-22.11-24.56-4.34-31.53,12.74-48.5,24-14.36,9.55-30.18,17.72-47.55,8.83C802.19,944.46,809.87,933.38,808.89,917.1Z"/><path class="cls-12" d="M797.91,919.28c.28-10.24-8.54-18.66-18.71-17.42-8.12,1-15.48,5.34-23.55,6.64a33.71,33.71,0,0,1-10.56,0c-27.29-4.14-38.83-37.34-20.87-58.31h0a21.2,21.2,0,0,0-2.09-28.29c-5.33-5.12-11.41-10.48-16.27-13.45-19.06-11.63-17.56-39.89,2.88-48.66l.46-.19c19.68-8.19,42.37-6.67,61.85-15.57a16.59,16.59,0,0,0,3.59-2.17c7.92-6.47,3.31-15.39,1.11-23.34-7.8-28.18,20-57,49.16-58.49.92-.05,1.83-.07,2.73-.08,49.29-.35,74.06,67.18,29.35,87.93l-.07,0a16.57,16.57,0,0,0-4.14,25.23q3.63,4.14,7.49,8c14.46,14.64,39.46,8.29,45.17-11.47.06-.23.13-.45.19-.68A25.26,25.26,0,0,1,940,753c4.59,2,9.13,4.08,13.5,6.5,13.24,7.32,25.54,19,27.45,34,3,23.62-20.85,42.72-43.76,48.42a9,9,0,0,0-3.68,1.74c-4.2,3.53-1.35,8.66,1.46,12.28a287.26,287.26,0,0,0,39.82,41.64,41.59,41.59,0,0,1,4.74,58.11l-.31.38a24.06,24.06,0,0,1-12,7.94c-21.82,6-32.76-23.44-50.93-28.32-25.9-7-35,10.7-54.2,21.18-16.28,8.87-34,16.15-51.76,5C788.18,948,797.44,936.81,797.91,919.28Z"/><path class="cls-13" d="M786,920.58c1.26-10.94-7.4-20.79-18.41-20.41-8.79.31-17.09,4.27-25.85,4.91a36.27,36.27,0,0,1-11.31-1c-28.85-7-38.1-43.64-16.89-64.41h0a22.78,22.78,0,0,0,.42-30.49c-5.23-6-11.24-12.3-16.17-15.93-19.33-14.25-15.07-44.38,7.64-51.86l.51-.17c21.86-6.92,46-3.16,67.72-10.87a17.93,17.93,0,0,0,4-2c9.09-6.19,5-16.17,3.37-24.9-5.71-30.91,26.74-59.22,58.15-58,1,0,2,.1,2.93.18,52.82,4.24,73,78.9,23.19,96.93l-.08,0a17.82,17.82,0,0,0-6.79,26.64q3.5,4.77,7.27,9.33c14.11,17,41.48,12.57,49.45-8.06l.27-.7a27.16,27.16,0,0,1,38.35-14c4.73,2.57,9.4,5.23,13.86,8.23,13.49,9.08,25.58,22.75,26.21,39,1,25.59-26.33,43.81-51.41,47.77a9.7,9.7,0,0,0-4.11,1.52c-4.82,3.38-2.26,9.15.42,13.29A308.69,308.69,0,0,0,977.49,914a44.73,44.73,0,0,1-.36,62.69l-.38.38a25.83,25.83,0,0,1-13.54,7.38c-23.93,4.37-32.9-28.17-51.9-35.1-27.1-9.88-38.46,8.18-60,17.61-18.26,8-37.92,14.11-55.91.5C772.84,950.39,783.8,939.32,786,920.58Z"/><path class="cls-14" d="M773,920.86c2.37-11.61-6-23-17.81-23.59-9.44-.49-18.7,3-28.15,2.83A39.18,39.18,0,0,1,715,898c-30.25-10.2-36.72-50.32-12.06-70.58h0a24.52,24.52,0,0,0,3.31-32.63c-5-6.9-10.9-14.23-15.84-18.58-19.36-17.07-12-49,13-54.83l.57-.13c24-5.37,49.59.92,73.55-5.31a19.08,19.08,0,0,0,4.52-1.75c10.32-5.78,6.87-16.85,6-26.36-3.22-33.64,34.19-60.93,67.73-56.72,1,.13,2.09.28,3.12.46,56.19,9.49,70.83,91.36,15.76,106l-.09,0a19.16,19.16,0,0,0-9.78,27.9q3.3,5.43,6.92,10.67c13.52,19.57,43.26,17.36,53.73-4,.12-.24.24-.48.35-.73a29.2,29.2,0,0,1,42.39-11.37c4.83,3.19,9.58,6.48,14.07,10.11,13.61,11,25.27,26.77,24.43,44.24-1.33,27.5-32.31,44.45-59.55,46.35a10.47,10.47,0,0,0-4.54,1.24c-5.49,3.17-3.28,9.59-.8,14.27a332.32,332.32,0,0,0,37,55.41c16.65,20.21,13.71,50.18-6.27,67.12l-.44.37a27.78,27.78,0,0,1-15.19,6.64c-26,2.44-32.6-33.27-52.3-42.47-28.1-13.12-42,5.16-66,13.23-20.32,6.84-41.95,11.56-59.94-4.7C756.17,951.56,769,940.73,773,920.86Z"/><path class="cls-15" d="M759.14,919.94c3.62-12.21-4.26-25.15-16.87-26.93-10.07-1.42-20.31,1.42-30.42.39a42.34,42.34,0,0,1-12.69-3.34c-31.44-13.76-34.62-57.35-6.3-76.74h0a26.36,26.36,0,0,0,6.6-34.64c-4.76-7.87-10.34-16.26-15.22-21.39-19.14-20.1-8.24-53.56,19.11-57.51l.62-.09c26.27-3.49,53,5.64,79.29,1.21a20.71,20.71,0,0,0,5-1.45c11.59-5.22,8.93-17.41,8.84-27.67-.3-36.34,42.33-62.07,77.86-54.42q1.66.36,3.3.78c59.3,15.44,67.31,104.51,7,115l-.1,0a20.6,20.6,0,0,0-13.09,29q3,6.14,6.41,12.08c12.65,22.23,44.71,22.65,57.93.75l.45-.74a31.39,31.39,0,0,1,46.47-8.21c4.87,3.87,9.65,7.84,14.12,12.15,13.55,13,24.57,31,22,49.67-4,29.33-38.77,44.59-68.13,44.07a11.28,11.28,0,0,0-5,.9c-6.17,2.89-4.41,10-2.19,15.22a357.43,357.43,0,0,0,34.42,62.82c15.94,23.21,10,55-13,71.3l-.51.36a30,30,0,0,1-16.9,5.69c-28.12.17-31.8-38.69-52-50.39-28.88-16.69-45.44,1.58-71.91,8-22.4,5.42-46,8.45-63.76-10.66C738.22,951.25,752.93,940.85,759.14,919.94Z"/><path class="cls-16" d="M744.35,917.66c5-12.74-2.2-27.34-15.54-30.43-10.65-2.46-21.89-.38-32.62-2.43A45.41,45.41,0,0,1,682.91,880c-32.39-17.69-31.71-64.67.44-82.79h0a28.35,28.35,0,0,0,10.32-36.49c-4.36-8.87-9.55-18.38-14.3-24.34-18.62-23.32-3.81-58.14,25.86-59.81l.67,0c28.47-1.29,56.28,11,84.82,8.72a22.34,22.34,0,0,0,5.5-1.08c12.91-4.51,11.2-17.81,12.07-28.82,3.08-39,51.16-62.51,88.5-51,1.17.36,2.32.74,3.46,1.15,62.07,22.09,62.31,118.25-3.33,123.87h-.11a22.16,22.16,0,0,0-16.74,29.81q2.67,6.85,5.74,13.54c11.46,25,45.77,28.45,62,6.24l.56-.76a33.76,33.76,0,0,1,50.55-4.44c4.85,4.6,9.6,9.3,14,14.34,13.29,15.24,23.41,35.55,18.94,55.27-7,31-45.72,44.13-77.12,40.82a12.07,12.07,0,0,0-5.41.5c-6.89,2.51-5.66,10.27-3.78,16.09a383.74,383.74,0,0,0,31,70.52c14.89,26.36,5.52,59.89-20.62,75.16l-.57.34a32.19,32.19,0,0,1-18.63,4.51c-30.15-2.46-30.44-44.43-51-58.86-29.37-20.58-48.82-2.56-77.78,1.82-24.5,3.71-50.07,4.74-67.3-17.39C719,949.24,735.74,939.47,744.35,917.66Z"/><path class="cls-17" d="M728.73,913.83c6.58-13.17.21-29.5-13.79-34.05-11.18-3.64-23.42-2.46-34.72-5.66a48.61,48.61,0,0,1-13.78-6.36c-33-22-27.9-72.25,8.23-88.64h0A30.47,30.47,0,0,0,689.16,741c-3.84-9.91-8.51-20.58-13-27.41C658.36,686.86,677.49,651,709.43,652l.72,0c30.62,1.3,59.26,17.07,90,17.3a23.22,23.22,0,0,0,6-.65c14.25-3.61,13.66-18,15.63-29.73,7-41.44,60.65-62.17,99.58-46.33,1.21.49,2.41,1,3.6,1.55,64.42,29.49,55.66,132.51-15.18,132.38h-.12A23.81,23.81,0,0,0,889,756.86q2.21,7.59,4.87,15c9.94,27.84,46.36,34.76,65.81,12.49l.66-.77a36.31,36.31,0,0,1,54.56,0c4.77,5.39,9.41,10.87,13.64,16.67,12.81,17.58,21.74,40.28,15.1,61-10.44,32.59-53.1,43-86.43,36.49a13.08,13.08,0,0,0-5.84,0c-7.61,2-7,10.46-5.55,16.88a412.09,412.09,0,0,0,26.58,78.44c13.48,29.63.31,64.67-29.13,78.58l-.64.3a34.64,34.64,0,0,1-20.39,3.09c-32.06-5.46-28.44-50.44-49.14-67.83-29.53-24.8-52.06-7.31-83.48-5.34-26.6,1.68-54.09.39-70.46-24.93C698.63,945.28,717.47,936.39,728.73,913.83Z"/><path class="cls-18" d="M712.36,908.27c8.28-13.5,3-31.58-11.59-37.77-11.63-5-24.85-4.83-36.65-9.32a52.38,52.38,0,0,1-14.17-8.1c-33.33-26.64-23.12-80,17.13-94.18h0a32.77,32.77,0,0,0,19.08-39.48c-3.18-11-7.18-22.84-11.4-30.58-16.51-30.29,7.34-67,41.47-62.91l.76.1c32.68,4.25,61.88,23.83,94.83,27a25.11,25.11,0,0,0,6.48-.13c15.6-2.54,16.33-18,19.53-30.38,11.33-43.74,70.8-60.92,111-40.3,1.26.64,2.5,1.31,3.72,2,66.23,37.62,47.2,147.16-28.67,140.38h-.13a25.62,25.62,0,0,0-25,30.59q1.66,8.33,3.81,16.56c8,30.76,46.41,41.59,69.32,19.55l.78-.76c16.94-16.36,44.45-13.84,58.45,5.1,4.6,6.21,9.06,12.52,13,19.13,12.06,20,19.51,45.18,10.46,66.74-14.24,33.93-60.92,41.07-96,31a14,14,0,0,0-6.27-.51c-8.34,1.47-8.51,10.55-7.53,17.56A444.07,444.07,0,0,0,965.9,1016c11.67,33-5.73,69.3-38.56,81.44l-.72.27a37.2,37.2,0,0,1-22.12,1.39c-33.83-8.85-25.74-56.69-46.29-77.26-29.3-29.33-55.07-12.71-88.92-13.54-28.65-.7-58-4.66-73.14-33.31C677.16,939.13,698.18,931.37,712.36,908.27Z"/><path class="cls-19" d="M695.34,900.77c10.14-13.68,6.16-33.55-8.87-41.54-12-6.39-26.17-7.51-38.39-13.42a55.92,55.92,0,0,1-14.42-10c-33.2-31.66-17.26-87.86,27.17-99.27h0A35.24,35.24,0,0,0,685,696c-2.38-12-5.56-25.14-9.35-33.82-14.85-34,14.14-71.05,50.31-63.51l.82.18c34.6,7.62,64,31.32,99,37.77a27.57,27.57,0,0,0,7,.46c17-1.25,19.17-17.78,23.76-30.71,16.24-45.8,81.55-58.62,122.69-32.77,1.28.81,2.55,1.64,3.79,2.5,67.42,46.5,36.77,162-43.87,147.68l-.14,0a27.54,27.54,0,0,0-29.68,30.42q1,9.07,2.53,18.1c5.73,33.7,45.81,48.89,72.42,27.43l.9-.74c19.68-15.93,48.92-10.65,62.14,10.94,4.34,7.09,8.53,14.26,12.18,21.72,11,22.58,16.66,50.22,5,72.47-18.43,35-69.1,38.28-105.74,24.2a15,15,0,0,0-6.66-1.14c-9.08.8-10.1,10.51-9.71,18.11A477.74,477.74,0,0,0,956.83,1040c9.41,36.44-12.63,73.7-48.93,83.63l-.8.21a39.93,39.93,0,0,1-23.83-.58c-35.41-12.64-22.26-63.14-42.34-87.09-28.64-34.16-57.81-18.78-94-22.84-30.62-3.44-61.66-10.42-75.23-42.54C654.75,930.54,678,924.19,695.34,900.77Z"/><path class="cls-20" d="M677.81,891.14c12.14-13.7,9.74-35.35-5.61-45.33-12.25-8-27.32-10.48-39.86-18a60.63,60.63,0,0,1-14.51-12.08c-32.6-37-10.26-95.73,38.41-103.79h0a37.89,37.89,0,0,0,29.65-41.12c-1.42-13.13-3.59-27.45-6.84-37.11-12.72-37.81,21.8-74.78,59.84-63.31l.86.27c36.35,11.4,65.66,39.55,102.55,49.74a29.19,29.19,0,0,0,7.41,1.15c18.27.24,22.21-17.25,28.33-30.68,21.69-47.53,92.85-55.14,134.49-23.59q2,1.47,3.83,3c67.87,56.13,24.2,177-60.83,154.07l-.14,0a29.62,29.62,0,0,0-34.65,29.8q.21,9.82,1,19.63c3,36.64,44.49,56.67,75,36.17l1-.7c22.57-15.23,53.39-6.84,65.53,17.53,4,8,7.81,16.08,11,24.41,9.72,25.23,13.14,55.36-1.49,78.09-23,35.78-77.61,34.53-115.53,16a16.15,16.15,0,0,0-7-1.85c-9.79,0-11.8,10.31-12.09,18.49a513.13,513.13,0,0,0,6.68,102.75c6.65,39.92-20.44,77.76-60.26,85l-.88.16a43,43,0,0,1-25.47-2.86c-36.74-16.86-17.92-69.72-37.19-97.26-27.48-39.28-60.16-25.53-98.53-33.27-32.48-6.55-65.07-16.94-76.59-52.62C631.54,919.23,657,914.61,677.81,891.14Z"/><path class="cls-21" d="M659.94,879.19c14.29-13.54,13.75-37-1.76-49.08-12.38-9.68-28.29-13.8-41-23a65.1,65.1,0,0,1-14.4-14.29c-31.46-42.72-2-103.51,50.86-107.59h0A40.73,40.73,0,0,0,689.25,644c-.29-14.2-1.28-29.75-3.85-40.39-10.09-41.7,30.36-78.06,70-62.21l.89.36c37.87,15.63,66.64,48.53,105.2,62.9a31.58,31.58,0,0,0,7.83,1.92c19.54,2,25.4-16.4,33.22-30.2,27.68-48.88,104.62-50.37,146.27-12.68,1.3,1.18,2.58,2.38,3.82,3.61,67.43,66.49,9.33,191.9-79.6,159.34l-.15,0A31.84,31.84,0,0,0,933,755.27q-.69,10.54-.76,21.11c-.24,39.53,42.35,64.88,77,45.78.39-.22.78-.44,1.18-.65,25.6-14.2,57.83-2.32,68.55,24.92,3.52,8.94,6.85,18,9.51,27.18,8,27.93,8.89,60.53-8.91,83.51-28,36.16-86.37,29.72-125.26,6.33a17.42,17.42,0,0,0-7.36-2.64c-10.49-.91-13.61,9.94-14.69,18.67a551.94,551.94,0,0,0-2.48,110.69c3.4,43.38-29.18,81.38-72.51,85.39l-1,.09a46.17,46.17,0,0,1-27-5.44c-37.78-21.51-12.68-76.37-30.73-107.67-25.75-44.65-62-33-102.43-44.88C661.94,1007.6,628,993.42,619,954.12,607.74,904.93,635.47,902.38,659.94,879.19Z"/><path class="cls-22" d="M641.92,864.71c16.57-13.16,18.18-38.3,2.71-52.74-12.36-11.53-29-17.43-41.79-28.46a70,70,0,0,1-14.09-16.66c-29.68-48.7,7.54-111.07,64.58-110.47h0a43.79,43.79,0,0,0,42-40.86c1-15.24,1.42-32-.34-43.63-6.89-45.61,39.84-80.77,80.85-60.07l.92.47c39.1,20.29,66.83,58.22,106.79,77.23a34.08,34.08,0,0,0,8.2,2.79c20.76,4,28.76-15.18,38.42-29.24,34.24-49.76,116.79-44.14,157.88.14,1.28,1.38,2.53,2.79,3.74,4.21,66,77.54-8,206.44-100.19,163.23l-.16-.06a34.24,34.24,0,0,0-45.44,27q-1.72,11.24-2.78,22.55c-4,42.32,39.27,73.46,78.14,56.24l1.32-.59c28.75-12.8,62.17,2.94,71.1,33.13,2.93,9.91,5.66,19.87,7.64,30,6,30.68,3.85,65.67-17.38,88.62-33.4,36.11-95.29,23.74-134.76-5a18.63,18.63,0,0,0-7.64-3.51c-11.15-2-15.51,9.36-17.48,18.62a592.83,592.83,0,0,0-13,118.33c-.43,46.79-38.88,84.44-85.67,84.68h-1a49.67,49.67,0,0,1-28.43-8.36c-38.45-26.58-6.42-83-22.82-118.21-23.4-50.24-63.38-41.16-105.51-57.67-35.67-14-70.7-32.35-76.65-75.29C583.59,887.4,613.53,887.26,641.92,864.71Z"/><path class="cls-23" d="M624,847.52c19-12.55,23.07-39.33,7.84-56.25-12.15-13.51-29.43-21.38-42.09-34.4a75.39,75.39,0,0,1-13.53-19.16c-27.24-55,18.48-118.27,79.52-112.29h0a47.09,47.09,0,0,0,48.84-39.83c2.52-16.23,4.52-34.13,3.72-46.77-3.11-49.5,50.25-82.78,92.24-56.77l.94.6c40,25.39,66.13,68.63,107.15,92.73a36.08,36.08,0,0,0,8.53,3.76c21.86,6.17,32.22-13.57,43.89-27.72,41.34-50.1,129.24-36.34,169.1,14.94q1.86,2.4,3.62,4.87c63.43,89.24-27.9,220.38-122.63,165.45l-.16-.08a36.82,36.82,0,0,0-51.2,24.63q-2.89,11.87-5.1,23.9c-8.21,45,35.19,82.36,78.43,67.57l1.48-.51c32-11,66.31,9,73,42.14,2.21,10.89,4.2,21.82,5.37,32.86,3.55,33.42-2,70.7-26.91,93.3-39.17,35.55-104.31,16.49-143.9-18a20.07,20.07,0,0,0-7.85-4.47c-11.76-3.15-17.49,8.57-20.47,18.31a637.72,637.72,0,0,0-25,125.53c-4.85,50.08-49.57,86.81-99.71,82.68l-1.11-.1a53.38,53.38,0,0,1-29.66-11.62c-38.7-32.07.9-89.49-13.37-128.77-20.36-56-64-50-107.62-71.66-36.89-18.31-72.69-41.28-75-87.82C559.36,866.35,591.45,869,624,847.52Z"/><path class="cls-24" d="M606.35,827.41c21.51-11.66,28.4-40,13.68-59.51-11.76-15.61-29.53-25.67-41.87-40.8a81,81,0,0,1-12.7-21.79c-24-61.42,30.89-124.95,95.71-112.82h0a50.63,50.63,0,0,0,56-38.1c4.22-17.14,8-36.13,8.38-49.74,1.3-53.32,61.58-84,104.12-52.17l.95.72c40.45,30.95,64.41,79.72,106.09,109.38a39.32,39.32,0,0,0,8.78,4.83c22.84,8.66,35.78-11.52,49.62-25.58,49-49.79,141.84-26.82,179.73,31.85q1.77,2.75,3.42,5.55c59.59,101.55-50.54,233.45-146.86,165.74l-.17-.1a39.59,39.59,0,0,0-57.15,21.59q-4.21,12.43-7.7,25.11c-13,47.39,30,91.53,77.68,79.73l1.63-.4c35.31-8.81,70.19,15.83,74.3,52,1.35,11.87,2.46,23.76,2.68,35.69.67,36.14-8.8,75.55-37.58,97.42-45.28,34.42-113.27,7.9-152.45-32.7a21.76,21.76,0,0,0-8-5.54c-12.31-4.47-19.54,7.55-23.65,17.7a685.85,685.85,0,0,0-38.59,132.12c-9.89,53.19-61.23,88.34-114.55,79.22l-1.18-.2c-11.49-2-22.39-7-30.68-15.23-38.45-38,9.35-95.78-2.26-139.19-16.55-61.9-63.89-59.58-108.56-86.85-37.8-23.07-74-51-72.15-101.11C535.38,841.53,569.51,847.38,606.35,827.41Z"/><rect class="cls-1" x="40.5" y="26.5" width="972" height="972"/><rect class="cls-1" x="40" y="26" width="931" height="931"/></g></g></g></svg>