<svg xmlns="http://www.w3.org/2000/svg" xmlns:xlink="http://www.w3.org/1999/xlink" viewBox="0 0 1542.3 1155.12"><defs><style>.cls-1{fill:none;}.cls-2{clip-path:url(#clip-path);}.cls-3{clip-path:url(#clip-path-2);}.cls-4{fill:#2f3640;}.cls-5{clip-path:url(#clip-path-3);}.cls-6{fill:#e8e807;}</style><clipPath id="clip-path"><rect class="cls-1" x="258" y="2" width="1024" height="1024"/></clipPath><clipPath id="clip-path-2"><rect class="cls-1" width="1280" height="1024"/></clipPath><clipPath id="clip-path-3"><circle class="cls-1" cx="1282" cy="848" r="200"/></clipPath></defs><title>bg-slices</title><g id="Layer_2" data-name="Layer 2"><g id="Layer_2-2" data-name="Layer 2"><g class="cls-2"><g class="cls-3"><rect class="cls-4" width="1280" height="1024"/><g class="cls-5"><rect class="cls-6" x="1068.78" y="825.72" width="5.02" height="384.3" transform="translate(-405.85 1060.02) rotate(-45.17)"/><rect class="cls-6" x="1076.8" y="819.03" width="5.02" height="381.63" transform="translate(-397.93 1059.49) rotate(-45.02)"/><rect class="cls-6" x="1090.03" y="813.49" width="5.02" height="366.26" transform="translate(-385.08 1055.92) rotate(-44.67)"/><rect class="cls-6" x="1101.06" y="800.88" width="5.02" height="369.43" transform="translate(-373.89 1065.54) rotate(-44.87)"/><rect class="cls-6" x="1112.49" y="788.59" width="5.02" height="371.13" transform="translate(-361.86 1079.46) rotate(-45.22)"/><rect class="cls-6" x="1122.45" y="774.63" width="5.02" height="379.14" transform="translate(-352.59 1074.02) rotate(-44.85)"/><rect class="cls-6" x="1137.24" y="768.88" width="5.02" height="361.07" transform="translate(-336.83 1091.27) rotate(-45.28)"/><rect class="cls-6" x="1147.06" y="757.01" width="5.02" height="365.15" transform="translate(-327.34 1091.52) rotate(-45.13)"/><rect class="cls-6" x="1154.78" y="739.72" width="5.02" height="384.3" transform="translate(-319.49 1095.64) rotate(-45.17)"/><rect class="cls-6" x="1162.81" y="733.03" width="5.02" height="381.63" transform="translate(-311.88 1095.11) rotate(-45.02)"/><rect class="cls-6" x="1176.04" y="727.48" width="5.02" height="366.26" transform="translate(-299.78 1091.54) rotate(-44.67)"/><rect class="cls-6" x="1187.06" y="714.88" width="5.02" height="369.43" transform="translate(-288.17 1101.16) rotate(-44.87)"/><rect class="cls-6" x="1198.5" y="702.59" width="5.02" height="371.13" transform="translate(-275.39 1115.08) rotate(-45.22)"/><rect class="cls-6" x="1208.46" y="688.63" width="5.02" height="379.14" transform="translate(-266.9 1109.64) rotate(-44.85)"/><rect class="cls-6" x="1223.24" y="682.87" width="5.02" height="361.07" transform="translate(-250.23 1126.9) rotate(-45.28)"/><rect class="cls-6" x="1233.07" y="671.01" width="5.02" height="365.15" transform="translate(-241.05 1127.15) rotate(-45.13)"/><rect class="cls-6" x="1244.34" y="650.17" width="5.02" height="384.3" transform="translate(-229.56 1132.74) rotate(-45.17)"/><rect class="cls-6" x="1252.36" y="643.48" width="5.02" height="381.63" transform="translate(-222.29 1132.2) rotate(-45.02)"/><rect class="cls-6" x="1265.59" y="637.93" width="5.02" height="366.26" transform="translate(-210.96 1128.63) rotate(-44.67)"/><rect class="cls-6" x="1276.61" y="625.32" width="5.02" height="369.43" transform="translate(-198.91 1138.26) rotate(-44.87)"/><rect class="cls-6" x="1288.05" y="613.04" width="5.02" height="371.13" transform="translate(-185.35 1152.18) rotate(-45.22)"/><rect class="cls-6" x="1298.01" y="599.07" width="5.02" height="379.14" transform="translate(-177.68 1146.73) rotate(-44.85)"/><rect class="cls-6" x="1312.8" y="593.32" width="5.02" height="361.07" transform="translate(-160.05 1163.99) rotate(-45.28)"/><rect class="cls-6" x="1322.62" y="581.46" width="5.02" height="365.15" transform="translate(-151.2 1164.24) rotate(-45.13)"/><rect class="cls-6" x="1330.34" y="564.16" width="5.02" height="384.3" transform="translate(-143.19 1168.36) rotate(-45.17)"/><rect class="cls-6" x="1338.36" y="557.47" width="5.02" height="381.63" transform="translate(-136.24 1167.83) rotate(-45.02)"/><rect class="cls-6" x="1351.6" y="551.92" width="5.02" height="366.26" transform="translate(-125.66 1164.26) rotate(-44.67)"/><rect class="cls-6" x="1362.62" y="539.32" width="5.02" height="369.43" transform="translate(-113.19 1173.88) rotate(-44.87)"/><rect class="cls-6" x="1374.05" y="527.03" width="5.02" height="371.13" transform="translate(-98.87 1187.8) rotate(-45.22)"/><rect class="cls-6" x="1384.01" y="513.07" width="5.02" height="379.14" transform="translate(-91.99 1182.36) rotate(-44.85)"/><rect class="cls-6" x="1398.8" y="507.32" width="5.02" height="361.07" transform="translate(-73.45 1199.61) rotate(-45.28)"/><rect class="cls-6" x="1408.62" y="495.45" width="5.02" height="365.15" transform="translate(-64.91 1199.86) rotate(-45.13)"/></g></g></g></g></g></svg>