<svg xmlns="http://www.w3.org/2000/svg" xmlns:xlink="http://www.w3.org/1999/xlink" viewBox="0 0 1338.99 1149.77"><defs><style>.cls-1,.cls-10,.cls-11,.cls-12,.cls-13,.cls-14,.cls-15,.cls-16,.cls-17,.cls-18,.cls-19,.cls-20,.cls-21,.cls-22,.cls-23,.cls-24,.cls-4,.cls-5,.cls-6,.cls-7,.cls-8,.cls-9{fill:none;}.cls-2{clip-path:url(#clip-path);}.cls-3{fill:#2f3640;}.cls-10,.cls-11,.cls-12,.cls-13,.cls-14,.cls-15,.cls-16,.cls-17,.cls-18,.cls-19,.cls-20,.cls-21,.cls-22,.cls-23,.cls-24,.cls-4,.cls-5,.cls-6,.cls-7,.cls-8,.cls-9{stroke-miterlimit:10;stroke-width:2px;}.cls-4{stroke:url(#linear-gradient);}.cls-5{stroke:url(#linear-gradient-2);}.cls-6{stroke:url(#linear-gradient-3);}.cls-7{stroke:url(#linear-gradient-4);}.cls-8{stroke:url(#linear-gradient-5);}.cls-9{stroke:url(#linear-gradient-6);}.cls-10{stroke:url(#linear-gradient-7);}.cls-11{stroke:url(#linear-gradient-8);}.cls-12{stroke:url(#linear-gradient-9);}.cls-13{stroke:url(#linear-gradient-10);}.cls-14{stroke:url(#linear-gradient-11);}.cls-15{stroke:url(#linear-gradient-12);}.cls-16{stroke:url(#linear-gradient-13);}.cls-17{stroke:url(#linear-gradient-14);}.cls-18{stroke:url(#linear-gradient-15);}.cls-19{stroke:url(#linear-gradient-16);}.cls-20{stroke:url(#linear-gradient-17);}.cls-21{stroke:url(#linear-gradient-18);}.cls-22{stroke:url(#linear-gradient-19);}.cls-23{stroke:url(#linear-gradient-20);}.cls-24{stroke:url(#linear-gradient-21);}</style><clipPath id="clip-path"><rect class="cls-1" width="972" height="972"/></clipPath><linearGradient id="linear-gradient" x1="-367.71" y1="-5692.72" x2="-1170.88" y2="-5692.72" gradientTransform="translate(-414.2 972.1) rotate(91.42) scale(0.23)" gradientUnits="userSpaceOnUse"><stop offset="0" stop-color="#12c2e9"/><stop offset="0.14" stop-color="#ec5677"/><stop offset="0.18" stop-color="#eb5679"/><stop offset="0.19" stop-color="#e95880"/><stop offset="0.2" stop-color="#e55b8b"/><stop offset="0.21" stop-color="#df5f9c"/><stop offset="0.22" stop-color="#d864b2"/><stop offset="0.22" stop-color="#ce6acd"/><stop offset="0.22" stop-color="#cc6cd4"/><stop offset="0.31" stop-color="#6599bd"/><stop offset="0.5" stop-color="#c471ed"/><stop offset="0.78" stop-color="#ea5775"/><stop offset="0.83" stop-color="#b976e7"/><stop offset="0.83" stop-color="#bc74e1"/><stop offset="0.87" stop-color="#d067b0"/><stop offset="0.91" stop-color="#e15d8b"/><stop offset="0.95" stop-color="#ec556f"/><stop offset="0.98" stop-color="#f4515f"/><stop offset="1" stop-color="#f64f59"/></linearGradient><linearGradient id="linear-gradient-2" x1="-885.95" y1="-5328.97" x2="-1689.13" y2="-5328.97" gradientTransform="translate(-446.02 996.92) rotate(96.42) scale(0.25)" xlink:href="#linear-gradient"/><linearGradient id="linear-gradient-3" x1="-1336.61" y1="-4949.96" x2="-2139.78" y2="-4949.96" gradientTransform="translate(-482.43 1020.52) rotate(101.42) scale(0.27)" xlink:href="#linear-gradient"/><linearGradient id="linear-gradient-4" x1="-1723.4" y1="-4562.3" x2="-2526.57" y2="-4562.3" gradientTransform="translate(-523.64 1042.39) rotate(106.42) scale(0.29)" xlink:href="#linear-gradient"/><linearGradient id="linear-gradient-5" x1="-2050.32" y1="-4171.79" x2="-2853.49" y2="-4171.79" gradientTransform="translate(-569.83 1061.96) rotate(111.42) scale(0.31)" xlink:href="#linear-gradient"/><linearGradient id="linear-gradient-6" x1="-2321.55" y1="-3783.51" x2="-3124.72" y2="-3783.51" gradientTransform="translate(-621.15 1078.58) rotate(116.42) scale(0.34)" xlink:href="#linear-gradient"/><linearGradient id="linear-gradient-7" x1="-2541.36" y1="-3401.79" x2="-3344.54" y2="-3401.79" gradientTransform="matrix(-0.19, 0.31, -0.31, -0.19, -677.68, 1091.59)" xlink:href="#linear-gradient"/><linearGradient id="linear-gradient-8" x1="-2714.07" y1="-3030.33" x2="-3517.24" y2="-3030.33" gradientTransform="translate(-739.45 1100.22) rotate(126.42) scale(0.39)" xlink:href="#linear-gradient"/><linearGradient id="linear-gradient-9" x1="-2843.97" y1="-2672.18" x2="-3647.14" y2="-2672.18" gradientTransform="translate(-806.42 1103.67) rotate(131.42) scale(0.42)" xlink:href="#linear-gradient"/><linearGradient id="linear-gradient-10" x1="-2935.28" y1="-2329.84" x2="-3738.46" y2="-2329.84" gradientTransform="matrix(-0.33, 0.31, -0.31, -0.33, -878.49, 1101.1)" xlink:href="#linear-gradient"/><linearGradient id="linear-gradient-11" x1="-2992.14" y1="-2005.28" x2="-3795.31" y2="-2005.28" gradientTransform="matrix(-0.38, 0.3, -0.3, -0.38, -955.44, 1091.59)" xlink:href="#linear-gradient"/><linearGradient id="linear-gradient-12" x1="-3018.5" y1="-1699.98" x2="-3821.67" y2="-1699.98" gradientTransform="matrix(-0.43, 0.29, -0.29, -0.43, -1036.98, 1074.19)" xlink:href="#linear-gradient"/><linearGradient id="linear-gradient-13" x1="-3018.18" y1="-1414.99" x2="-3821.35" y2="-1414.99" gradientTransform="matrix(-0.49, 0.27, -0.27, -0.49, -1122.7, 1047.91)" xlink:href="#linear-gradient"/><linearGradient id="linear-gradient-14" x1="-2994.78" y1="-1150.99" x2="-3797.95" y2="-1150.99" gradientTransform="translate(-1212.05 1011.73) rotate(156.42) scale(0.6)" xlink:href="#linear-gradient"/><linearGradient id="linear-gradient-15" x1="-2951.71" y1="-908.29" x2="-3754.88" y2="-908.29" gradientTransform="translate(-1304.37 964.6) rotate(161.42) scale(0.65)" xlink:href="#linear-gradient"/><linearGradient id="linear-gradient-16" x1="-2892.13" y1="-686.94" x2="-3695.3" y2="-686.94" gradientTransform="translate(-1398.84 905.46) rotate(166.42) scale(0.7)" xlink:href="#linear-gradient"/><linearGradient id="linear-gradient-17" x1="-2818.99" y1="-486.69" x2="-3622.16" y2="-486.69" gradientTransform="matrix(-0.74, 0.11, -0.11, -0.74, -1494.5, 833.25)" xlink:href="#linear-gradient"/><linearGradient id="linear-gradient-18" x1="-2735" y1="-307.1" x2="-3538.17" y2="-307.1" gradientTransform="translate(-1590.2 746.95) rotate(176.42) scale(0.8)" xlink:href="#linear-gradient"/><linearGradient id="linear-gradient-19" x1="-2642.62" y1="-147.52" x2="-3445.8" y2="-147.52" gradientTransform="translate(-1684.62 645.53) rotate(-178.58) scale(0.86)" xlink:href="#linear-gradient"/><linearGradient id="linear-gradient-20" x1="-2544.11" y1="-7.16" x2="-3347.28" y2="-7.16" gradientTransform="translate(-1776.26 528.05) rotate(-173.58) scale(0.93)" xlink:href="#linear-gradient"/><linearGradient id="linear-gradient-21" x1="-2441.46" y1="114.88" x2="-3244.64" y2="114.88" gradientTransform="translate(-1863.41 393.61) rotate(-168.58)" xlink:href="#linear-gradient"/></defs><title>BG-SWIRL</title><g id="Layer_2" data-name="Layer 2"><g id="Layer_1-2" data-name="Layer 1"><g class="cls-2"><rect class="cls-3" width="974" height="974"/><path class="cls-4" d="M977.89,822.27a9.47,9.47,0,0,0-.74,14.28c3.35,3.13,7.86,4.72,11.32,7.71a19.12,19.12,0,0,1,3.82,4.51c8,13.19-2,30.08-17.49,29.92h0a11.86,11.86,0,0,0-11.38,11.07,60.5,60.5,0,0,0,.09,11.81c1.87,12.36-10.79,21.88-21.9,16.27l-.25-.12c-10.59-5.5-18.1-15.77-28.92-20.92a9.25,9.25,0,0,0-2.22-.76c-5.62-1.07-7.79,4.12-10.4,7.92-9.28,13.48-31.63,12-42.76,0-.35-.38-.69-.76-1-1.15-17.87-21,2.17-55.9,27.14-44.2h0a9.27,9.27,0,0,0,12.31-7.3c.31-2,.56-4.06.75-6.11A15.13,15.13,0,0,0,875.12,830l-.36.16a14.13,14.13,0,0,1-19.25-9c-.8-2.68-1.54-5.38-2.07-8.13-1.63-8.3-1.05-17.78,4.7-24,9.05-9.78,25.81-6.43,36.5,1.35a5.15,5.15,0,0,0,2.07.95c3,.53,4.2-2.54,4.74-5a161.23,161.23,0,0,0,3.52-32,23.28,23.28,0,0,1,23.21-22.94h.27a13.42,13.42,0,0,1,7.7,2.27c10.42,7.19,1.74,22.47,6.18,32,6.34,13.61,17.17,11.15,28.58,15.62,9.66,3.79,19.15,8.76,20.76,20.39C993.69,816.13,985.58,816.16,977.89,822.27Z"/><path class="cls-5" d="M982.75,826.93a10.2,10.2,0,0,0-2.13,15.23c3.3,3.66,8,5.79,11.4,9.32a20.19,20.19,0,0,1,3.67,5.19c7.38,14.88-5,32-21.54,30.41h0a12.75,12.75,0,0,0-13.23,10.78,66.44,66.44,0,0,0-1,12.67c.85,13.41-13.6,22.42-25,15.37a2.26,2.26,0,0,1-.26-.16c-10.83-6.87-17.91-18.58-29-25.11a9.91,9.91,0,0,0-2.31-1c-5.92-1.67-8.72,3.68-11.89,7.51-11.19,13.57-35,9.84-45.79-4-.34-.43-.67-.87-1-1.32-17.18-24.17,7.55-59.68,33.21-44.81l0,0a10,10,0,0,0,13.87-6.68q.78-3.21,1.38-6.47A16.28,16.28,0,0,0,872,825.52l-.4.14a15.2,15.2,0,0,1-19.79-11.41c-.6-3-1.13-5.91-1.45-8.9-1-9.05.55-19.15,7.29-25.27,10.61-9.63,28.25-4.47,39,4.86a5.39,5.39,0,0,0,2.13,1.21c3.18.86,4.73-2.32,5.54-5a172.59,172.59,0,0,0,6.78-34,25,25,0,0,1,27-22.39l.29,0a14.44,14.44,0,0,1,8,3.15c10.48,8.68-.25,24.24,3.62,34.87,5.51,15.17,17.34,13.55,29.14,19.41,10,5,19.69,11.18,20.33,23.79C1000.25,821.83,991.56,821.11,982.75,826.93Z"/><path class="cls-6" d="M987.52,832.37a11,11,0,0,0-3.7,16.12c3.18,4.23,8,7,11.34,11a21.74,21.74,0,0,1,3.43,5.9c6.51,16.63-8.36,33.84-25.92,30.56h0a13.72,13.72,0,0,0-15.18,10.31,71,71,0,0,0-2.26,13.47c-.36,14.44-16.68,22.75-28.2,14.13l-.26-.19c-10.95-8.38-17.44-21.59-28.73-29.63a10.78,10.78,0,0,0-2.38-1.3c-6.19-2.35-9.69,3.12-13.44,6.92C869,923.2,843.81,917,833.55,901.09q-.48-.75-.93-1.5c-16.14-27.51,13.69-63.23,39.77-44.89l.05,0a10.72,10.72,0,0,0,15.48-5.85c.76-2.25,1.45-4.51,2.08-6.8a17.5,17.5,0,0,0-21-21.6l-.44.11a16.33,16.33,0,0,1-20.12-14.08c-.37-3.21-.67-6.43-.73-9.66-.18-9.79,2.39-20.46,10.18-26.39,12.27-9.32,30.68-2.14,41.29,8.86a5.85,5.85,0,0,0,2.16,1.5c3.34,1.21,5.3-2.05,6.41-4.79a186.53,186.53,0,0,0,10.45-35.79,26.91,26.91,0,0,1,31-21.45l.32.06a15.51,15.51,0,0,1,8.31,4.12c10.42,10.29-2.53,25.94.61,37.7,4.49,16.76,17.31,16.13,29.4,23.52,10.24,6.24,20,13.82,19.55,27.38C1006.74,828.55,997.5,827,987.52,832.37Z"/><path class="cls-7" d="M992.12,838.65a11.79,11.79,0,0,0-5.48,16.92c3,4.82,7.92,8.19,11.11,12.9a23.53,23.53,0,0,1,3.13,6.64c5.41,18.43-12.13,35.47-30.62,30.3h0A14.75,14.75,0,0,0,953,915a75.83,75.83,0,0,0-3.69,14.22c-1.74,15.43-20,22.8-31.53,12.49l-.26-.23c-10.95-10-16.66-24.76-28-34.43a11.31,11.31,0,0,0-2.43-1.62c-6.4-3.09-10.67,2.43-15,6.16-15.47,13.2-41.83,4.18-51.33-13.8-.3-.56-.58-1.13-.85-1.7-14.71-31,20.58-66.44,46.81-44.35l0,0A11.53,11.53,0,0,0,883.88,847c1-2.33,2-4.7,2.87-7.09a18.81,18.81,0,0,0-20.51-25.1l-.48.07a17.57,17.57,0,0,1-20.24-17c-.09-3.48-.11-7,.13-10.43.72-10.5,4.47-21.69,13.37-27.31,14-8.83,33.07.59,43.4,13.36a6.25,6.25,0,0,0,2.18,1.81c3.46,1.61,5.86-1.7,7.31-4.53a200.23,200.23,0,0,0,14.55-37.35,28.93,28.93,0,0,1,35.24-20.08l.34.09a16.71,16.71,0,0,1,8.51,5.2c10.19,12-5.14,27.55-2.88,40.43,3.23,18.38,17,18.91,29.29,27.95,10.38,7.66,20.17,16.69,18.37,31.17C1013.07,836.36,1003.32,833.79,992.12,838.65Z"/><path class="cls-8" d="M996.46,845.81A12.67,12.67,0,0,0,989,863.42c2.77,5.45,7.71,9.52,10.69,14.85a25.41,25.41,0,0,1,2.73,7.42c4.07,20.24-16.32,36.85-35.65,29.58h0a15.85,15.85,0,0,0-19.35,8.7c-2.24,5.06-4.45,10.71-5.29,14.89-3.3,16.37-23.56,22.54-34.95,10.42l-.25-.27c-10.79-11.75-15.53-28.09-26.77-39.5a12.18,12.18,0,0,0-2.44-2c-6.58-3.91-11.67,1.61-16.7,5.19-17.8,12.69-45.19.56-53.69-19.59-.26-.63-.51-1.26-.75-1.9-12.86-34.55,28.28-69.24,54.3-43.12l0,0a12.4,12.4,0,0,0,18.8-3.55q2-3.61,3.74-7.33a20.23,20.23,0,0,0-19.62-28.81l-.52,0a18.9,18.9,0,0,1-20.09-20.08c.23-3.73.54-7.46,1.12-11.15,1.76-11.18,6.82-22.82,16.88-28,15.84-8.15,35.36,3.73,45.24,18.38a6.69,6.69,0,0,0,2.16,2.14c3.55,2.05,6.44-1.27,8.26-4.17A215.57,215.57,0,0,0,936,727a31.12,31.12,0,0,1,39.63-18.2l.35.13a18,18,0,0,1,8.64,6.36c9.79,13.81-8.09,29-6.87,43.05,1.73,20,16.46,21.85,28.75,32.68,10.4,9.17,20,19.76,16.75,35.11C1019.11,845.31,1008.91,841.65,996.46,845.81Z"/><path class="cls-9" d="M1000.44,853.88A13.63,13.63,0,0,0,990.8,872c2.47,6.11,7.37,10.93,10.06,16.92a26.94,26.94,0,0,1,2.23,8.2c2.47,22.06-20.93,37.94-41,28.35h0a17,17,0,0,0-21.54,7.5c-2.87,5.21-5.77,11-7.06,15.45-5.07,17.23-27.35,21.94-38.41,7.89l-.25-.31c-10.45-13.59-14-31.54-25-44.82a13.45,13.45,0,0,0-2.43-2.34c-6.68-4.8-12.64.63-18.37,4-20.26,11.92-48.47-3.64-55.68-26-.22-.7-.43-1.4-.63-2.11-10.53-38.21,36.78-71.52,62.21-41.1l0,.05a13.32,13.32,0,0,0,20.46-2q2.46-3.69,4.7-7.5a21.76,21.76,0,0,0-18.32-32.7h-.56a20.32,20.32,0,0,1-19.64-23.38c.6-4,1.27-8,2.24-11.85,2.93-11.81,9.45-23.8,20.71-28.41,17.73-7.24,37.53,7.31,46.73,23.93a7.4,7.4,0,0,0,2.12,2.49c3.61,2.53,7-.75,9.23-3.69a230.89,230.89,0,0,0,24.07-39.61A33.46,33.46,0,0,1,991,705.15l.36.17A19.31,19.31,0,0,1,1000,713c9.2,15.7-11.38,30.33-11.39,45.46,0,21.57,15.59,24.94,27.74,37.7,10.28,10.8,19.62,23,14.65,39.18C1024.75,855.48,1014.16,850.6,1000.44,853.88Z"/><path class="cls-10" d="M1003.94,862.9c-8.76,1.31-14.61,10.08-12,18.56,2.07,6.76,6.87,12.38,9.19,19.06a29.26,29.26,0,0,1,1.62,9c.57,23.87-26,38.68-46.53,26.53h0a18.32,18.32,0,0,0-23.78,6c-3.56,5.31-7.21,11.29-9,15.88-7,18-31.35,20.95-41.89,4.86l-.23-.36c-9.93-15.54-12-35.1-22.55-50.35a14.15,14.15,0,0,0-2.39-2.73c-6.7-5.78-13.6-.51-20.05,2.56-22.82,10.87-51.57-8.44-57.2-33.09-.17-.77-.33-1.55-.47-2.32-7.7-41.92,46.1-73.16,70.48-38.2,0,0,0,0,0,.06a14.33,14.33,0,0,0,22.11-.27q3-3.71,5.73-7.59a23.39,23.39,0,0,0-16.55-36.75l-.61-.06A21.85,21.85,0,0,1,841,766.81c1-4.2,2.11-8.39,3.51-12.47,4.25-12.38,12.35-24.62,24.85-28.49,19.67-6.1,39.51,11.34,47.81,30a7.85,7.85,0,0,0,2,2.87c3.63,3,7.58-.15,10.23-3.09a247.85,247.85,0,0,0,29.49-40.17,36,36,0,0,1,48.78-12.76l.38.21a20.76,20.76,0,0,1,8.55,9c8.38,17.68-15,31.43-16.47,47.63-2,23.11,14.36,28.18,26.18,43,10,12.53,18.86,26.53,12,43.34C1029.83,866.89,1019,860.67,1003.94,862.9Z"/><path class="cls-11" d="M1006.85,872.9c-9.51.57-16.59,9.42-14.62,18.74,1.58,7.44,6.2,13.92,8.06,21.28a31.48,31.48,0,0,1,.9,9.78c-1.63,25.62-31.46,39-52.33,24.06h0a19.71,19.71,0,0,0-26,4.22c-4.31,5.35-8.78,11.43-11.14,16.17-9.23,18.6-35.54,19.5-45.31,1.28l-.22-.41c-9.18-17.58-9.61-38.72-19.44-56a15.42,15.42,0,0,0-2.3-3.15c-6.63-6.81-14.52-1.82-21.71.87-25.47,9.51-54.46-13.88-58.18-40.81-.11-.84-.21-1.68-.29-2.52-4.32-45.63,56.24-74.05,79.08-34.32l.05.07a15.41,15.41,0,0,0,23.71,1.78q3.54-3.69,6.85-7.59a25.15,25.15,0,0,0-14.29-40.91l-.64-.13a23.48,23.48,0,0,1-17.66-30.56c1.47-4.42,3-8.79,4.93-13,5.7-12.86,15.53-25.21,29.28-28.19,21.64-4.69,41.27,15.85,48.41,36.62a8.36,8.36,0,0,0,1.91,3.27c3.6,3.6,8.13.55,11.25-2.35a266.53,266.53,0,0,0,35.35-40.27,38.68,38.68,0,0,1,53.45-9.1l.39.26a22.44,22.44,0,0,1,8.32,10.42c7.31,19.73-19.06,32.26-22.11,49.48-4.34,24.57,12.74,31.54,24,48.5,9.54,14.37,17.71,30.18,8.82,47.55C1034.21,879.59,1023.13,871.91,1006.85,872.9Z"/><path class="cls-12" d="M1009,883.87c-10.24-.28-18.66,8.54-17.42,18.71,1,8.12,5.34,15.49,6.64,23.55a33.71,33.71,0,0,1,0,10.56C994.15,964,961,975.53,940,957.56h0a21.19,21.19,0,0,0-28.29,2.08c-5.12,5.33-10.47,11.41-13.44,16.28-11.64,19.05-39.9,17.55-48.67-2.88-.06-.16-.13-.31-.19-.46-8.19-19.69-6.67-42.38-15.57-61.86a16.43,16.43,0,0,0-2.17-3.59c-6.47-7.92-15.38-3.31-23.34-1.11-28.17,7.8-57-20-58.49-49.16-.05-.91-.07-1.82-.08-2.73-.35-49.28,67.18-74,87.93-29.35l0,.08A16.57,16.57,0,0,0,862.94,829q4.14-3.63,8-7.49c14.64-14.46,8.29-39.46-11.47-45.16l-.67-.2a25.26,25.26,0,0,1-16.06-34.4c2-4.58,4.08-9.12,6.5-13.5,7.32-13.24,19-25.54,34-27.45,23.62-3,42.72,20.85,48.42,43.77a9.13,9.13,0,0,0,1.74,3.68c3.53,4.19,8.67,1.35,12.28-1.47A287.26,287.26,0,0,0,987.38,707a41.6,41.6,0,0,1,58.11-4.74l.38.32a24,24,0,0,1,7.94,11.94c6,21.82-23.44,32.76-28.32,50.93-7,25.91,10.7,35,21.18,54.2,8.88,16.28,16.15,34,5,51.76C1037.71,893.61,1026.56,884.34,1009,883.87Z"/><path class="cls-13" d="M1010.33,895.83c-10.94-1.25-20.78,7.4-20.4,18.41.3,8.79,4.26,17.09,4.9,25.85a36.36,36.36,0,0,1-1,11.32c-7,28.84-43.64,38.09-64.41,16.89h0a22.79,22.79,0,0,0-30.5-.42c-6,5.23-12.29,11.25-15.93,16.18-14.25,19.32-44.38,15.06-51.86-7.65,0-.17-.11-.34-.16-.51-6.93-21.85-3.17-46-10.88-67.72a17.25,17.25,0,0,0-2-4c-6.19-9.09-16.17-5-24.9-3.38-30.91,5.71-59.22-26.73-58-58.15,0-1,.09-2,.17-2.93,4.24-52.82,78.9-73,96.93-23.19a.56.56,0,0,1,0,.08,17.81,17.81,0,0,0,26.64,6.8q4.77-3.51,9.33-7.28c17-14.11,12.58-41.48-8.06-49.45l-.7-.27a27.16,27.16,0,0,1-14-38.35c2.57-4.73,5.23-9.4,8.23-13.85,9.08-13.5,22.75-25.59,39-26.22,25.58-1,43.8,26.33,47.76,51.42a9.71,9.71,0,0,0,1.52,4.1c3.38,4.83,9.15,2.26,13.29-.42a309.23,309.23,0,0,0,48.34-38.75c17.37-17.06,45.38-16.76,62.68.37l.38.37a26,26,0,0,1,7.39,13.54c4.37,23.93-28.18,32.9-35.11,51.9-9.87,27.1,8.18,38.47,17.61,60,8,18.27,14.11,37.92.5,55.91C1040.14,909,1029.07,898,1010.33,895.83Z"/><path class="cls-14" d="M1010.61,908.77c-11.6-2.37-23,6-23.58,17.8-.5,9.45,3,18.71,2.82,28.15a38.83,38.83,0,0,1-2.07,12c-10.2,30.25-50.32,36.72-70.58,12.06h0a24.51,24.51,0,0,0-32.63-3.32c-6.9,5-14.22,10.9-18.58,15.84-17.07,19.36-49,12-54.83-13.05,0-.19-.09-.38-.13-.56-5.37-24.06.92-49.59-5.31-73.56a18.66,18.66,0,0,0-1.75-4.52c-5.77-10.32-16.85-6.86-26.35-5.95C744,896.91,716.69,859.5,720.89,826c.13-1.05.28-2.09.46-3.13,9.49-56.18,91.36-70.83,106-15.76l0,.09a19.16,19.16,0,0,0,27.9,9.78q5.44-3.3,10.67-6.92c19.57-13.52,17.36-43.26-4-53.72l-.72-.36a29.2,29.2,0,0,1-11.38-42.39c3.19-4.82,6.48-9.57,10.11-14.07,11-13.6,26.77-25.27,44.24-24.43,27.5,1.33,44.45,32.32,46.35,59.56a10.47,10.47,0,0,0,1.24,4.53c3.17,5.49,9.59,3.28,14.27.8a331.7,331.7,0,0,0,55.41-37c20.22-16.64,50.18-13.7,67.12,6.27l.37.44a27.81,27.81,0,0,1,6.64,15.19c2.44,26-33.27,32.6-42.47,52.31-13.12,28.1,5.16,42,13.24,66,6.83,20.31,11.56,41.94-4.71,59.93C1041.31,925.61,1030.48,912.82,1010.61,908.77Z"/><path class="cls-15" d="M1009.69,922.65c-12.2-3.63-25.15,4.25-26.93,16.86-1.42,10.07,1.42,20.31.4,30.42a42.27,42.27,0,0,1-3.35,12.69c-13.76,31.44-57.35,34.62-76.74,6.3h0a26.35,26.35,0,0,0-34.64-6.61c-7.86,4.76-16.26,10.34-21.39,15.23-20.1,19.13-53.56,8.23-57.51-19.12l-.09-.62c-3.49-26.27,5.64-53,1.22-79.29a20.22,20.22,0,0,0-1.46-5c-5.22-11.6-17.41-8.93-27.67-8.85-36.34.3-62.06-42.33-54.42-77.86.24-1.11.5-2.21.79-3.3,15.43-59.3,104.5-67.31,115-7l0,.1a20.61,20.61,0,0,0,29,13.09q6.12-3,12.07-6.41c22.23-12.65,22.65-44.71.76-57.93L864,745a31.39,31.39,0,0,1-8.21-46.47c3.87-4.87,7.84-9.65,12.15-14.12,13-13.54,31-24.56,49.67-22,29.33,4,44.59,38.78,44.07,68.13a11.12,11.12,0,0,0,.91,5c2.88,6.18,10,4.41,15.21,2.19a356.78,356.78,0,0,0,62.82-34.42c23.21-15.93,55-10,71.3,13l.36.5a30,30,0,0,1,5.69,16.9c.17,28.12-38.69,31.8-50.39,52-16.69,28.87,1.59,45.43,8,71.9,5.42,22.41,8.45,46-10.66,63.76C1041,943.57,1030.6,928.86,1009.69,922.65Z"/><path class="cls-16" d="M1007.41,937.43c-12.73-5-27.34,2.2-30.43,15.54-2.46,10.65-.38,21.89-2.43,32.62a45,45,0,0,1-4.77,13.28c-17.69,32.39-64.67,31.71-82.79-.44h0A28.35,28.35,0,0,0,850.5,988.1c-8.87,4.36-18.38,9.55-24.34,14.31-23.32,18.61-58.14,3.8-59.81-25.87l0-.67c-1.28-28.47,11-56.28,8.73-84.82a22.35,22.35,0,0,0-1.09-5.5c-4.51-12.9-17.81-11.2-28.82-12.07-38.95-3.08-62.51-51.15-51-88.5.36-1.16.74-2.32,1.15-3.46,22.09-62.07,118.25-62.31,123.87,3.34l0,.11A22.16,22.16,0,0,0,849,801.7q6.84-2.67,13.53-5.73c25-11.47,28.46-45.77,6.24-62l-.76-.55a33.77,33.77,0,0,1-4.44-50.55c4.6-4.85,9.3-9.6,14.34-14,15.25-13.29,35.55-23.4,55.27-18.93,31.05,7,44.13,45.71,40.82,77.11a12.27,12.27,0,0,0,.5,5.42c2.51,6.88,10.27,5.66,16.09,3.77a384.37,384.37,0,0,0,70.52-31c26.36-14.9,59.89-5.53,75.16,20.61l.34.57a32.2,32.2,0,0,1,4.51,18.64c-2.46,30.14-44.43,30.44-58.86,51-20.58,29.36-2.55,48.82,1.82,77.77,3.71,24.5,4.75,50.08-17.39,67.3C1039,962.77,1029.22,946,1007.41,937.43Z"/><path class="cls-17" d="M1003.58,953.05c-13.17-6.58-29.49-.21-34.05,13.8-3.64,11.18-2.46,23.41-5.66,34.71a48.61,48.61,0,0,1-6.36,13.78c-22,33-72.24,27.9-88.64-8.23h0a30.47,30.47,0,0,0-38.12-14.47c-9.9,3.83-20.58,8.5-27.41,13-26.72,17.75-62.63-1.38-61.64-33.32,0-.24,0-.48,0-.72,1.3-30.61,17.07-59.25,17.3-90a23.25,23.25,0,0,0-.65-6c-3.61-14.25-18-13.66-29.73-15.63-41.44-7-62.17-60.65-46.33-99.57.49-1.22,1-2.42,1.56-3.61,29.48-64.41,132.5-55.66,132.37,15.19a.83.83,0,0,0,0,.12,23.81,23.81,0,0,0,30.36,20.71q7.59-2.2,15-4.87c27.85-9.94,34.77-46.36,12.49-65.8l-.76-.67a36.3,36.3,0,0,1,0-54.56c5.38-4.76,10.86-9.41,16.67-13.64,17.57-12.8,40.27-21.74,61-15.1,32.59,10.44,43,53.11,36.49,86.43a13.13,13.13,0,0,0,0,5.85c2,7.61,10.46,7,16.88,5.55a413.49,413.49,0,0,0,78.44-26.58c29.63-13.49,64.67-.31,78.58,29.12l.3.65a34.6,34.6,0,0,1,3.09,20.38c-5.45,32.06-50.44,28.44-67.83,49.15-24.79,29.52-7.31,52-5.34,83.48,1.68,26.59.39,54.08-24.93,70.46C1035,983.16,1026.14,964.32,1003.58,953.05Z"/><path class="cls-18" d="M998,969.42c-13.5-8.28-31.58-3-37.77,11.59-4.94,11.64-4.83,24.85-9.32,36.66a52.47,52.47,0,0,1-8.1,14.16c-26.64,33.33-80,23.12-94.18-17.12h0a32.76,32.76,0,0,0-39.47-19.08c-11,3.18-22.85,7.18-30.58,11.4-30.3,16.52-67-7.34-62.92-41.46,0-.26.07-.52.1-.77,4.26-32.68,23.83-61.88,27-94.83a25.56,25.56,0,0,0-.14-6.48c-2.54-15.6-18-16.32-30.38-19.52-43.74-11.34-60.91-70.8-40.3-111q1-1.89,2-3.72C711.55,663,821.09,682,814.31,757.9V758a25.61,25.61,0,0,0,30.58,25q8.34-1.65,16.56-3.81c30.76-8,41.59-46.4,19.55-69.32l-.76-.78c-16.35-16.93-13.83-44.45,5.1-58.45,6.21-4.6,12.52-9.06,19.13-13,20-12.07,45.18-19.51,66.74-10.47,33.93,14.25,41.07,60.92,31,96a14,14,0,0,0-.51,6.26c1.48,8.35,10.55,8.51,17.56,7.53a444.07,444.07,0,0,0,86.52-21.12c33-11.67,69.3,5.73,81.44,38.56l.27.72a37.2,37.2,0,0,1,1.39,22.12c-8.84,33.83-56.69,25.75-77.26,46.29-29.33,29.3-12.71,55.08-13.54,88.92-.7,28.65-4.65,58-33.31,73.14C1028.89,1004.62,1021.12,983.61,998,969.42Z"/><path class="cls-19" d="M990.52,986.44c-13.68-10.13-33.54-6.15-41.54,8.87-6.39,12-7.5,26.17-13.42,38.4a56,56,0,0,1-10,14.41c-31.65,33.21-87.86,17.27-99.27-27.17h0a35.22,35.22,0,0,0-40.5-24.13c-12,2.38-25.14,5.55-33.82,9.34C718,1021,680.91,992,688.45,955.84l.18-.81c7.62-34.6,31.32-64,37.77-99a27.08,27.08,0,0,0,.46-7c-1.25-16.94-17.78-19.17-30.71-23.76-45.79-16.24-58.61-81.55-32.77-122.68q1.22-1.94,2.5-3.79c46.5-67.43,162-36.78,147.68,43.86,0,0,0,.06,0,.14A27.55,27.55,0,0,0,844,772.48q9.07-1,18.1-2.53c33.7-5.73,48.89-45.81,27.43-72.42-.24-.31-.49-.61-.73-.91-15.94-19.67-10.66-48.91,10.93-62.14,7.09-4.34,14.26-8.53,21.72-12.18,22.58-11,50.22-16.66,72.47-4.95,35,18.44,38.28,69.1,24.2,105.74a15,15,0,0,0-1.14,6.67c.8,9.07,10.51,10.1,18.11,9.7A477,477,0,0,0,1129.7,725c36.45-9.41,73.7,12.63,83.63,48.94.07.26.14.53.22.79a40.09,40.09,0,0,1-.58,23.83c-12.65,35.41-63.14,22.26-87.1,42.34-34.16,28.64-18.78,57.81-22.84,94-3.43,30.61-10.42,61.66-42.54,75.22C1020.29,1027,1013.94,1003.8,990.52,986.44Z"/><path class="cls-20" d="M980.9,1004c-13.71-12.14-35.36-9.74-45.33,5.61-8,12.26-10.49,27.32-18,39.87a60.77,60.77,0,0,1-12.07,14.5c-37,32.6-95.74,10.26-103.8-38.41h0a37.89,37.89,0,0,0-41.12-29.65c-13.13,1.42-27.45,3.59-37.1,6.84-37.82,12.73-74.78-21.8-63.31-59.84.08-.29.17-.57.26-.86,11.41-36.34,39.56-65.66,49.74-102.55a29.06,29.06,0,0,0,1.15-7.41c.24-18.27-17.25-22.21-30.68-28.33-47.52-21.69-55.14-92.85-23.59-134.49q1.47-1.95,3-3.83c56.13-67.86,177-24.2,154.07,60.83,0,0,0,.07,0,.15A29.61,29.61,0,0,0,844,761q9.82-.22,19.63-1c36.64-3,56.67-44.48,36.17-75l-.7-1c-15.23-22.57-6.84-53.39,17.53-65.53,8-4,16.08-7.81,24.41-11,25.23-9.71,55.36-13.14,78.09,1.49,35.78,23,34.53,77.61,16,115.54a16.1,16.1,0,0,0-1.85,7c0,9.79,10.31,11.8,18.49,12.1a513.87,513.87,0,0,0,102.75-6.68c39.92-6.66,77.76,20.43,85,60.25.06.3.11.59.16.88a43,43,0,0,1-2.85,25.47c-16.87,36.74-69.72,17.93-97.27,37.19-39.28,27.48-25.53,60.16-33.27,98.53-6.55,32.48-16.94,65.08-52.61,76.59C1009,1050.24,1004.36,1024.76,980.9,1004Z"/><path class="cls-21" d="M968.94,1021.84c-13.54-14.29-37-13.74-49.08,1.76-9.68,12.39-13.8,28.29-23,41A65.15,65.15,0,0,1,882.59,1079c-42.72,31.45-103.51,2-107.58-50.87h0a40.71,40.71,0,0,0-41.26-35.61c-14.2.29-29.75,1.27-40.39,3.85-41.7,10.08-78.06-30.37-62.21-70l.36-.89c15.63-37.87,48.53-66.64,62.9-105.2a31.51,31.51,0,0,0,1.92-7.82c2-19.55-16.4-25.41-30.2-33.23-48.88-27.68-50.37-104.62-12.67-146.27,1.17-1.3,2.38-2.57,3.6-3.81,66.49-67.44,191.9-9.34,159.34,79.59,0,0,0,.07,0,.16A31.84,31.84,0,0,0,845,748.78q10.54.69,21.12.76c39.52.24,64.87-42.34,45.77-76.95l-.65-1.18c-14.2-25.6-2.32-57.84,24.92-68.56,9-3.52,18-6.85,27.18-9.51,27.93-8,60.53-8.89,83.51,8.92,36.17,28,29.72,86.36,6.33,125.25a17.41,17.41,0,0,0-2.64,7.37c-.91,10.49,9.94,13.6,18.67,14.68A552,552,0,0,0,1179.92,752c43.39-3.39,81.38,29.18,85.4,72.51,0,.32,0,.64.08,1a46.21,46.21,0,0,1-5.44,27c-21.51,37.78-76.36,12.67-107.67,30.72-44.65,25.75-33,62-44.88,102.43-10.06,34.17-24.24,68.12-63.53,77.11C994.69,1074,992.13,1046.31,968.94,1021.84Z"/><path class="cls-22" d="M954.47,1039.87c-13.17-16.58-38.31-18.19-52.75-2.72-11.53,12.36-17.43,29-28.46,41.79A70,70,0,0,1,856.6,1093c-48.7,29.69-111.06-7.54-110.47-64.57h0a43.8,43.8,0,0,0-40.86-42c-15.24-1-32-1.42-43.63.34-45.61,6.9-80.77-39.84-60.07-80.85.15-.31.31-.62.47-.92,20.29-39.1,58.23-66.83,77.23-106.79a34.55,34.55,0,0,0,2.8-8.2c3.94-20.76-15.19-28.75-29.25-38.42-49.76-34.24-44.14-116.79.14-157.87q2.07-1.94,4.22-3.75c77.54-66,206.43,8,163.22,100.19l-.06.16a34.24,34.24,0,0,0,27,45.44q11.24,1.72,22.55,2.79c42.32,4,73.46-39.28,56.24-78.14-.19-.45-.39-.89-.58-1.33-12.81-28.75,2.93-62.16,33.12-71.1,9.91-2.93,19.87-5.65,30-7.64,30.68-6,65.67-3.85,88.62,17.38,36.11,33.4,23.74,95.3-5,134.76a18.69,18.69,0,0,0-3.51,7.64c-2,11.16,9.36,15.51,18.62,17.49a593.63,593.63,0,0,0,118.33,13c46.79.43,84.44,38.89,84.68,85.68,0,.34,0,.68,0,1a49.67,49.67,0,0,1-8.37,28.42c-26.58,38.45-83,6.42-118.21,22.83C1113.61,932,1122.7,972,1106.18,1014.1c-14,35.66-32.35,70.69-75.29,76.64C977.15,1098.19,977,1068.25,954.47,1039.87Z"/><path class="cls-23" d="M937.27,1057.82c-12.55-19-39.33-23.08-56.24-7.85-13.51,12.15-21.39,29.44-34.41,42.09a75.14,75.14,0,0,1-19.16,13.53c-55,27.24-118.27-18.48-112.29-79.52h0a47.08,47.08,0,0,0-39.83-48.83c-16.23-2.52-34.13-4.53-46.76-3.73-49.5,3.11-82.79-50.24-56.77-92.23.19-.32.39-.64.59-.95,25.39-40,68.63-66.13,92.73-107.15a36.19,36.19,0,0,0,3.76-8.52c6.18-21.87-13.57-32.22-27.72-43.9-50.09-41.33-36.34-129.24,14.94-169.09,1.6-1.25,3.23-2.46,4.87-3.62,89.24-63.44,220.38,27.9,165.45,122.62l-.08.17A36.81,36.81,0,0,0,851,722q11.87,2.91,23.89,5.1c45,8.22,82.37-35.19,67.57-78.43l-.51-1.47c-11-32,9-66.32,42.14-73.06,10.9-2.21,21.82-4.2,32.86-5.37,33.42-3.55,70.71,2,93.3,26.92,35.55,39.16,16.5,104.3-18,143.89a20.14,20.14,0,0,0-4.47,7.85c-3.15,11.77,8.58,17.49,18.31,20.48a638.44,638.44,0,0,0,125.53,25c50.08,4.85,86.81,49.56,82.68,99.71l-.09,1.1c-.93,10.81-4.7,21.31-11.63,29.67-32.07,38.69-89.49-.91-128.76,13.36-56,20.36-50,64-71.66,107.62-18.32,36.89-41.29,72.69-87.83,75C956.1,1122.42,958.75,1090.33,937.27,1057.82Z"/><path class="cls-24" d="M917.16,1075.43c-11.66-21.51-40-28.4-59.51-13.68-15.61,11.76-25.67,29.53-40.79,41.87a81.21,81.21,0,0,1-21.8,12.7c-61.42,24-124.95-30.88-112.82-95.71h0a50.63,50.63,0,0,0-38.1-56c-17.14-4.22-36.13-8-49.74-8.38-53.31-1.3-84-61.57-52.17-104.11l.73-1c30.95-40.44,79.71-64.4,109.37-106.08a39.21,39.21,0,0,0,4.83-8.79c8.66-22.84-11.52-35.78-25.58-49.61-49.79-49-26.82-141.84,31.85-179.73q2.75-1.78,5.55-3.43C770.53,443.89,902.43,554,834.72,650.33a1.53,1.53,0,0,1-.1.17,39.59,39.59,0,0,0,21.59,57.15q12.43,4.23,25.11,7.7c47.39,13,91.53-30,79.74-77.68-.14-.54-.27-1.08-.41-1.63-8.81-35.31,15.83-70.19,52-74.3,11.87-1.35,23.76-2.45,35.69-2.68,36.14-.67,75.55,8.81,97.42,37.58,34.42,45.29,7.9,113.28-32.7,152.45a21.65,21.65,0,0,0-5.53,8c-4.48,12.3,7.55,19.53,17.69,23.64a686.06,686.06,0,0,0,132.12,38.59c53.19,9.89,88.34,61.23,79.22,114.56-.07.39-.13.78-.2,1.17-2,11.49-7,22.39-15.23,30.69-38,38.44-95.78-9.36-139.19,2.25-61.9,16.56-59.58,63.9-86.84,108.56-23.08,37.8-51,74-101.12,72.16C931.28,1146.4,937.13,1112.28,917.16,1075.43Z"/></g></g></g></svg>