<svg xmlns="http://www.w3.org/2000/svg" viewBox="0 0 98.77 46.88"><title>bigT-logo_3</title><g id="Layer_2" data-name="Layer 2"><g id="Layer_1-2" data-name="Layer 1"><path d="M12.83,22.63A5.33,5.33,0,0,1,16,27.57c0,3.29-2.84,5.78-6.59,5.78H0V13H9.17c3.6,0,6.23,2.2,6.23,5.2a5.17,5.17,0,0,1-2.57,4.39ZM10.41,26.9a1.83,1.83,0,0,0-2-1.84h-3v3.7h3A1.83,1.83,0,0,0,10.41,26.9Zm-.32-7.73A1.71,1.71,0,0,0,8.2,17.4H5.37v3.54H8.2a1.72,1.72,0,0,0,1.89-1.77Z"/><path d="M18.88,13h5.67V33.35H18.88Z"/><path d="M49,22.5c0,6.64-4.34,11.36-10.7,11.36A10.41,10.41,0,0,1,27.43,23.21,10.37,10.37,0,0,1,38.2,12.53c5.32,0,9.68,3.33,10.53,8H42.87a4.92,4.92,0,0,0-4.62-2.81c-3,0-5.09,2.2-5.09,5.44s2,5.41,5.09,5.41A4.81,4.81,0,0,0,42.85,26h-5V22.5Z"/><path d="M75.33,0A23.44,23.44,0,1,0,98.77,23.44,23.43,23.43,0,0,0,75.33,0Zm10,17.94H78.83V35.83H72.24V17.94H65.78V12H85.29Z"/></g></g></svg>