<svg xmlns="http://www.w3.org/2000/svg" xmlns:xlink="http://www.w3.org/1999/xlink" viewBox="0 0 715.79 764.38"><defs><style>.cls-1{fill:none;}.cls-2{clip-path:url(#clip-path);}.cls-3{fill:#31843b;}</style><clipPath id="clip-path" transform="translate(-8.63)"><circle class="cls-1" cx="253" cy="439.38" r="253"/></clipPath></defs><title>bubble</title><g id="Layer_2" data-name="Layer 2"><g id="Layer_1-2" data-name="Layer 1"><g class="cls-2"><ellipse class="cls-3" cx="37.46" cy="12.38" rx="6.08" ry="6.91"/><ellipse class="cls-3" cx="32.11" cy="65.38" rx="7.44" ry="8.15"/><ellipse class="cls-3" cx="42.13" cy="118.38" rx="8.72" ry="8.06" transform="translate(-85.04 160.06) rotate(-89.78)"/><ellipse class="cls-3" cx="48.15" cy="171.38" rx="8.1" ry="8.76" transform="translate(-9.05 0.12) rotate(-0.14)"/><ellipse class="cls-3" cx="95.1" cy="12.38" rx="7.33" ry="6.54" transform="translate(73.51 107.41) rotate(-89.65)"/><ellipse class="cls-3" cx="85.87" cy="65.38" rx="6.12" ry="5.23" transform="translate(11.27 150.8) rotate(-89.61)"/><ellipse class="cls-3" cx="84.67" cy="118.38" rx="8.96" ry="8.32" transform="translate(-42.85 202.34) rotate(-89.66)"/><ellipse class="cls-3" cx="97.05" cy="171.38" rx="10.16" ry="9.62" transform="translate(-83.51 267.45) rotate(-89.67)"/><ellipse class="cls-3" cx="142.87" cy="12.38" rx="12.38" ry="12.05" transform="translate(121.52 155.22) rotate(-89.86)"/><ellipse class="cls-3" cx="134.74" cy="65.38" rx="14.27" ry="14.11" transform="matrix(0.01, -1, 1, 0.01, 59.73, 199.63)"/><ellipse class="cls-3" cx="131.8" cy="118.38" rx="8.34" ry="7.64" transform="translate(4.22 249.67) rotate(-89.75)"/><ellipse class="cls-3" cx="140.25" cy="171.38" rx="14" ry="13.82" transform="translate(-40.93 310.19) rotate(-89.52)"/><ellipse class="cls-3" cx="183.57" cy="12.38" rx="6.74" ry="5.89" transform="translate(162.11 195.93) rotate(-89.86)"/><ellipse class="cls-3" cx="188.81" cy="65.38" rx="11.05" ry="10.6" transform="matrix(0, -1, 1, 0, 114.29, 254.02)"/><ellipse class="cls-3" cx="190.78" cy="118.38" rx="6.27" ry="7.08" transform="translate(-9.54 1.48) rotate(-0.44)"/><ellipse class="cls-3" cx="178.71" cy="171.38" rx="13.25" ry="13.48" transform="translate(-9.44 0.85) rotate(-0.27)"/><ellipse class="cls-3" cx="212.46" cy="12.38" rx="6.08" ry="6.91"/><ellipse class="cls-3" cx="207.11" cy="65.38" rx="7.44" ry="8.15"/><ellipse class="cls-3" cx="217.13" cy="118.38" rx="8.72" ry="8.06" transform="translate(89.29 335.06) rotate(-89.78)"/><ellipse class="cls-3" cx="223.15" cy="171.38" rx="8.1" ry="8.76" transform="translate(-9.05 0.55) rotate(-0.14)"/><ellipse class="cls-3" cx="270.1" cy="12.38" rx="7.33" ry="6.54" transform="translate(247.45 282.41) rotate(-89.65)"/><ellipse class="cls-3" cx="260.87" cy="65.38" rx="6.12" ry="5.23" transform="translate(185.08 325.8) rotate(-89.61)"/><ellipse class="cls-3" cx="259.67" cy="118.38" rx="8.96" ry="8.32" transform="translate(131.11 377.34) rotate(-89.66)"/><ellipse class="cls-3" cx="272.05" cy="171.38" rx="10.16" ry="9.62" transform="translate(90.49 442.45) rotate(-89.67)"/><ellipse class="cls-3" cx="317.87" cy="12.38" rx="12.38" ry="12.05" transform="translate(296.1 330.22) rotate(-89.86)"/><ellipse class="cls-3" cx="309.74" cy="65.38" rx="14.27" ry="14.11" transform="matrix(0.01, -1, 1, 0.01, 233.43, 374.63)"/><ellipse class="cls-3" cx="306.8" cy="118.38" rx="8.34" ry="7.64" transform="translate(178.47 424.67) rotate(-89.75)"/><ellipse class="cls-3" cx="315.25" cy="171.38" rx="14" ry="13.82" transform="translate(132.61 485.19) rotate(-89.52)"/><ellipse class="cls-3" cx="358.57" cy="12.38" rx="6.74" ry="5.89" transform="translate(336.68 370.93) rotate(-89.86)"/><ellipse class="cls-3" cx="363.81" cy="65.38" rx="11.05" ry="10.6" transform="matrix(0, -1, 1, 0, 288.82, 429.01)"/><ellipse class="cls-3" cx="365.78" cy="118.38" rx="6.27" ry="7.08" transform="translate(-9.53 2.83) rotate(-0.44)"/><ellipse class="cls-3" cx="353.71" cy="171.38" rx="13.25" ry="13.48" transform="translate(-9.44 1.68) rotate(-0.27)"/><ellipse class="cls-3" cx="37.46" cy="205.38" rx="6.08" ry="6.91"/><ellipse class="cls-3" cx="32.11" cy="258.38" rx="7.44" ry="8.15"/><ellipse class="cls-3" cx="49.13" cy="313.38" rx="8.72" ry="8.06" transform="translate(-273.06 361.32) rotate(-89.78)"/><ellipse class="cls-3" cx="35.15" cy="364.38" rx="8.1" ry="8.76" transform="translate(-9.52 0.09) rotate(-0.14)"/><ellipse class="cls-3" cx="95.1" cy="205.38" rx="7.33" ry="6.54" transform="translate(-119.48 299.23) rotate(-89.65)"/><ellipse class="cls-3" cx="85.87" cy="258.38" rx="6.12" ry="5.23" transform="translate(-181.72 342.48) rotate(-89.61)"/><ellipse class="cls-3" cx="84.67" cy="311.38" rx="8.96" ry="8.32" transform="translate(-235.84 394.19) rotate(-89.66)"/><ellipse class="cls-3" cx="97.05" cy="364.38" rx="10.16" ry="9.62" transform="translate(-276.51 459.35) rotate(-89.67)"/><ellipse class="cls-3" cx="158.87" cy="224.38" rx="12.38" ry="12.05" transform="translate(-74.52 382.71) rotate(-89.86)"/><ellipse class="cls-3" cx="134.74" cy="258.38" rx="14.27" ry="14.11" transform="translate(-133.26 391.2) rotate(-89.57)"/><ellipse class="cls-3" cx="131.8" cy="311.38" rx="8.34" ry="7.64" transform="translate(-188.78 441.84) rotate(-89.75)"/><ellipse class="cls-3" cx="140.25" cy="364.38" rx="14" ry="13.82" transform="translate(-233.92 501.58) rotate(-89.52)"/><ellipse class="cls-3" cx="183.57" cy="205.38" rx="6.74" ry="5.89" transform="translate(-30.89 388.45) rotate(-89.86)"/><ellipse class="cls-3" cx="188.81" cy="258.38" rx="11.05" ry="10.6" transform="translate(-78.71 446.49) rotate(-89.84)"/><ellipse class="cls-3" cx="190.78" cy="311.38" rx="6.27" ry="7.08" transform="translate(-11.03 1.48) rotate(-0.44)"/><ellipse class="cls-3" cx="178.71" cy="364.38" rx="13.25" ry="13.48" transform="translate(-10.35 0.85) rotate(-0.27)"/><ellipse class="cls-3" cx="212.46" cy="205.38" rx="6.08" ry="6.91"/><ellipse class="cls-3" cx="207.11" cy="258.38" rx="7.44" ry="8.15"/><ellipse class="cls-3" cx="217.13" cy="311.38" rx="8.72" ry="8.06" transform="translate(-103.7 527.32) rotate(-89.78)"/><ellipse class="cls-3" cx="223.15" cy="364.38" rx="8.1" ry="8.76" transform="translate(-9.52 0.55) rotate(-0.14)"/><ellipse class="cls-3" cx="270.1" cy="205.38" rx="7.33" ry="6.54" transform="translate(54.45 474.23) rotate(-89.65)"/><ellipse class="cls-3" cx="260.87" cy="258.38" rx="6.12" ry="5.23" transform="translate(-7.92 517.48) rotate(-89.61)"/><ellipse class="cls-3" cx="259.67" cy="311.38" rx="8.96" ry="8.32" transform="translate(-61.88 569.19) rotate(-89.66)"/><ellipse class="cls-3" cx="272.05" cy="364.38" rx="10.16" ry="9.62" transform="translate(-102.51 634.35) rotate(-89.67)"/><ellipse class="cls-3" cx="317.87" cy="210.38" rx="12.38" ry="12.05" transform="translate(98.1 527.75) rotate(-89.86)"/><ellipse class="cls-3" cx="309.74" cy="258.38" rx="14.27" ry="14.11" transform="translate(40.44 566.2) rotate(-89.57)"/><ellipse class="cls-3" cx="306.8" cy="311.38" rx="8.34" ry="7.64" transform="translate(-14.53 616.84) rotate(-89.75)"/><ellipse class="cls-3" cx="315.25" cy="364.38" rx="14" ry="13.82" transform="translate(-60.38 676.58) rotate(-89.52)"/><ellipse class="cls-3" cx="358.57" cy="218.38" rx="6.74" ry="5.89" transform="translate(130.68 576.42) rotate(-89.86)"/><ellipse class="cls-3" cx="363.81" cy="258.38" rx="11.05" ry="10.6" transform="translate(95.82 621.49) rotate(-89.84)"/><ellipse class="cls-3" cx="365.78" cy="311.38" rx="6.27" ry="7.08" transform="translate(-11.02 2.84) rotate(-0.44)"/><ellipse class="cls-3" cx="353.71" cy="364.38" rx="13.25" ry="13.48" transform="translate(-10.35 1.68) rotate(-0.27)"/><ellipse class="cls-3" cx="387.46" cy="12.38" rx="6.08" ry="6.91"/><ellipse class="cls-3" cx="382.11" cy="65.38" rx="7.44" ry="8.15"/><ellipse class="cls-3" cx="392.13" cy="118.38" rx="8.72" ry="8.06" transform="translate(263.63 510.06) rotate(-89.78)"/><ellipse class="cls-3" cx="398.15" cy="171.38" rx="8.1" ry="8.76" transform="translate(-9.05 0.98) rotate(-0.14)"/><ellipse class="cls-3" cx="445.1" cy="12.38" rx="7.33" ry="6.54" transform="translate(421.38 457.4) rotate(-89.65)"/><ellipse class="cls-3" cx="435.87" cy="65.38" rx="6.12" ry="5.23" transform="translate(358.88 500.79) rotate(-89.61)"/><ellipse class="cls-3" cx="434.67" cy="118.38" rx="8.96" ry="8.32" transform="translate(305.07 552.34) rotate(-89.66)"/><ellipse class="cls-3" cx="447.05" cy="171.38" rx="10.16" ry="9.62" transform="translate(264.49 617.45) rotate(-89.67)"/><ellipse class="cls-3" cx="492.87" cy="12.38" rx="12.38" ry="12.05" transform="translate(470.68 505.22) rotate(-89.86)"/><ellipse class="cls-3" cx="484.74" cy="65.38" rx="14.27" ry="14.11" transform="translate(407.14 549.63) rotate(-89.57)"/><ellipse class="cls-3" cx="481.8" cy="118.38" rx="8.34" ry="7.64" transform="translate(352.72 599.67) rotate(-89.75)"/><ellipse class="cls-3" cx="490.25" cy="171.38" rx="14" ry="13.82" transform="translate(306.15 660.18) rotate(-89.52)"/><ellipse class="cls-3" cx="533.57" cy="12.38" rx="6.74" ry="5.89" transform="translate(511.25 545.92) rotate(-89.86)"/><ellipse class="cls-3" cx="538.81" cy="65.38" rx="11.05" ry="10.6" transform="matrix(0, -1, 1, 0, 463.34, 604.01)"/><ellipse class="cls-3" cx="540.78" cy="118.38" rx="6.27" ry="7.08" transform="translate(-9.53 4.18) rotate(-0.44)"/><ellipse class="cls-3" cx="528.71" cy="171.38" rx="13.25" ry="13.48" transform="translate(-9.43 2.51) rotate(-0.27)"/><ellipse class="cls-3" cx="562.46" cy="12.38" rx="6.08" ry="6.91"/><ellipse class="cls-3" cx="557.11" cy="65.38" rx="7.44" ry="8.15"/><ellipse class="cls-3" cx="567.13" cy="118.38" rx="8.72" ry="8.06" transform="translate(437.96 685.06) rotate(-89.78)"/><ellipse class="cls-3" cx="573.15" cy="171.38" rx="8.1" ry="8.76" transform="translate(-9.05 1.41) rotate(-0.14)"/><ellipse class="cls-3" cx="620.1" cy="12.38" rx="7.33" ry="6.54" transform="translate(595.31 632.4) rotate(-89.65)"/><ellipse class="cls-3" cx="610.87" cy="65.38" rx="6.12" ry="5.23" transform="translate(532.69 675.79) rotate(-89.61)"/><ellipse class="cls-3" cx="609.67" cy="118.38" rx="8.96" ry="8.32" transform="translate(479.03 727.33) rotate(-89.66)"/><ellipse class="cls-3" cx="622.05" cy="171.38" rx="10.16" ry="9.62" transform="translate(438.49 792.44) rotate(-89.67)"/><ellipse class="cls-3" cx="667.87" cy="12.38" rx="12.38" ry="12.05" transform="translate(645.26 680.22) rotate(-89.86)"/><ellipse class="cls-3" cx="659.74" cy="65.38" rx="14.27" ry="14.11" transform="translate(580.84 724.62) rotate(-89.57)"/><ellipse class="cls-3" cx="656.8" cy="118.38" rx="8.34" ry="7.64" transform="translate(526.97 774.67) rotate(-89.75)"/><ellipse class="cls-3" cx="665.25" cy="171.38" rx="14" ry="13.82" transform="translate(479.69 835.18) rotate(-89.52)"/><ellipse class="cls-3" cx="708.57" cy="12.38" rx="6.74" ry="5.89" transform="translate(685.81 720.92) rotate(-89.86)"/><ellipse class="cls-3" cx="713.81" cy="65.38" rx="11.05" ry="10.6" transform="matrix(0, -1, 1, 0, 637.87, 779.01)"/><ellipse class="cls-3" cx="715.78" cy="118.38" rx="6.27" ry="7.08" transform="translate(-9.52 5.54) rotate(-0.44)"/><ellipse class="cls-3" cx="703.71" cy="171.38" rx="13.25" ry="13.48" transform="translate(-9.43 3.34) rotate(-0.27)"/><ellipse class="cls-3" cx="387.46" cy="205.38" rx="6.08" ry="6.91"/><ellipse class="cls-3" cx="382.11" cy="258.38" rx="7.44" ry="8.15"/><ellipse class="cls-3" cx="392.13" cy="311.38" rx="8.72" ry="8.06" transform="translate(70.63 702.32) rotate(-89.78)"/><ellipse class="cls-3" cx="398.15" cy="364.38" rx="8.1" ry="8.76" transform="translate(-9.52 0.98) rotate(-0.14)"/><ellipse class="cls-3" cx="445.1" cy="205.38" rx="7.33" ry="6.54" transform="translate(228.38 649.22) rotate(-89.65)"/><ellipse class="cls-3" cx="435.87" cy="258.38" rx="6.12" ry="5.23" transform="translate(165.89 692.48) rotate(-89.61)"/><ellipse class="cls-3" cx="434.67" cy="311.38" rx="8.96" ry="8.32" transform="translate(112.08 744.19) rotate(-89.66)"/><ellipse class="cls-3" cx="447.05" cy="364.38" rx="10.16" ry="9.62" transform="translate(71.49 809.34) rotate(-89.67)"/><ellipse class="cls-3" cx="492.87" cy="205.38" rx="12.38" ry="12.05" transform="translate(277.68 697.76) rotate(-89.86)"/><ellipse class="cls-3" cx="484.74" cy="258.38" rx="14.27" ry="14.11" transform="translate(214.14 741.19) rotate(-89.57)"/><ellipse class="cls-3" cx="481.8" cy="311.38" rx="8.34" ry="7.64" transform="translate(159.72 791.84) rotate(-89.75)"/><ellipse class="cls-3" cx="490.25" cy="364.38" rx="14" ry="13.82" transform="translate(113.16 851.57) rotate(-89.52)"/><ellipse class="cls-3" cx="533.57" cy="205.38" rx="6.74" ry="5.89" transform="translate(318.25 738.45) rotate(-89.86)"/><ellipse class="cls-3" cx="538.81" cy="258.38" rx="11.05" ry="10.6" transform="matrix(0, -1, 1, 0, 270.34, 796.49)"/><ellipse class="cls-3" cx="540.78" cy="311.38" rx="6.27" ry="7.08" transform="translate(-11.02 4.19) rotate(-0.44)"/><ellipse class="cls-3" cx="528.71" cy="364.38" rx="13.25" ry="13.48" transform="translate(-10.35 2.51) rotate(-0.27)"/><ellipse class="cls-3" cx="562.46" cy="205.38" rx="6.08" ry="6.91"/><ellipse class="cls-3" cx="557.11" cy="258.38" rx="7.44" ry="8.15"/><ellipse class="cls-3" cx="567.13" cy="311.38" rx="8.72" ry="8.06" transform="translate(244.96 877.32) rotate(-89.78)"/><ellipse class="cls-3" cx="573.15" cy="364.38" rx="8.1" ry="8.76" transform="translate(-9.52 1.41) rotate(-0.14)"/><ellipse class="cls-3" cx="620.1" cy="205.38" rx="7.33" ry="6.54" transform="translate(402.31 824.22) rotate(-89.65)"/><ellipse class="cls-3" cx="610.87" cy="258.38" rx="6.12" ry="5.23" transform="translate(339.69 867.47) rotate(-89.61)"/><ellipse class="cls-3" cx="609.67" cy="311.38" rx="8.96" ry="8.32" transform="translate(286.03 919.18) rotate(-89.66)"/><ellipse class="cls-3" cx="622.05" cy="364.38" rx="10.16" ry="9.62" transform="translate(245.5 984.34) rotate(-89.67)"/><ellipse class="cls-3" cx="667.87" cy="205.38" rx="12.38" ry="12.05" transform="translate(452.26 872.76) rotate(-89.86)"/><ellipse class="cls-3" cx="659.74" cy="258.38" rx="14.27" ry="14.11" transform="translate(387.84 916.19) rotate(-89.57)"/><ellipse class="cls-3" cx="656.8" cy="311.38" rx="8.34" ry="7.64" transform="translate(333.97 966.84) rotate(-89.75)"/><ellipse class="cls-3" cx="665.25" cy="364.38" rx="14" ry="13.82" transform="translate(286.7 1026.57) rotate(-89.52)"/><ellipse class="cls-3" cx="708.57" cy="205.38" rx="6.74" ry="5.89" transform="translate(492.81 913.45) rotate(-89.86)"/><ellipse class="cls-3" cx="713.81" cy="258.38" rx="11.05" ry="10.6" transform="matrix(0, -1, 1, 0, 444.87, 971.49)"/><ellipse class="cls-3" cx="715.78" cy="311.38" rx="6.27" ry="7.08" transform="translate(-11.01 5.54) rotate(-0.44)"/><ellipse class="cls-3" cx="703.71" cy="364.38" rx="13.25" ry="13.48" transform="translate(-10.35 3.34) rotate(-0.27)"/><ellipse class="cls-3" cx="37.46" cy="398.38" rx="6.08" ry="6.91"/><ellipse class="cls-3" cx="32.11" cy="451.38" rx="7.44" ry="8.15"/><ellipse class="cls-3" cx="42.13" cy="504.38" rx="8.72" ry="8.06" transform="translate(-471.03 544.59) rotate(-89.78)"/><ellipse class="cls-3" cx="48.15" cy="557.38" rx="8.1" ry="8.76" transform="translate(-10 0.12) rotate(-0.14)"/><ellipse class="cls-3" cx="95.1" cy="398.38" rx="7.33" ry="6.54" transform="translate(-312.48 491.05) rotate(-89.65)"/><ellipse class="cls-3" cx="85.87" cy="451.38" rx="6.12" ry="5.23" transform="translate(-374.72 534.17) rotate(-89.61)"/><ellipse class="cls-3" cx="84.67" cy="504.38" rx="8.96" ry="8.32" transform="translate(-428.84 586.05) rotate(-89.66)"/><ellipse class="cls-3" cx="97.05" cy="557.38" rx="10.16" ry="9.62" transform="translate(-469.51 651.25) rotate(-89.67)"/><ellipse class="cls-3" cx="142.87" cy="398.38" rx="12.38" ry="12.05" transform="translate(-264.48 540.3) rotate(-89.86)"/><ellipse class="cls-3" cx="134.74" cy="451.38" rx="14.27" ry="14.11" transform="translate(-326.26 582.77) rotate(-89.57)"/><ellipse class="cls-3" cx="131.8" cy="504.38" rx="8.34" ry="7.64" transform="translate(-381.77 634.01) rotate(-89.75)"/><ellipse class="cls-3" cx="140.25" cy="557.38" rx="14" ry="13.82" transform="translate(-426.91 692.97) rotate(-89.52)"/><ellipse class="cls-3" cx="183.57" cy="398.38" rx="6.74" ry="5.89" transform="translate(-223.89 580.97) rotate(-89.86)"/><ellipse class="cls-3" cx="188.81" cy="451.38" rx="11.05" ry="10.6" transform="translate(-271.71 638.97) rotate(-89.84)"/><ellipse class="cls-3" cx="190.78" cy="504.38" rx="6.27" ry="7.08" transform="translate(-12.52 1.49) rotate(-0.44)"/><ellipse class="cls-3" cx="178.71" cy="557.38" rx="13.25" ry="13.48" transform="translate(-11.27 0.85) rotate(-0.27)"/><ellipse class="cls-3" cx="212.46" cy="398.38" rx="6.08" ry="6.91"/><ellipse class="cls-3" cx="207.11" cy="451.38" rx="7.44" ry="8.15"/><ellipse class="cls-3" cx="217.13" cy="504.38" rx="8.72" ry="8.06" transform="translate(-296.7 719.59) rotate(-89.78)"/><ellipse class="cls-3" cx="223.15" cy="557.38" rx="8.1" ry="8.76" transform="translate(-10 0.55) rotate(-0.14)"/><ellipse class="cls-3" cx="270.1" cy="398.38" rx="7.33" ry="6.54" transform="translate(-138.55 666.05) rotate(-89.65)"/><ellipse class="cls-3" cx="260.87" cy="451.38" rx="6.12" ry="5.23" transform="translate(-200.91 709.16) rotate(-89.61)"/><ellipse class="cls-3" cx="259.67" cy="504.38" rx="8.96" ry="8.32" transform="translate(-254.88 761.04) rotate(-89.66)"/><ellipse class="cls-3" cx="272.05" cy="557.38" rx="10.16" ry="9.62" transform="translate(-295.5 826.25) rotate(-89.67)"/><ellipse class="cls-3" cx="317.87" cy="398.38" rx="12.38" ry="12.05" transform="translate(-89.9 715.29) rotate(-89.86)"/><ellipse class="cls-3" cx="309.74" cy="451.38" rx="14.27" ry="14.11" transform="translate(-152.55 757.77) rotate(-89.57)"/><ellipse class="cls-3" cx="306.8" cy="504.38" rx="8.34" ry="7.64" transform="translate(-207.52 809.01) rotate(-89.75)"/><ellipse class="cls-3" cx="315.25" cy="557.38" rx="14" ry="13.82" transform="translate(-253.37 867.97) rotate(-89.52)"/><ellipse class="cls-3" cx="358.57" cy="398.38" rx="6.74" ry="5.89" transform="translate(-49.32 755.97) rotate(-89.86)"/><ellipse class="cls-3" cx="363.81" cy="451.38" rx="11.05" ry="10.6" transform="translate(-97.18 813.97) rotate(-89.84)"/><ellipse class="cls-3" cx="365.78" cy="504.38" rx="6.27" ry="7.08" transform="translate(-12.52 2.84) rotate(-0.44)"/><ellipse class="cls-3" cx="353.71" cy="557.38" rx="13.25" ry="13.48" transform="translate(-11.27 1.69) rotate(-0.27)"/><ellipse class="cls-3" cx="37.46" cy="591.38" rx="6.08" ry="6.91"/><ellipse class="cls-3" cx="32.11" cy="644.38" rx="7.44" ry="8.15"/><ellipse class="cls-3" cx="42.13" cy="697.38" rx="8.72" ry="8.06" transform="translate(-664.03 736.85) rotate(-89.78)"/><ellipse class="cls-3" cx="48.15" cy="750.38" rx="8.1" ry="8.76" transform="translate(-10.48 0.12) rotate(-0.14)"/><ellipse class="cls-3" cx="95.1" cy="591.38" rx="7.33" ry="6.54" transform="translate(-505.48 682.87) rotate(-89.65)"/><ellipse class="cls-3" cx="85.87" cy="644.38" rx="6.12" ry="5.23" transform="translate(-567.71 725.85) rotate(-89.61)"/><ellipse class="cls-3" cx="84.67" cy="697.38" rx="8.96" ry="8.32" transform="translate(-621.84 777.9) rotate(-89.66)"/><ellipse class="cls-3" cx="97.05" cy="750.38" rx="10.16" ry="9.62" transform="translate(-662.5 843.15) rotate(-89.67)"/><ellipse class="cls-3" cx="142.87" cy="591.38" rx="12.38" ry="12.05" transform="translate(-457.48 732.83) rotate(-89.86)"/><ellipse class="cls-3" cx="134.74" cy="644.38" rx="14.27" ry="14.11" transform="translate(-519.25 774.34) rotate(-89.57)"/><ellipse class="cls-3" cx="131.8" cy="697.38" rx="8.34" ry="7.64" transform="translate(-574.77 826.19) rotate(-89.75)"/><ellipse class="cls-3" cx="140.25" cy="750.38" rx="14" ry="13.82" transform="translate(-619.91 884.36) rotate(-89.52)"/><ellipse class="cls-3" cx="183.57" cy="591.38" rx="6.74" ry="5.89" transform="translate(-416.89 773.49) rotate(-89.86)"/><ellipse class="cls-3" cx="188.81" cy="644.38" rx="11.05" ry="10.6" transform="translate(-464.71 831.45) rotate(-89.84)"/><ellipse class="cls-3" cx="190.78" cy="697.38" rx="6.27" ry="7.08" transform="translate(-14.01 1.5) rotate(-0.44)"/><ellipse class="cls-3" cx="178.71" cy="750.38" rx="13.25" ry="13.48" transform="translate(-12.19 0.86) rotate(-0.27)"/><ellipse class="cls-3" cx="212.46" cy="591.38" rx="6.08" ry="6.91"/><ellipse class="cls-3" cx="207.11" cy="644.38" rx="7.44" ry="8.15"/><ellipse class="cls-3" cx="217.13" cy="697.38" rx="8.72" ry="8.06" transform="translate(-489.7 911.85) rotate(-89.78)"/><ellipse class="cls-3" cx="223.15" cy="750.38" rx="8.1" ry="8.76" transform="translate(-10.48 0.55) rotate(-0.14)"/><ellipse class="cls-3" cx="270.1" cy="591.38" rx="7.33" ry="6.54" transform="translate(-331.54 857.87) rotate(-89.65)"/><ellipse class="cls-3" cx="260.87" cy="644.38" rx="6.12" ry="5.23" transform="translate(-393.91 900.84) rotate(-89.61)"/><ellipse class="cls-3" cx="259.67" cy="697.38" rx="8.96" ry="8.32" transform="translate(-447.88 952.89) rotate(-89.66)"/><ellipse class="cls-3" cx="272.05" cy="750.38" rx="10.16" ry="9.62" transform="translate(-488.5 1018.15) rotate(-89.67)"/><ellipse class="cls-3" cx="317.87" cy="591.38" rx="12.38" ry="12.05" transform="translate(-282.9 907.83) rotate(-89.86)"/><ellipse class="cls-3" cx="309.74" cy="644.38" rx="14.27" ry="14.11" transform="translate(-345.55 949.33) rotate(-89.57)"/><ellipse class="cls-3" cx="306.8" cy="697.38" rx="8.34" ry="7.64" transform="translate(-400.52 1001.18) rotate(-89.75)"/><ellipse class="cls-3" cx="315.25" cy="750.38" rx="14" ry="13.82" transform="translate(-446.37 1059.36) rotate(-89.52)"/><ellipse class="cls-3" cx="358.57" cy="591.38" rx="6.74" ry="5.89" transform="translate(-242.32 948.49) rotate(-89.86)"/><ellipse class="cls-3" cx="363.81" cy="644.38" rx="11.05" ry="10.6" transform="translate(-290.18 1006.45) rotate(-89.84)"/><ellipse class="cls-3" cx="365.78" cy="697.38" rx="6.27" ry="7.08" transform="translate(-14.01 2.85) rotate(-0.44)"/><ellipse class="cls-3" cx="353.71" cy="750.38" rx="13.25" ry="13.48" transform="translate(-12.18 1.69) rotate(-0.27)"/><ellipse class="cls-3" cx="387.46" cy="398.38" rx="6.08" ry="6.91"/><ellipse class="cls-3" cx="382.11" cy="451.38" rx="7.44" ry="8.15"/><ellipse class="cls-3" cx="392.13" cy="504.38" rx="8.72" ry="8.06" transform="translate(-122.37 894.58) rotate(-89.78)"/><ellipse class="cls-3" cx="398.15" cy="557.38" rx="8.1" ry="8.76" transform="translate(-10 0.98) rotate(-0.14)"/><ellipse class="cls-3" cx="445.1" cy="398.38" rx="7.33" ry="6.54" transform="translate(35.38 841.05) rotate(-89.65)"/><ellipse class="cls-3" cx="435.87" cy="451.38" rx="6.12" ry="5.23" transform="translate(-27.11 884.16) rotate(-89.61)"/><ellipse class="cls-3" cx="434.67" cy="504.38" rx="8.96" ry="8.32" transform="translate(-80.92 936.04) rotate(-89.66)"/><ellipse class="cls-3" cx="447.05" cy="557.38" rx="10.16" ry="9.62" transform="translate(-121.5 1001.24) rotate(-89.67)"/><ellipse class="cls-3" cx="492.87" cy="398.38" rx="12.38" ry="12.05" transform="translate(84.68 890.29) rotate(-89.86)"/><ellipse class="cls-3" cx="22.74" cy="416.38" rx="14.27" ry="14.11" transform="translate(-402.43 436.03) rotate(-89.57)"/><ellipse class="cls-3" cx="481.8" cy="504.38" rx="8.34" ry="7.64" transform="matrix(0, -1, 1, 0, -33.28, 984.01)"/><ellipse class="cls-3" cx="490.25" cy="557.38" rx="14" ry="13.82" transform="matrix(0.01, -1, 1, 0.01, -79.83, 1042.96)"/><ellipse class="cls-3" cx="533.57" cy="398.38" rx="6.74" ry="5.89" transform="translate(125.25 930.97) rotate(-89.86)"/><ellipse class="cls-3" cx="538.81" cy="451.38" rx="11.05" ry="10.6" transform="translate(77.34 988.97) rotate(-89.84)"/><ellipse class="cls-3" cx="540.78" cy="504.38" rx="6.27" ry="7.08" transform="translate(-12.51 4.2) rotate(-0.44)"/><ellipse class="cls-3" cx="528.71" cy="557.38" rx="13.25" ry="13.48" transform="translate(-11.27 2.52) rotate(-0.27)"/><ellipse class="cls-3" cx="562.46" cy="398.38" rx="6.08" ry="6.91"/><ellipse class="cls-3" cx="557.11" cy="451.38" rx="7.44" ry="8.15"/><ellipse class="cls-3" cx="567.13" cy="504.38" rx="8.72" ry="8.06" transform="translate(51.96 1069.58) rotate(-89.78)"/><ellipse class="cls-3" cx="573.15" cy="557.38" rx="8.1" ry="8.76" transform="translate(-10 1.42) rotate(-0.14)"/><ellipse class="cls-3" cx="620.1" cy="398.38" rx="7.33" ry="6.54" transform="translate(209.32 1016.04) rotate(-89.65)"/><ellipse class="cls-3" cx="610.87" cy="451.38" rx="6.12" ry="5.23" transform="translate(146.7 1059.15) rotate(-89.61)"/><ellipse class="cls-3" cx="609.67" cy="504.38" rx="8.96" ry="8.32" transform="translate(93.04 1111.04) rotate(-89.66)"/><ellipse class="cls-3" cx="622.05" cy="557.38" rx="10.16" ry="9.62" transform="translate(52.5 1176.24) rotate(-89.67)"/><ellipse class="cls-3" cx="667.87" cy="398.38" rx="12.38" ry="12.05" transform="translate(259.26 1065.29) rotate(-89.86)"/><ellipse class="cls-3" cx="659.74" cy="451.38" rx="14.27" ry="14.11" transform="translate(194.85 1107.76) rotate(-89.57)"/><ellipse class="cls-3" cx="656.8" cy="504.38" rx="8.34" ry="7.64" transform="matrix(0, -1, 1, 0, 140.97, 1159.01)"/><ellipse class="cls-3" cx="665.25" cy="557.38" rx="14" ry="13.82" transform="matrix(0.01, -1, 1, 0.01, 93.71, 1217.96)"/><ellipse class="cls-3" cx="708.57" cy="398.38" rx="6.74" ry="5.89" transform="translate(299.81 1105.97) rotate(-89.86)"/><ellipse class="cls-3" cx="713.81" cy="451.38" rx="11.05" ry="10.6" transform="translate(251.87 1163.97) rotate(-89.84)"/><ellipse class="cls-3" cx="715.78" cy="504.38" rx="6.27" ry="7.08" transform="translate(-12.5 5.55) rotate(-0.44)"/><ellipse class="cls-3" cx="703.71" cy="557.38" rx="13.25" ry="13.48" transform="translate(-11.26 3.35) rotate(-0.27)"/><ellipse class="cls-3" cx="387.46" cy="591.38" rx="6.08" ry="6.91"/><ellipse class="cls-3" cx="382.11" cy="644.38" rx="7.44" ry="8.15"/><ellipse class="cls-3" cx="392.13" cy="697.38" rx="8.72" ry="8.06" transform="translate(-315.37 1086.85) rotate(-89.78)"/><ellipse class="cls-3" cx="398.15" cy="750.38" rx="8.1" ry="8.76" transform="translate(-10.48 0.98) rotate(-0.14)"/><ellipse class="cls-3" cx="445.1" cy="591.38" rx="7.33" ry="6.54" transform="translate(-157.61 1032.87) rotate(-89.65)"/><ellipse class="cls-3" cx="435.87" cy="644.38" rx="6.12" ry="5.23" transform="translate(-220.1 1075.84) rotate(-89.61)"/><ellipse class="cls-3" cx="434.67" cy="697.38" rx="8.96" ry="8.32" transform="translate(-273.92 1127.89) rotate(-89.66)"/><ellipse class="cls-3" cx="447.05" cy="750.38" rx="10.16" ry="9.62" transform="translate(-314.5 1193.14) rotate(-89.67)"/><ellipse class="cls-3" cx="492.87" cy="591.38" rx="12.38" ry="12.05" transform="translate(-108.32 1082.83) rotate(-89.86)"/><ellipse class="cls-3" cx="484.74" cy="644.38" rx="14.27" ry="14.11" transform="translate(-171.85 1124.33) rotate(-89.57)"/><ellipse class="cls-3" cx="481.8" cy="697.38" rx="8.34" ry="7.64" transform="matrix(0, -1, 1, 0, -226.27, 1176.18)"/><ellipse class="cls-3" cx="490.25" cy="750.38" rx="14" ry="13.82" transform="translate(-272.83 1234.35) rotate(-89.52)"/><ellipse class="cls-3" cx="533.57" cy="591.38" rx="6.74" ry="5.89" transform="translate(-67.75 1123.49) rotate(-89.86)"/><ellipse class="cls-3" cx="538.81" cy="644.38" rx="11.05" ry="10.6" transform="matrix(0, -1, 1, 0, -115.66, 1181.45)"/><ellipse class="cls-3" cx="540.78" cy="697.38" rx="6.27" ry="7.08" transform="translate(-14 4.2) rotate(-0.44)"/><ellipse class="cls-3" cx="528.71" cy="750.38" rx="13.25" ry="13.48" transform="translate(-12.18 2.52) rotate(-0.27)"/><ellipse class="cls-3" cx="562.46" cy="591.38" rx="6.08" ry="6.91"/><ellipse class="cls-3" cx="557.11" cy="644.38" rx="7.44" ry="8.15"/><ellipse class="cls-3" cx="567.13" cy="697.38" rx="8.72" ry="8.06" transform="translate(-141.04 1261.85) rotate(-89.78)"/><ellipse class="cls-3" cx="573.15" cy="750.38" rx="8.1" ry="8.76" transform="translate(-10.48 1.42) rotate(-0.14)"/><ellipse class="cls-3" cx="620.1" cy="591.38" rx="7.33" ry="6.54" transform="translate(16.32 1207.86) rotate(-89.65)"/><ellipse class="cls-3" cx="610.87" cy="644.38" rx="6.12" ry="5.23" transform="translate(-46.3 1250.83) rotate(-89.61)"/><ellipse class="cls-3" cx="609.67" cy="697.38" rx="8.96" ry="8.32" transform="translate(-99.96 1302.89) rotate(-89.66)"/><ellipse class="cls-3" cx="622.05" cy="750.38" rx="10.16" ry="9.62" transform="translate(-140.5 1368.14) rotate(-89.67)"/><ellipse class="cls-3" cx="667.87" cy="591.38" rx="12.38" ry="12.05" transform="translate(66.26 1257.83) rotate(-89.86)"/><ellipse class="cls-3" cx="659.74" cy="644.38" rx="14.27" ry="14.11" transform="translate(1.85 1299.32) rotate(-89.57)"/><ellipse class="cls-3" cx="656.8" cy="697.38" rx="8.34" ry="7.64" transform="matrix(0, -1, 1, 0, -52.02, 1351.18)"/><ellipse class="cls-3" cx="665.25" cy="750.38" rx="14" ry="13.82" transform="translate(-99.29 1409.35) rotate(-89.52)"/><ellipse class="cls-3" cx="708.57" cy="591.38" rx="6.74" ry="5.89" transform="translate(106.82 1298.49) rotate(-89.86)"/><ellipse class="cls-3" cx="713.81" cy="644.38" rx="11.05" ry="10.6" transform="matrix(0, -1, 1, 0, 58.87, 1356.45)"/><ellipse class="cls-3" cx="715.78" cy="697.38" rx="6.27" ry="7.08" transform="translate(-14 5.55) rotate(-0.44)"/><ellipse class="cls-3" cx="703.71" cy="750.38" rx="13.25" ry="13.48" transform="translate(-12.18 3.35) rotate(-0.27)"/></g></g></g></svg>