<svg xmlns="http://www.w3.org/2000/svg" xmlns:xlink="http://www.w3.org/1999/xlink" viewBox="0 0 485.72 484.61"><defs><style>.cls-1{fill:none;}.cls-2{clip-path:url(#clip-path);}.cls-3{fill:#e8e807;}</style><clipPath id="clip-path"><circle class="cls-1" cx="278.13" cy="239.69" r="159.5"/></clipPath></defs><title>dashes</title><g id="Layer_2" data-name="Layer 2"><g id="Layer_1-2" data-name="Layer 1"><g class="cls-2"><rect class="cls-3" x="108.09" y="221.92" width="4" height="306.48" transform="translate(-233.59 188.74) rotate(-45.17)"/><rect class="cls-3" x="114.48" y="216.59" width="4" height="304.35" transform="translate(-226.7 190.5) rotate(-45.02)"/><rect class="cls-3" x="125.04" y="212.16" width="4" height="292.09" transform="translate(-215.14 192.77) rotate(-44.67)"/><rect class="cls-3" x="133.83" y="202.11" width="4" height="294.62" transform="translate(-206.94 197.58) rotate(-44.87)"/><rect class="cls-3" x="142.95" y="192.31" width="4" height="295.98" transform="translate(-198.71 203.49) rotate(-45.22)"/><rect class="cls-3" x="150.89" y="181.18" width="4" height="302.36" transform="translate(-189.9 204.56) rotate(-44.85)"/><rect class="cls-3" x="162.68" y="176.59" width="4" height="287.95" transform="translate(-178.98 212.03) rotate(-45.28)"/><rect class="cls-3" x="170.52" y="167.13" width="4" height="291.21" transform="translate(-170.84 214.39) rotate(-45.13)"/><rect class="cls-3" x="176.68" y="153.33" width="4" height="306.48" transform="translate(-164.71 217.15) rotate(-45.17)"/><rect class="cls-3" x="183.07" y="148" width="4" height="304.35" transform="translate(-158.08 218.91) rotate(-45.02)"/><rect class="cls-3" x="193.63" y="143.57" width="4" height="292.09" transform="translate(-147.11 221.18) rotate(-44.67)"/><rect class="cls-3" x="202.42" y="133.52" width="4" height="294.62" transform="translate(-138.58 225.99) rotate(-44.87)"/><rect class="cls-3" x="211.54" y="123.72" width="4" height="295.98" transform="translate(-129.74 231.9) rotate(-45.22)"/><rect class="cls-3" x="219.48" y="112.59" width="4" height="302.36" transform="translate(-121.56 232.97) rotate(-44.85)"/><rect class="cls-3" x="231.27" y="108" width="4" height="287.95" transform="translate(-109.91 240.44) rotate(-45.28)"/><rect class="cls-3" x="239.11" y="98.54" width="4" height="291.21" transform="translate(-102.02 242.8) rotate(-45.13)"/><rect class="cls-3" x="248.09" y="81.92" width="4" height="306.48" transform="translate(-93 246.73) rotate(-45.17)"/><rect class="cls-3" x="254.49" y="76.58" width="4" height="304.35" transform="translate(-86.62 248.49) rotate(-45.02)"/><rect class="cls-3" x="265.04" y="72.16" width="4" height="292.09" transform="translate(-76.27 250.76) rotate(-44.67)"/><rect class="cls-3" x="273.83" y="62.1" width="4" height="294.62" transform="translate(-67.4 255.57) rotate(-44.87)"/><rect class="cls-3" x="282.95" y="52.3" width="4" height="295.98" transform="translate(-57.93 261.48) rotate(-45.22)"/><rect class="cls-3" x="290.9" y="41.17" width="4" height="302.36" transform="translate(-50.41 262.55) rotate(-44.85)"/><rect class="cls-3" x="302.69" y="36.58" width="4" height="287.95" transform="translate(-37.99 270.02) rotate(-45.28)"/><rect class="cls-3" x="310.52" y="27.12" width="4" height="291.21" transform="translate(-30.37 272.38) rotate(-45.13)"/><rect class="cls-3" x="316.68" y="13.33" width="4" height="306.48" transform="translate(-24.12 275.14) rotate(-45.17)"/><rect class="cls-3" x="323.08" y="7.99" width="4" height="304.35" transform="translate(-18 276.9) rotate(-45.02)"/><rect class="cls-3" x="333.63" y="3.57" width="4" height="292.09" transform="translate(-8.24 279.17) rotate(-44.67)"/><rect class="cls-3" x="342.42" y="-6.49" width="4" height="294.62" transform="translate(0.97 283.98) rotate(-44.87)"/><rect class="cls-3" x="351.54" y="-16.29" width="4" height="295.98" transform="translate(11.03 289.89) rotate(-45.22)"/><rect class="cls-3" x="359.49" y="-27.42" width="4" height="302.36" transform="translate(17.93 290.96) rotate(-44.85)"/><rect class="cls-3" x="371.28" y="-32.01" width="4" height="287.95" transform="translate(31.07 298.43) rotate(-45.28)"/><rect class="cls-3" x="379.11" y="-41.47" width="4" height="291.21" transform="translate(38.45 300.79) rotate(-45.13)"/></g></g></g></svg>