<svg xmlns="http://www.w3.org/2000/svg" viewBox="0 0 955.12 644.87"><defs><style>.cls-1,.cls-10,.cls-11,.cls-12,.cls-13,.cls-14,.cls-15,.cls-2,.cls-3,.cls-4,.cls-5,.cls-6,.cls-7,.cls-8,.cls-9{fill:none;stroke-miterlimit:10;stroke-width:2px;stroke-dasharray:12;}.cls-1{stroke:#35094c;}.cls-2{stroke:#331554;}.cls-3{stroke:#31215b;}.cls-4{stroke:#2f2c63;}.cls-5{stroke:#2d386a;}.cls-6{stroke:#2b4472;}.cls-7{stroke:#295079;}.cls-8{stroke:#275c81;}.cls-9{stroke:#246788;}.cls-10{stroke:#22738f;}.cls-11{stroke:#207f97;}.cls-12{stroke:#1e8b9e;}.cls-13{stroke:#1c96a6;}.cls-14{stroke:#1aa2ad;}.cls-15{stroke:#18aeb5;}</style></defs><title>dashed </title><g id="Layer_2" data-name="Layer 2"><g id="Layer_2-2" data-name="Layer 2"><path class="cls-1" d="M.81,526.41c170-232-32-368,170-232l202,136s258-3,183-190,7-264,130-162,268-10,268-10"/><path class="cls-2" d="M9,534.09c131.16-179,30-344.62,102.53-286.55C129.58,262,150.26,278.59,182,300,369.56,426.23,383.34,459.52,383.41,439c0-10.41,236.22-20.74,170-200.85-17-46.17-22.17-83.89-22.27-110C530.85,45.93,586,22.24,659.08,56a169.33,169.33,0,0,1,29.64,18.19C806.92,162.31,953,74.86,953.84,76"/><path class="cls-3" d="M17.16,541.77C138.24,376.54,50.46,174.3,123.82,247.19c21.21,21.08,40.06,38.58,69.34,58.29C366.31,422.05,393.88,488.63,394,447.48c.07-20.82,215-38.82,157-211.69-16.09-48-17.56-84.83-16.11-106.24,5.14-75.68,59.6-92.92,128.47-73.42,9,2.54,18.39,7.39,28.22,13.83C805,144.15,952.2,81.31,953.88,83.63"/><path class="cls-4" d="M25.34,549.45C136.33,398,61.1,160.12,136.11,246.83c24.18,28,41.39,46.12,68.23,64.19C363.06,417.88,404.41,517.73,404.63,456c.11-31.24,194.38-57.21,144-222.54-15.18-49.84-16.8-86.42-9.95-102.48-3.68-69.44,63.69-80.07,129-74.72,8.36.69,17.39,4.21,26.81,9.45,108.34,60.19,256.86,22,259.37,25.5"/><path class="cls-5" d="M33.52,557.13C134.41,419.44,71.21,146.36,148.4,246.47c27,35,42.72,53.66,67.12,70.08C359.81,413.7,415,546.84,415.24,464.55c.14-41.64,174.27-75.86,131-233.38-14.2-51.76-13.48-87.67-3.79-98.72-3.34-63.13,67-66.91,129.56-76,7.66-1.12,16.36,1,25.39,5.07C800.63,107.66,950.6,94.21,954,98.84"/><path class="cls-6" d="M41.7,564.8c90.8-123.92,39.26-432,119-318.68,29.59,42.07,44.05,61.19,66,76,129.86,87.43,198.79,253.86,199.14,151C426,421,580.52,378.36,543.91,228.86c-13.16-53.75-10.15-88.92,2.37-95-3-56.81,69.86-52.91,130.1-77.31,6.92-2.8,15.33-2.15,24,.69C798.15,89.4,949.8,100.65,954,106.45"/><path class="cls-7" d="M49.88,572.48C130.59,462.33,90.47,119.25,173,245.76c32.1,49.22,45.38,68.72,64.9,81.87,115.43,77.71,198.14,277.42,198.57,154,.22-62.48,135.55-113.77,105.08-255.08-12-55.79-6.82-90.17,8.53-91.21-2.67-50.5,73-37.95,130.65-78.61,6.19-4.37,14.26-5.32,22.56-3.68C795.39,71.25,949,107.1,954,114.05"/><path class="cls-8" d="M58.06,580.16c70.62-96.38,41.74-474.41,127.21-334.75,34.52,56.4,46.71,76.25,63.79,87.75,101,68,197.5,301,198,157,.25-72.88,116.86-133,92.09-265.93-10.78-57.86-3.5-91.41,14.69-87.44C551.5,92.6,630.68,114.4,685,56.87c5.56-5.88,13.28-9.46,21.15-8,84.92,15.2,242,64.73,247.88,72.84"/><path class="cls-9" d="M66.24,587.84C126.77,505.23,109,92.24,197.56,245.05c36.86,63.61,48,83.79,62.68,93.65,86.57,58.28,196.85,324.57,197.42,160,.29-83.3,98.59-152.23,79.11-276.78-9.38-60-.17-92.66,20.85-83.69-2-37.87,81.46-6.73,131.74-81.21,5-7.39,12-11.59,19.73-12.43,80-8.7,238.31,75.41,245,84.68"/><path class="cls-10" d="M74.41,595.52c50.45-68.85,43.72-516.8,135.44-350.83C249,315.52,259.21,336,271.41,344.23c72.15,48.57,196.22,348.15,196.86,163,.33-93.71,80.69-171.56,66.12-287.62-7.8-62.12,3.16-93.91,27-79.93-1.67-31.56,86.58,8.73,132.28-82.51,4.48-8.94,10.94-14.66,18.33-16.81C785.78,19,946.6,126.45,954.13,136.88"/><path class="cls-11" d="M82.59,603.2c40.36-55.08,44.58-538,139.55-358.86,41.38,78,50.69,98.86,60.45,105.43,57.72,38.86,195.57,371.71,196.29,166C479.24,411.65,542,324.86,532,217.3c-6-64.28,6.48-95.16,33.17-76.17-1.33-25.25,92,23.94,132.83-83.81,4-10.51,9.85-17.68,16.91-21.18C782.76,2.5,945.8,132.9,954.16,144.48"/><path class="cls-12" d="M90.77,610.88C121,569.57,136.15,51.63,234.43,244c43.58,85.29,52,106.4,59.34,111.32,43.29,29.15,194.93,395.29,195.72,169,.39-114.53,45.93-210.23,40.14-309.31-3.87-66.45,9.81-96.41,39.34-72.42-1-18.93,97.46,38.94,133.36-85.1,3.51-12.11,8.81-20.67,15.5-25.56C780.21-13.7,945,139.35,954.2,152.09"/><path class="cls-13" d="M99,618.55C119.13,591,145.1,38.06,246.72,243.62c45.75,92.53,53.35,113.93,58.23,117.22,28.86,19.43,194.29,418.86,195.14,172,.44-124.94,29-229.49,27.16-320.16C525.86,144.1,540.39,115,572.75,144c-.67-12.63,103,53.74,133.91-86.4,3-13.73,7.82-23.65,14.08-29.94,57.39-57.6,223.45,118.11,233.5,132"/><path class="cls-14" d="M107.13,626.23C117.22,612.46,154,24.47,259,243.27,306.9,343,313.69,364.73,316.13,366.38c14.43,9.71,193.64,442.42,194.57,175,.47-135.36,12.33-248.59,14.17-331,1.58-70.65,16.46-98.91,51.66-64.9C576.19,139.15,685,213.89,711,57.76c2.55-15.35,6.87-26.64,12.67-34.31C776.43-46.33,943.39,152.24,954.27,167.3"/><path class="cls-15" d="M115.31,633.91s47.57-623,156-391c50,107,56,129,56,129s193,466,194,178-18-482,59-403c0,0,114,83,135-89s226,99,239,117"/></g></g></svg>