<svg xmlns="http://www.w3.org/2000/svg" xmlns:xlink="http://www.w3.org/1999/xlink" viewBox="0 0 420.45 440.7"><defs><style>.cls-1{fill:none;}.cls-2{clip-path:url(#clip-path);}.cls-3{fill:#ff5050;}</style><clipPath id="clip-path" transform="translate(-19.64 -10.22)"><circle class="cls-1" cx="224.5" cy="224.5" r="224.5"/></clipPath></defs><title>spindles</title><g id="Layer_2" data-name="Layer 2"><g id="Layer_2-2" data-name="Layer 2"><g class="cls-2"><path class="cls-3" d="M43.19,48.45,39.45,49c-.32.05-.61-.1-.64-.34L36.27,32.54v0l-.81-11.27a5.17,5.17,0,0,0-.19-1.1l-2-7c-.07-.25.16-.51.5-.56L37.52,12c.32-.05.61.1.64.34l2.12,13.46v0L41.4,39.3a3.41,3.41,0,0,0,.1.54l2.19,8C43.76,48.14,43.53,48.4,43.19,48.45Z" transform="translate(-19.64 -10.22)"/><path class="cls-3" d="M57.23,110.52l-2.08,3.17a.56.56,0,0,1-.74.21L38.73,103.65l0,0L28.41,95.76a7.55,7.55,0,0,0-1.08-.68l-7.44-3.82a.52.52,0,0,1-.14-.78l2.08-3.16a.54.54,0,0,1,.73-.21l13.08,8.55h0L48.1,105a4.59,4.59,0,0,0,.52.33l8.47,4.44A.54.54,0,0,1,57.23,110.52Z" transform="translate(-19.64 -10.22)"/><path class="cls-3" d="M41.16,190.78l-3.78.14a.54.54,0,0,1-.6-.46l-.72-18v0L36.52,160a7.25,7.25,0,0,0-.07-1.23l-1.2-8a.52.52,0,0,1,.56-.54l3.78-.14a.54.54,0,0,1,.6.46l.6,15v0l-.39,14.94a4,4,0,0,0,0,.6l1.28,9.11A.52.52,0,0,1,41.16,190.78Z" transform="translate(-19.64 -10.22)"/><path class="cls-3" d="M48,261.87l-3.57,1.26a.58.58,0,0,1-.74-.33l-6.87-19.46,0,0L33,229.56a9.12,9.12,0,0,0-.49-1.32l-3.88-8.35a.56.56,0,0,1,.34-.76l3.57-1.25a.56.56,0,0,1,.73.32L39,234.44v0l4.77,16.42a3.51,3.51,0,0,0,.24.64l4.36,9.58A.57.57,0,0,1,48,261.87Z" transform="translate(-19.64 -10.22)"/><path class="cls-3" d="M67.11,50.74l-3.55-1.31a.55.55,0,0,1-.38-.66l6.31-17.35v0l5.24-11.63a6.2,6.2,0,0,0,.41-1.19l2-8a.54.54,0,0,1,.73-.31l3.55,1.31a.55.55,0,0,1,.38.66L76.53,26.7v0l-6.14,14a4,4,0,0,0-.2.58l-2.34,9.12A.54.54,0,0,1,67.11,50.74Z" transform="translate(-19.64 -10.22)"/><path class="cls-3" d="M85.19,121.49,81.8,123.2A.57.57,0,0,1,81,123l-9.77-19.33,0,0L65.36,89.83a10.2,10.2,0,0,0-.69-1.31l-5.11-8.19a.57.57,0,0,1,.23-.82l3.37-1.71a.58.58,0,0,1,.78.25l8.15,16.13v0l7.21,16.42a4.28,4.28,0,0,0,.33.64l5.78,9.4A.58.58,0,0,1,85.19,121.49Z" transform="translate(-19.64 -10.22)"/><path class="cls-3" d="M57.13,181.26l-1.84-3.32a.52.52,0,0,1,.11-.72l14.39-8.08h0l10.39-4.74a5,5,0,0,0,1-.57l6-4.35a.51.51,0,0,1,.7.27l1.84,3.31a.53.53,0,0,1-.1.72l-12,6.74h0l-12.39,5.83a3.24,3.24,0,0,0-.47.28l-6.86,4.9A.51.51,0,0,1,57.13,181.26Z" transform="translate(-19.64 -10.22)"/><path class="cls-3" d="M86.73,259.05l-3.19,2.06a.57.57,0,0,1-.78-.15L71.54,243.64l0,0-6.93-12.46A8.28,8.28,0,0,0,63.8,230l-5.71-7.21a.56.56,0,0,1,.16-.82l3.18-2a.56.56,0,0,1,.78.14l9.36,14.45,0,0L80,249.37a4.35,4.35,0,0,0,.38.57l6.47,8.29A.57.57,0,0,1,86.73,259.05Z" transform="translate(-19.64 -10.22)"/><path class="cls-3" d="M115.62,46.47,112.14,48a.51.51,0,0,1-.7-.16L104.87,33v0L101.2,22.41a5.32,5.32,0,0,0-.46-1L97,15.19c-.13-.22,0-.53.34-.66L100.83,13a.52.52,0,0,1,.7.16L107,25.52v0l4.53,12.64a3.12,3.12,0,0,0,.23.49L116,45.81A.5.5,0,0,1,115.62,46.47Z" transform="translate(-19.64 -10.22)"/><path class="cls-3" d="M93.85,115l-2.59-2.76a.53.53,0,0,1-.07-.73l12.32-11.67,0,0,9.14-7.36a5.77,5.77,0,0,0,.83-.81l4.87-5.82a.51.51,0,0,1,.75.09l2.59,2.76a.53.53,0,0,1,.07.73l-10.27,9.73,0,0-10.86,8.94a3.68,3.68,0,0,0-.4.39l-5.63,6.6A.51.51,0,0,1,93.85,115Z" transform="translate(-19.64 -10.22)"/><path class="cls-3" d="M93.45,186.14l-2.66-2.69a.53.53,0,0,1-.07-.75L103.42,170l0,0,9.43-8.07a6.36,6.36,0,0,0,.85-.87l5-6.25a.53.53,0,0,1,.78,0l2.66,2.69a.53.53,0,0,1,.07.75l-10.59,10.57,0,0-11.19,9.78a3.42,3.42,0,0,0-.42.43l-5.8,7.08A.53.53,0,0,1,93.45,186.14Z" transform="translate(-19.64 -10.22)"/><path class="cls-3" d="M124.75,247l-1.62,3.43a.52.52,0,0,1-.66.33L107,243.51l0,0-10.25-5.84a6,6,0,0,0-1.07-.47l-7.23-2.42a.52.52,0,0,1-.21-.73l1.62-3.43a.54.54,0,0,1,.66-.33l12.9,6h0l12.37,6.86a3.43,3.43,0,0,0,.52.23l8.24,2.84A.51.51,0,0,1,124.75,247Z" transform="translate(-19.64 -10.22)"/><path class="cls-3" d="M155.35,43.6l-2.77,2.58a.54.54,0,0,1-.74.06l-12-12.72,0,0-7.55-9.42a6.06,6.06,0,0,0-.83-.85l-5.94-5a.52.52,0,0,1,.07-.77l2.77-2.58a.53.53,0,0,1,.74-.05l10,10.61,0,0,9.17,11.19a2.59,2.59,0,0,0,.4.41l6.74,5.84A.51.51,0,0,1,155.35,43.6Z" transform="translate(-19.64 -10.22)"/><path class="cls-3" d="M150,117.62l-3.47,1.51a.53.53,0,0,1-.72-.19l-6.94-15.82v0L135,91.81a6.12,6.12,0,0,0-.5-1.07l-3.88-6.67a.51.51,0,0,1,.33-.69l3.47-1.51a.53.53,0,0,1,.72.19l5.78,13.2v0l4.84,13.47a4.9,4.9,0,0,0,.24.52l4.36,7.66A.51.51,0,0,1,150,117.62Z" transform="translate(-19.64 -10.22)"/><path class="cls-3" d="M160,184.4l-2.43,2.9a.57.57,0,0,1-.81.08l-16.17-13.57,0,0L130,163.7a8.9,8.9,0,0,0-1.12-.91l-7.74-5.35a.57.57,0,0,1-.1-.84l2.43-2.9a.57.57,0,0,1,.81-.08l13.49,11.32,0,0,12.74,12a4.7,4.7,0,0,0,.55.45l8.8,6.19A.56.56,0,0,1,160,184.4Z" transform="translate(-19.64 -10.22)"/><path class="cls-3" d="M148,260.31l-3.65,1a.56.56,0,0,1-.7-.33l-5.09-18v0L136,230.34a7.17,7.17,0,0,0-.37-1.22l-3.1-7.75a.53.53,0,0,1,.41-.68l3.64-1a.56.56,0,0,1,.7.33l4.24,15v0l3.27,15.14a3.09,3.09,0,0,0,.18.59l3.47,8.89A.54.54,0,0,1,148,260.31Z" transform="translate(-19.64 -10.22)"/><path class="cls-3" d="M183.19,48.45l-3.74.56c-.32.05-.61-.1-.64-.34l-2.54-16.13v0l-.81-11.27a5.17,5.17,0,0,0-.19-1.1l-2-7c-.07-.25.16-.51.5-.56l3.74-.56c.32-.05.61.1.64.34l2.12,13.46v0L181.4,39.3a3.41,3.41,0,0,0,.1.54l2.19,8C183.76,48.14,183.53,48.4,183.19,48.45Z" transform="translate(-19.64 -10.22)"/><path class="cls-3" d="M197.23,110.52l-2.08,3.17a.56.56,0,0,1-.74.21l-15.68-10.25,0,0-10.29-7.87a7.55,7.55,0,0,0-1.08-.68l-7.44-3.82a.52.52,0,0,1-.14-.78l2.08-3.16a.54.54,0,0,1,.73-.21l13.08,8.55h0L188.1,105a4.59,4.59,0,0,0,.52.33l8.47,4.44A.54.54,0,0,1,197.23,110.52Z" transform="translate(-19.64 -10.22)"/><path class="cls-3" d="M181.16,190.78l-3.78.14a.54.54,0,0,1-.6-.46l-.72-18v0l.46-12.45a7.25,7.25,0,0,0-.07-1.23l-1.2-8a.52.52,0,0,1,.56-.54l3.78-.14a.54.54,0,0,1,.6.46l.6,15v0l-.39,14.94a4,4,0,0,0,0,.6l1.28,9.11A.52.52,0,0,1,181.16,190.78Z" transform="translate(-19.64 -10.22)"/><path class="cls-3" d="M188,261.87l-3.57,1.26a.58.58,0,0,1-.74-.33l-6.87-19.46,0,0L173,229.56a9.12,9.12,0,0,0-.49-1.32l-3.88-8.35a.56.56,0,0,1,.34-.76l3.57-1.25a.56.56,0,0,1,.73.32L179,234.44v0l4.77,16.42a3.51,3.51,0,0,0,.24.64l4.36,9.58A.57.57,0,0,1,188,261.87Z" transform="translate(-19.64 -10.22)"/><path class="cls-3" d="M207.11,50.74l-3.55-1.31a.55.55,0,0,1-.38-.66l6.31-17.35v0l5.24-11.63a6.2,6.2,0,0,0,.41-1.19l2-8a.54.54,0,0,1,.73-.31l3.55,1.31a.55.55,0,0,1,.38.66L216.53,26.7v0l-6.14,14a4,4,0,0,0-.2.58l-2.34,9.12A.54.54,0,0,1,207.11,50.74Z" transform="translate(-19.64 -10.22)"/><path class="cls-3" d="M225.19,121.49l-3.39,1.71A.57.57,0,0,1,221,123l-9.77-19.33,0,0-5.88-13.76a10.2,10.2,0,0,0-.69-1.31l-5.11-8.19a.57.57,0,0,1,.23-.82l3.37-1.71a.58.58,0,0,1,.78.25l8.15,16.13v0l7.21,16.42a4.28,4.28,0,0,0,.33.64l5.78,9.4A.58.58,0,0,1,225.19,121.49Z" transform="translate(-19.64 -10.22)"/><path class="cls-3" d="M197.13,181.26l-1.84-3.32a.52.52,0,0,1,.11-.72l14.39-8.08h0l10.39-4.74a5,5,0,0,0,1-.57l6-4.35a.51.51,0,0,1,.7.27l1.84,3.31a.53.53,0,0,1-.1.72l-12,6.74h0l-12.39,5.83a3.24,3.24,0,0,0-.47.28l-6.86,4.9A.51.51,0,0,1,197.13,181.26Z" transform="translate(-19.64 -10.22)"/><path class="cls-3" d="M226.73,259.05l-3.19,2.06a.57.57,0,0,1-.78-.15l-11.22-17.32,0,0-6.93-12.46a8.28,8.28,0,0,0-.79-1.17l-5.71-7.21a.56.56,0,0,1,.16-.82l3.18-2a.56.56,0,0,1,.78.14l9.36,14.45,0,0L220,249.37a4.35,4.35,0,0,0,.38.57l6.47,8.29A.57.57,0,0,1,226.73,259.05Z" transform="translate(-19.64 -10.22)"/><path class="cls-3" d="M255.62,46.47,252.14,48a.51.51,0,0,1-.7-.16L244.87,33v0L241.2,22.41a5.32,5.32,0,0,0-.46-1L237,15.19c-.13-.22,0-.53.34-.66L240.83,13a.52.52,0,0,1,.7.16L247,25.52v0l4.53,12.64a3.12,3.12,0,0,0,.23.49L256,45.81A.5.5,0,0,1,255.62,46.47Z" transform="translate(-19.64 -10.22)"/><path class="cls-3" d="M233.85,115l-2.59-2.76a.53.53,0,0,1-.07-.73l12.32-11.67,0,0,9.14-7.36a5.77,5.77,0,0,0,.83-.81l4.87-5.82a.51.51,0,0,1,.75.09l2.59,2.76a.53.53,0,0,1,.07.73l-10.27,9.73,0,0-10.86,8.94a3.68,3.68,0,0,0-.4.39l-5.63,6.6A.51.51,0,0,1,233.85,115Z" transform="translate(-19.64 -10.22)"/><path class="cls-3" d="M233.45,186.14l-2.66-2.69a.53.53,0,0,1-.07-.75L243.42,170l0,0,9.43-8.07a6.36,6.36,0,0,0,.85-.87l5-6.25a.53.53,0,0,1,.78,0l2.66,2.69a.53.53,0,0,1,.07.75l-10.59,10.57,0,0-11.19,9.78a3.42,3.42,0,0,0-.42.43l-5.8,7.08A.53.53,0,0,1,233.45,186.14Z" transform="translate(-19.64 -10.22)"/><path class="cls-3" d="M264.75,247l-1.62,3.43a.52.52,0,0,1-.66.33L247,243.51l0,0-10.25-5.84a6,6,0,0,0-1.07-.47l-7.23-2.42a.52.52,0,0,1-.21-.73l1.62-3.43a.54.54,0,0,1,.66-.33l12.9,6h0l12.37,6.86a3.43,3.43,0,0,0,.52.23l8.24,2.84A.51.51,0,0,1,264.75,247Z" transform="translate(-19.64 -10.22)"/><path class="cls-3" d="M295.35,43.6l-2.77,2.58a.54.54,0,0,1-.74.06L279.89,33.52l0,0-7.55-9.42a6.06,6.06,0,0,0-.83-.85l-5.94-5a.52.52,0,0,1,.07-.77l2.77-2.58a.53.53,0,0,1,.74-.05l10,10.61,0,0,9.17,11.19a2.59,2.59,0,0,0,.4.41l6.74,5.84A.51.51,0,0,1,295.35,43.6Z" transform="translate(-19.64 -10.22)"/><path class="cls-3" d="M290,117.62l-3.47,1.51a.53.53,0,0,1-.72-.19l-6.94-15.82v0L275,91.81a6.12,6.12,0,0,0-.5-1.07l-3.88-6.67a.51.51,0,0,1,.33-.69l3.47-1.51a.53.53,0,0,1,.72.19l5.78,13.2v0l4.84,13.47a4.9,4.9,0,0,0,.24.52l4.36,7.66A.51.51,0,0,1,290,117.62Z" transform="translate(-19.64 -10.22)"/><path class="cls-3" d="M300,184.4l-2.43,2.9a.57.57,0,0,1-.81.08l-16.17-13.57,0,0L270,163.7a8.9,8.9,0,0,0-1.12-.91l-7.74-5.35a.57.57,0,0,1-.1-.84l2.43-2.9a.57.57,0,0,1,.81-.08l13.49,11.32,0,0,12.74,12a4.7,4.7,0,0,0,.55.45l8.8,6.19A.56.56,0,0,1,300,184.4Z" transform="translate(-19.64 -10.22)"/><path class="cls-3" d="M288,260.31l-3.65,1a.56.56,0,0,1-.7-.33l-5.09-18v0L276,230.34a7.17,7.17,0,0,0-.37-1.22l-3.1-7.75a.53.53,0,0,1,.41-.68l3.64-1a.56.56,0,0,1,.7.33l4.24,15v0l3.27,15.14a3.09,3.09,0,0,0,.18.59l3.47,8.89A.54.54,0,0,1,288,260.31Z" transform="translate(-19.64 -10.22)"/><path class="cls-3" d="M323.19,48.45l-3.74.56c-.32.05-.61-.1-.64-.34l-2.54-16.13v0l-.81-11.27a5.17,5.17,0,0,0-.19-1.1l-2-7c-.07-.25.16-.51.5-.56l3.74-.56c.32-.05.61.1.64.34l2.12,13.46v0L321.4,39.3a3.41,3.41,0,0,0,.1.54l2.19,8C323.76,48.14,323.53,48.4,323.19,48.45Z" transform="translate(-19.64 -10.22)"/><path class="cls-3" d="M337.23,110.52l-2.08,3.17a.56.56,0,0,1-.74.21l-15.68-10.25,0,0-10.29-7.87a7.55,7.55,0,0,0-1.08-.68l-7.44-3.82a.52.52,0,0,1-.14-.78l2.08-3.16a.54.54,0,0,1,.73-.21l13.08,8.55h0L328.1,105a4.59,4.59,0,0,0,.52.33l8.47,4.44A.54.54,0,0,1,337.23,110.52Z" transform="translate(-19.64 -10.22)"/><path class="cls-3" d="M321.16,190.78l-3.78.14a.54.54,0,0,1-.6-.46l-.72-18v0l.46-12.45a7.25,7.25,0,0,0-.07-1.23l-1.2-8a.52.52,0,0,1,.56-.54l3.78-.14a.54.54,0,0,1,.6.46l.6,15v0l-.39,14.94a4,4,0,0,0,0,.6l1.28,9.11A.52.52,0,0,1,321.16,190.78Z" transform="translate(-19.64 -10.22)"/><path class="cls-3" d="M328,261.87l-3.57,1.26a.58.58,0,0,1-.74-.33l-6.87-19.46,0,0L313,229.56a9.12,9.12,0,0,0-.49-1.32l-3.88-8.35a.56.56,0,0,1,.34-.76l3.57-1.25a.56.56,0,0,1,.73.32L319,234.44v0l4.77,16.42a3.51,3.51,0,0,0,.24.64l4.36,9.58A.57.57,0,0,1,328,261.87Z" transform="translate(-19.64 -10.22)"/><path class="cls-3" d="M347.11,50.74l-3.55-1.31a.55.55,0,0,1-.38-.66l6.31-17.35v0l5.24-11.63a6.2,6.2,0,0,0,.41-1.19l2-8a.54.54,0,0,1,.73-.31l3.55,1.31a.55.55,0,0,1,.38.66L356.53,26.7v0l-6.14,14a4,4,0,0,0-.2.58l-2.34,9.12A.54.54,0,0,1,347.11,50.74Z" transform="translate(-19.64 -10.22)"/><path class="cls-3" d="M365.19,121.49l-3.39,1.71A.57.57,0,0,1,361,123l-9.77-19.33,0,0-5.88-13.76a10.2,10.2,0,0,0-.69-1.31l-5.11-8.19a.57.57,0,0,1,.23-.82l3.37-1.71a.58.58,0,0,1,.78.25l8.15,16.13v0l7.21,16.42a4.28,4.28,0,0,0,.33.64l5.78,9.4A.58.58,0,0,1,365.19,121.49Z" transform="translate(-19.64 -10.22)"/><path class="cls-3" d="M337.13,181.26l-1.84-3.32a.52.52,0,0,1,.11-.72l14.39-8.08h0l10.39-4.74a5,5,0,0,0,1-.57l6-4.35a.51.51,0,0,1,.7.27l1.84,3.31a.53.53,0,0,1-.1.72l-12,6.74h0l-12.39,5.83a3.24,3.24,0,0,0-.47.28l-6.86,4.9A.51.51,0,0,1,337.13,181.26Z" transform="translate(-19.64 -10.22)"/><path class="cls-3" d="M366.73,259.05l-3.19,2.06a.57.57,0,0,1-.78-.15l-11.22-17.32,0,0-6.93-12.46a8.28,8.28,0,0,0-.79-1.17l-5.71-7.21a.56.56,0,0,1,.16-.82l3.18-2a.56.56,0,0,1,.78.14l9.36,14.45,0,0L360,249.37a4.35,4.35,0,0,0,.38.57l6.47,8.29A.57.57,0,0,1,366.73,259.05Z" transform="translate(-19.64 -10.22)"/><path class="cls-3" d="M395.62,46.47,392.14,48a.51.51,0,0,1-.7-.16L384.87,33v0L381.2,22.41a5.32,5.32,0,0,0-.46-1L377,15.19c-.13-.22,0-.53.34-.66L380.83,13a.52.52,0,0,1,.7.16L387,25.52v0l4.53,12.64a3.12,3.12,0,0,0,.23.49L396,45.81A.5.5,0,0,1,395.62,46.47Z" transform="translate(-19.64 -10.22)"/><path class="cls-3" d="M373.85,115l-2.59-2.76a.53.53,0,0,1-.07-.73l12.32-11.67,0,0,9.14-7.36a5.77,5.77,0,0,0,.83-.81l4.87-5.82a.51.51,0,0,1,.75.09l2.59,2.76a.53.53,0,0,1,.07.73l-10.27,9.73,0,0-10.86,8.94a3.68,3.68,0,0,0-.4.39l-5.63,6.6A.51.51,0,0,1,373.85,115Z" transform="translate(-19.64 -10.22)"/><path class="cls-3" d="M373.45,186.14l-2.66-2.69a.53.53,0,0,1-.07-.75L383.42,170l0,0,9.43-8.07a6.36,6.36,0,0,0,.85-.87l5-6.25a.53.53,0,0,1,.78,0l2.66,2.69a.53.53,0,0,1,.07.75l-10.59,10.57,0,0-11.19,9.78a3.42,3.42,0,0,0-.42.43l-5.8,7.08A.53.53,0,0,1,373.45,186.14Z" transform="translate(-19.64 -10.22)"/><path class="cls-3" d="M404.75,247l-1.62,3.43a.52.52,0,0,1-.66.33L387,243.51l0,0-10.25-5.84a6,6,0,0,0-1.07-.47l-7.23-2.42a.52.52,0,0,1-.21-.73l1.62-3.43a.54.54,0,0,1,.66-.33l12.9,6h0l12.37,6.86a3.43,3.43,0,0,0,.52.23l8.24,2.84A.51.51,0,0,1,404.75,247Z" transform="translate(-19.64 -10.22)"/><path class="cls-3" d="M435.35,43.6l-2.77,2.58a.54.54,0,0,1-.74.06L419.89,33.52l0,0-7.55-9.42a6.06,6.06,0,0,0-.83-.85l-5.94-5a.52.52,0,0,1,.07-.77l2.77-2.58a.53.53,0,0,1,.74-.05l10,10.61,0,0,9.17,11.19a2.59,2.59,0,0,0,.4.41l6.74,5.84A.51.51,0,0,1,435.35,43.6Z" transform="translate(-19.64 -10.22)"/><path class="cls-3" d="M430,117.62l-3.47,1.51a.53.53,0,0,1-.72-.19l-6.94-15.82v0L415,91.81a6.12,6.12,0,0,0-.5-1.07l-3.88-6.67a.51.51,0,0,1,.33-.69l3.47-1.51a.53.53,0,0,1,.72.19l5.78,13.2v0l4.84,13.47a4.9,4.9,0,0,0,.24.52l4.36,7.66A.51.51,0,0,1,430,117.62Z" transform="translate(-19.64 -10.22)"/><path class="cls-3" d="M440,184.4l-2.43,2.9a.57.57,0,0,1-.81.08l-16.17-13.57,0,0L410,163.7a8.9,8.9,0,0,0-1.12-.91l-7.74-5.35a.57.57,0,0,1-.1-.84l2.43-2.9a.57.57,0,0,1,.81-.08l13.49,11.32,0,0,12.74,12a4.7,4.7,0,0,0,.55.45l8.8,6.19A.56.56,0,0,1,440,184.4Z" transform="translate(-19.64 -10.22)"/><path class="cls-3" d="M428,260.31l-3.65,1a.56.56,0,0,1-.7-.33l-5.09-18v0L416,230.34a7.17,7.17,0,0,0-.37-1.22l-3.1-7.75a.53.53,0,0,1,.41-.68l3.64-1a.56.56,0,0,1,.7.33l4.24,15v0l3.27,15.14a3.09,3.09,0,0,0,.18.59l3.47,8.89A.54.54,0,0,1,428,260.31Z" transform="translate(-19.64 -10.22)"/><path class="cls-3" d="M43.19,308.45l-3.74.56c-.32.05-.61-.1-.64-.34l-2.54-16.13v0l-.81-11.27a5.17,5.17,0,0,0-.19-1.1l-2-7c-.07-.25.16-.51.5-.56l3.74-.56c.32-.05.61.1.64.34l2.12,13.46v0L41.4,299.3a3.41,3.41,0,0,0,.1.54l2.19,8.05C43.76,308.14,43.53,308.4,43.19,308.45Z" transform="translate(-19.64 -10.22)"/><path class="cls-3" d="M57.23,370.52l-2.08,3.17a.56.56,0,0,1-.74.21L38.73,363.65l0,0-10.29-7.87a7.55,7.55,0,0,0-1.08-.68l-7.44-3.82a.52.52,0,0,1-.14-.78l2.08-3.16a.54.54,0,0,1,.73-.21l13.08,8.55h0L48.1,365a4.59,4.59,0,0,0,.52.33l8.47,4.44A.54.54,0,0,1,57.23,370.52Z" transform="translate(-19.64 -10.22)"/><path class="cls-3" d="M41.16,450.78l-3.78.14a.54.54,0,0,1-.6-.46l-.72-18v0L36.52,420a7.25,7.25,0,0,0-.07-1.23l-1.2-8a.52.52,0,0,1,.56-.54l3.78-.14a.54.54,0,0,1,.6.46l.6,15v0l-.39,14.94a4,4,0,0,0,0,.6l1.28,9.11A.52.52,0,0,1,41.16,450.78Z" transform="translate(-19.64 -10.22)"/><path class="cls-3" d="M67.11,310.74l-3.55-1.31a.55.55,0,0,1-.38-.66l6.31-17.35v0l5.24-11.63a6.2,6.2,0,0,0,.41-1.19l2-8a.54.54,0,0,1,.73-.31l3.55,1.31a.55.55,0,0,1,.38.66L76.53,286.7v0l-6.14,14a4,4,0,0,0-.2.58l-2.34,9.12A.54.54,0,0,1,67.11,310.74Z" transform="translate(-19.64 -10.22)"/><path class="cls-3" d="M85.19,381.49,81.8,383.2A.57.57,0,0,1,81,383l-9.77-19.33,0,0-5.88-13.76a10.2,10.2,0,0,0-.69-1.31l-5.11-8.19a.57.57,0,0,1,.23-.82l3.37-1.71a.58.58,0,0,1,.78.25l8.15,16.13v0l7.21,16.42a4.28,4.28,0,0,0,.33.64l5.78,9.4A.58.58,0,0,1,85.19,381.49Z" transform="translate(-19.64 -10.22)"/><path class="cls-3" d="M57.13,441.26l-1.84-3.32a.52.52,0,0,1,.11-.72l14.39-8.08h0l10.39-4.74a5,5,0,0,0,1-.57l6-4.35a.51.51,0,0,1,.7.27l1.84,3.31a.53.53,0,0,1-.1.72l-12,6.74h0l-12.39,5.83a3.24,3.24,0,0,0-.47.28l-6.86,4.9A.51.51,0,0,1,57.13,441.26Z" transform="translate(-19.64 -10.22)"/><path class="cls-3" d="M115.62,306.47,112.14,308a.51.51,0,0,1-.7-.16L104.87,293v0l-3.66-10.59a5.32,5.32,0,0,0-.46-1L97,275.19c-.13-.22,0-.53.34-.66l3.47-1.52a.52.52,0,0,1,.7.16L107,285.52v0l4.53,12.64a3.12,3.12,0,0,0,.23.49l4.17,7.14A.5.5,0,0,1,115.62,306.47Z" transform="translate(-19.64 -10.22)"/><path class="cls-3" d="M93.85,375l-2.59-2.76a.53.53,0,0,1-.07-.73l12.32-11.67,0,0,9.14-7.36a5.77,5.77,0,0,0,.83-.81l4.87-5.82a.51.51,0,0,1,.75.09l2.59,2.76a.53.53,0,0,1,.07.73l-10.27,9.73,0,0-10.86,8.94a3.68,3.68,0,0,0-.4.39l-5.63,6.6A.51.51,0,0,1,93.85,375Z" transform="translate(-19.64 -10.22)"/><path class="cls-3" d="M93.45,446.14l-2.66-2.69a.53.53,0,0,1-.07-.75L103.42,430l0,0,9.43-8.07a6.36,6.36,0,0,0,.85-.87l5-6.25a.53.53,0,0,1,.78,0l2.66,2.69a.53.53,0,0,1,.07.75l-10.59,10.57,0,0-11.19,9.78a3.42,3.42,0,0,0-.42.43l-5.8,7.08A.53.53,0,0,1,93.45,446.14Z" transform="translate(-19.64 -10.22)"/><path class="cls-3" d="M155.35,303.6l-2.77,2.58a.54.54,0,0,1-.74.06l-12-12.72,0,0-7.55-9.42a6.06,6.06,0,0,0-.83-.85l-5.94-5.05a.52.52,0,0,1,.07-.77l2.77-2.58a.53.53,0,0,1,.74-.05l10,10.61,0,0,9.17,11.19a2.59,2.59,0,0,0,.4.41l6.74,5.84A.51.51,0,0,1,155.35,303.6Z" transform="translate(-19.64 -10.22)"/><path class="cls-3" d="M150,377.62l-3.47,1.51a.53.53,0,0,1-.72-.19l-6.94-15.82v0L135,351.81a6.12,6.12,0,0,0-.5-1.07l-3.88-6.67a.51.51,0,0,1,.33-.69l3.47-1.51a.53.53,0,0,1,.72.19l5.78,13.2v0l4.84,13.47a4.9,4.9,0,0,0,.24.52l4.36,7.66A.51.51,0,0,1,150,377.62Z" transform="translate(-19.64 -10.22)"/><path class="cls-3" d="M160,444.4l-2.43,2.9a.57.57,0,0,1-.81.08l-16.17-13.57,0,0L130,423.7a8.9,8.9,0,0,0-1.12-.91l-7.74-5.35a.57.57,0,0,1-.1-.84l2.43-2.9a.57.57,0,0,1,.81-.08l13.49,11.32,0,0,12.74,12a4.7,4.7,0,0,0,.55.45l8.8,6.19A.56.56,0,0,1,160,444.4Z" transform="translate(-19.64 -10.22)"/><path class="cls-3" d="M183.19,308.45l-3.74.56c-.32.05-.61-.1-.64-.34l-2.54-16.13v0l-.81-11.27a5.17,5.17,0,0,0-.19-1.1l-2-7c-.07-.25.16-.51.5-.56l3.74-.56c.32-.05.61.1.64.34l2.12,13.46v0l1.12,13.49a3.41,3.41,0,0,0,.1.54l2.19,8.05C183.76,308.14,183.53,308.4,183.19,308.45Z" transform="translate(-19.64 -10.22)"/><path class="cls-3" d="M197.23,370.52l-2.08,3.17a.56.56,0,0,1-.74.21l-15.68-10.25,0,0-10.29-7.87a7.55,7.55,0,0,0-1.08-.68l-7.44-3.82a.52.52,0,0,1-.14-.78l2.08-3.16a.54.54,0,0,1,.73-.21l13.08,8.55h0L188.1,365a4.59,4.59,0,0,0,.52.33l8.47,4.44A.54.54,0,0,1,197.23,370.52Z" transform="translate(-19.64 -10.22)"/><path class="cls-3" d="M181.16,450.78l-3.78.14a.54.54,0,0,1-.6-.46l-.72-18v0l.46-12.45a7.25,7.25,0,0,0-.07-1.23l-1.2-8a.52.52,0,0,1,.56-.54l3.78-.14a.54.54,0,0,1,.6.46l.6,15v0l-.39,14.94a4,4,0,0,0,0,.6l1.28,9.11A.52.52,0,0,1,181.16,450.78Z" transform="translate(-19.64 -10.22)"/><path class="cls-3" d="M207.11,310.74l-3.55-1.31a.55.55,0,0,1-.38-.66l6.31-17.35v0l5.24-11.63a6.2,6.2,0,0,0,.41-1.19l2-8a.54.54,0,0,1,.73-.31l3.55,1.31a.55.55,0,0,1,.38.66l-5.26,14.47v0l-6.14,14a4,4,0,0,0-.2.58l-2.34,9.12A.54.54,0,0,1,207.11,310.74Z" transform="translate(-19.64 -10.22)"/><path class="cls-3" d="M225.19,381.49l-3.39,1.71A.57.57,0,0,1,221,383l-9.77-19.33,0,0-5.88-13.76a10.2,10.2,0,0,0-.69-1.31l-5.11-8.19a.57.57,0,0,1,.23-.82l3.37-1.71a.58.58,0,0,1,.78.25l8.15,16.13v0l7.21,16.42a4.28,4.28,0,0,0,.33.64l5.78,9.4A.58.58,0,0,1,225.19,381.49Z" transform="translate(-19.64 -10.22)"/><path class="cls-3" d="M197.13,441.26l-1.84-3.32a.52.52,0,0,1,.11-.72l14.39-8.08h0l10.39-4.74a5,5,0,0,0,1-.57l6-4.35a.51.51,0,0,1,.7.27l1.84,3.31a.53.53,0,0,1-.1.72l-12,6.74h0l-12.39,5.83a3.24,3.24,0,0,0-.47.28l-6.86,4.9A.51.51,0,0,1,197.13,441.26Z" transform="translate(-19.64 -10.22)"/><path class="cls-3" d="M255.62,306.47,252.14,308a.51.51,0,0,1-.7-.16L244.87,293v0l-3.66-10.59a5.32,5.32,0,0,0-.46-1L237,275.19c-.13-.22,0-.53.34-.66l3.47-1.52a.52.52,0,0,1,.7.16L247,285.52v0l4.53,12.64a3.12,3.12,0,0,0,.23.49l4.17,7.14A.5.5,0,0,1,255.62,306.47Z" transform="translate(-19.64 -10.22)"/><path class="cls-3" d="M233.85,375l-2.59-2.76a.53.53,0,0,1-.07-.73l12.32-11.67,0,0,9.14-7.36a5.77,5.77,0,0,0,.83-.81l4.87-5.82a.51.51,0,0,1,.75.09l2.59,2.76a.53.53,0,0,1,.07.73l-10.27,9.73,0,0-10.86,8.94a3.68,3.68,0,0,0-.4.39l-5.63,6.6A.51.51,0,0,1,233.85,375Z" transform="translate(-19.64 -10.22)"/><path class="cls-3" d="M233.45,446.14l-2.66-2.69a.53.53,0,0,1-.07-.75L243.42,430l0,0,9.43-8.07a6.36,6.36,0,0,0,.85-.87l5-6.25a.53.53,0,0,1,.78,0l2.66,2.69a.53.53,0,0,1,.07.75l-10.59,10.57,0,0-11.19,9.78a3.42,3.42,0,0,0-.42.43l-5.8,7.08A.53.53,0,0,1,233.45,446.14Z" transform="translate(-19.64 -10.22)"/><path class="cls-3" d="M295.35,303.6l-2.77,2.58a.54.54,0,0,1-.74.06l-11.95-12.72,0,0-7.55-9.42a6.06,6.06,0,0,0-.83-.85l-5.94-5.05a.52.52,0,0,1,.07-.77l2.77-2.58a.53.53,0,0,1,.74-.05l10,10.61,0,0,9.17,11.19a2.59,2.59,0,0,0,.4.41l6.74,5.84A.51.51,0,0,1,295.35,303.6Z" transform="translate(-19.64 -10.22)"/><path class="cls-3" d="M290,377.62l-3.47,1.51a.53.53,0,0,1-.72-.19l-6.94-15.82v0L275,351.81a6.12,6.12,0,0,0-.5-1.07l-3.88-6.67a.51.51,0,0,1,.33-.69l3.47-1.51a.53.53,0,0,1,.72.19l5.78,13.2v0l4.84,13.47a4.9,4.9,0,0,0,.24.52l4.36,7.66A.51.51,0,0,1,290,377.62Z" transform="translate(-19.64 -10.22)"/><path class="cls-3" d="M300,444.4l-2.43,2.9a.57.57,0,0,1-.81.08l-16.17-13.57,0,0L270,423.7a8.9,8.9,0,0,0-1.12-.91l-7.74-5.35a.57.57,0,0,1-.1-.84l2.43-2.9a.57.57,0,0,1,.81-.08l13.49,11.32,0,0,12.74,12a4.7,4.7,0,0,0,.55.45l8.8,6.19A.56.56,0,0,1,300,444.4Z" transform="translate(-19.64 -10.22)"/><path class="cls-3" d="M323.19,308.45l-3.74.56c-.32.05-.61-.1-.64-.34l-2.54-16.13v0l-.81-11.27a5.17,5.17,0,0,0-.19-1.1l-2-7c-.07-.25.16-.51.5-.56l3.74-.56c.32-.05.61.1.64.34l2.12,13.46v0l1.12,13.49a3.41,3.41,0,0,0,.1.54l2.19,8.05C323.76,308.14,323.53,308.4,323.19,308.45Z" transform="translate(-19.64 -10.22)"/><path class="cls-3" d="M337.23,370.52l-2.08,3.17a.56.56,0,0,1-.74.21l-15.68-10.25,0,0-10.29-7.87a7.55,7.55,0,0,0-1.08-.68l-7.44-3.82a.52.52,0,0,1-.14-.78l2.08-3.16a.54.54,0,0,1,.73-.21l13.08,8.55h0L328.1,365a4.59,4.59,0,0,0,.52.33l8.47,4.44A.54.54,0,0,1,337.23,370.52Z" transform="translate(-19.64 -10.22)"/><path class="cls-3" d="M321.16,450.78l-3.78.14a.54.54,0,0,1-.6-.46l-.72-18v0l.46-12.45a7.25,7.25,0,0,0-.07-1.23l-1.2-8a.52.52,0,0,1,.56-.54l3.78-.14a.54.54,0,0,1,.6.46l.6,15v0l-.39,14.94a4,4,0,0,0,0,.6l1.28,9.11A.52.52,0,0,1,321.16,450.78Z" transform="translate(-19.64 -10.22)"/><path class="cls-3" d="M347.11,310.74l-3.55-1.31a.55.55,0,0,1-.38-.66l6.31-17.35v0l5.24-11.63a6.2,6.2,0,0,0,.41-1.19l2-8a.54.54,0,0,1,.73-.31l3.55,1.31a.55.55,0,0,1,.38.66l-5.26,14.47v0l-6.14,14a4,4,0,0,0-.2.58l-2.34,9.12A.54.54,0,0,1,347.11,310.74Z" transform="translate(-19.64 -10.22)"/><path class="cls-3" d="M365.19,381.49l-3.39,1.71A.57.57,0,0,1,361,383l-9.77-19.33,0,0-5.88-13.76a10.2,10.2,0,0,0-.69-1.31l-5.11-8.19a.57.57,0,0,1,.23-.82l3.37-1.71a.58.58,0,0,1,.78.25l8.15,16.13v0l7.21,16.42a4.28,4.28,0,0,0,.33.64l5.78,9.4A.58.58,0,0,1,365.19,381.49Z" transform="translate(-19.64 -10.22)"/><path class="cls-3" d="M337.13,441.26l-1.84-3.32a.52.52,0,0,1,.11-.72l14.39-8.08h0l10.39-4.74a5,5,0,0,0,1-.57l6-4.35a.51.51,0,0,1,.7.27l1.84,3.31a.53.53,0,0,1-.1.72l-12,6.74h0l-12.39,5.83a3.24,3.24,0,0,0-.47.28l-6.86,4.9A.51.51,0,0,1,337.13,441.26Z" transform="translate(-19.64 -10.22)"/><path class="cls-3" d="M395.62,306.47,392.14,308a.51.51,0,0,1-.7-.16L384.87,293v0l-3.66-10.59a5.32,5.32,0,0,0-.46-1L377,275.19c-.13-.22,0-.53.34-.66l3.47-1.52a.52.52,0,0,1,.7.16L387,285.52v0l4.53,12.64a3.12,3.12,0,0,0,.23.49l4.17,7.14A.5.5,0,0,1,395.62,306.47Z" transform="translate(-19.64 -10.22)"/><path class="cls-3" d="M373.85,375l-2.59-2.76a.53.53,0,0,1-.07-.73l12.32-11.67,0,0,9.14-7.36a5.77,5.77,0,0,0,.83-.81l4.87-5.82a.51.51,0,0,1,.75.09l2.59,2.76a.53.53,0,0,1,.07.73l-10.27,9.73,0,0-10.86,8.94a3.68,3.68,0,0,0-.4.39l-5.63,6.6A.51.51,0,0,1,373.85,375Z" transform="translate(-19.64 -10.22)"/><path class="cls-3" d="M373.45,446.14l-2.66-2.69a.53.53,0,0,1-.07-.75L383.42,430l0,0,9.43-8.07a6.36,6.36,0,0,0,.85-.87l5-6.25a.53.53,0,0,1,.78,0l2.66,2.69a.53.53,0,0,1,.07.75l-10.59,10.57,0,0-11.19,9.78a3.42,3.42,0,0,0-.42.43l-5.8,7.08A.53.53,0,0,1,373.45,446.14Z" transform="translate(-19.64 -10.22)"/><path class="cls-3" d="M435.35,303.6l-2.77,2.58a.54.54,0,0,1-.74.06l-11.95-12.72,0,0-7.55-9.42a6.06,6.06,0,0,0-.83-.85l-5.94-5.05a.52.52,0,0,1,.07-.77l2.77-2.58a.53.53,0,0,1,.74-.05l10,10.61,0,0,9.17,11.19a2.59,2.59,0,0,0,.4.41l6.74,5.84A.51.51,0,0,1,435.35,303.6Z" transform="translate(-19.64 -10.22)"/><path class="cls-3" d="M430,377.62l-3.47,1.51a.53.53,0,0,1-.72-.19l-6.94-15.82v0L415,351.81a6.12,6.12,0,0,0-.5-1.07l-3.88-6.67a.51.51,0,0,1,.33-.69l3.47-1.51a.53.53,0,0,1,.72.19l5.78,13.2v0l4.84,13.47a4.9,4.9,0,0,0,.24.52l4.36,7.66A.51.51,0,0,1,430,377.62Z" transform="translate(-19.64 -10.22)"/><path class="cls-3" d="M440,444.4l-2.43,2.9a.57.57,0,0,1-.81.08l-16.17-13.57,0,0L410,423.7a8.9,8.9,0,0,0-1.12-.91l-7.74-5.35a.57.57,0,0,1-.1-.84l2.43-2.9a.57.57,0,0,1,.81-.08l13.49,11.32,0,0,12.74,12a4.7,4.7,0,0,0,.55.45l8.8,6.19A.56.56,0,0,1,440,444.4Z" transform="translate(-19.64 -10.22)"/></g></g></g></svg>