<svg xmlns="http://www.w3.org/2000/svg" xmlns:xlink="http://www.w3.org/1999/xlink" viewBox="0 0 1548.49 1063.34"><defs><style>.cls-1,.cls-10,.cls-11,.cls-12,.cls-5,.cls-6,.cls-7,.cls-8,.cls-9{fill:none;}.cls-2{clip-path:url(#clip-path);}.cls-3{clip-path:url(#clip-path-2);}.cls-4{fill:#1c1921;}.cls-5{stroke:#0f5584;}.cls-10,.cls-11,.cls-12,.cls-5,.cls-6,.cls-7,.cls-8,.cls-9{stroke-miterlimit:10;}.cls-6{stroke:#2c4d93;}.cls-7{stroke:#4945a2;}.cls-8{stroke:#663db1;}.cls-9{stroke:#8235c0;}.cls-10{stroke:#9f2dcf;}.cls-11{stroke:#bc25de;}.cls-12{stroke:#d91ded;}</style><clipPath id="clip-path"><rect class="cls-1" x="8.5" y="0.5" width="1270" height="1026"/></clipPath><clipPath id="clip-path-2"><rect class="cls-1" x="8.5" y="0.5" width="1278" height="1026"/></clipPath></defs><title>swirl-bg</title><g id="Layer_2" data-name="Layer 2"><g id="Layer_2-2" data-name="Layer 2"><g class="cls-2"><g class="cls-3"><rect class="cls-4" width="1278" height="1026"/><path class="cls-5" d="M1035,1063S728.89,731.91,854.28,737.23c0,0,116.27,31.91,188.46,136,0,0,348.26,232.75,134.51-39.51,0,0-380.46-338.72-112.24-406.86,16.18-4.11,156.47,82.83,175,88.12,56,16,19.33,22.17,152,180,0,0,196.37,140.26,136.34-41.37,0,0-150.47-272,14.44-316.13"/><path class="cls-6" d="M1009.83,1057.71S741.16,697.49,870.56,737.77c0,0,108.64,33.4,170.07,134.86,7.37,12.16,313.93,223.55,133.58-27.17,0,0-116.88-129.22-162.76-236.53-26.29-61.48-27-134.1,70.79-159.27,17.25-4.51,142.86,71.46,167.9,79.34,47.62,15,31.45,23.72,152.74,157,4.94-1.31,145.06,95.85,124.8-17.39-1.69-9.41-5.08-22-9.66-37.46-2.56-8.66-135.26-261.15,25.52-274.64"/><path class="cls-7" d="M984.67,1052.43S753.42,663.08,886.85,738.31c0,0,94.95,38.82,151.67,133.69,14.6,24.42,279.61,214.36,132.65-14.81,0,0-90.14-130.59-133.35-230.8-22.07-51.17-30.45-129.62,61.64-154,18.35-4.84,129.24,60.09,160.83,70.57,39.48,13.1,43.56,25.26,153.48,134,9.88-2.62,125.51,74.36,103.25-32.78-1.62-7.79-4.81-20.13-9.31-35.55-5.07-17.32-120.07-250.25,36.59-233.14"/><path class="cls-8" d="M959.5,1047.14S765.69,628.66,903.13,738.85c0,0,81.26,44.24,133.29,132.52,21.66,36.77,245.27,205.17,131.71-2.46,0,0-63.39-131.95-104-225.07-17.79-40.86-33.94-125.37,52.51-148.63,19.42-5.23,115.59,48.71,153.74,61.79,31.48,10.79,55.68,26.81,154.22,111,14.82-3.93,106,53.14,81.72-48.17-1.49-6.2-4.54-18.25-9-33.64-7.5-26-104.87-239.35,47.67-191.65"/><path class="cls-9" d="M934.34,1041.86S778,594.25,919.42,739.4c0,0,67.55,49.63,114.89,131.35,28.52,49.23,211,196,130.78,9.89,0,0-36.65-133.31-74.54-219.34-13.47-30.6-37.45-121.17,43.36-143.31,20.5-5.62,101.94,37.33,146.66,53,23.56,8.26,67.8,28.35,155,88,19.76-5.25,86.62,32.23,60.17-63.57-1.27-4.6-4.27-16.35-8.64-31.72-9.86-34.74-89.66-228.45,58.75-150.17"/><path class="cls-10" d="M909.17,1036.57S790.23,559.83,935.7,739.94c0,0,53.84,55,96.5,130.18,35.1,61.86,176.62,186.78,129.85,22.24,0,0-9.91-134.66-45.13-213.61-9.08-20.35-41-117,34.22-138,21.57-6,88.28,26,139.57,44.24,15.68,5.59,79.92,29.9,155.71,64.93,24.7-6.55,67.32,11.69,38.64-78.95-1-3-4-14.46-8.3-29.82-12.16-43.46-74.47-217.54,69.82-108.67"/><path class="cls-11" d="M884,1031.29s-81.51-505.87,68-290.81c0,0,40.13,60.37,78.11,129,41.32,74.68,142.3,177.59,128.92,34.59,0,0,16.84-136-15.73-207.87-4.6-10.15-44.54-113,25.08-132.67C1191,557.06,1243,578.1,1300.86,599c7.82,2.83,92,31.45,156.45,41.92,29.64-7.87,64.18-16.09,17.09-94.35-.24-1.57-3.73-12.56-8-27.9-14.38-52.22-59.26-206.64,80.9-67.18"/><path class="cls-12" d="M858.84,1026S814.76,491,968.27,741c0,0,153.5,382.25,187.7,174.79,0,0,45.6-138.31,13.68-202.14,0,0-90.25-204.38,141.35-100.67,0,0,284.21,90,152.74-90.84,0,0-85.87-264.45,84.36-51.67"/></g></g></g></g></svg>