<svg xmlns="http://www.w3.org/2000/svg" xmlns:xlink="http://www.w3.org/1999/xlink" viewBox="0 0 966.88 906.52"><defs><style>.cls-1,.cls-10,.cls-11,.cls-12,.cls-13,.cls-3,.cls-4,.cls-5,.cls-6,.cls-7,.cls-8,.cls-9{fill:none;}.cls-2{clip-path:url(#clip-path);}.cls-3{stroke:#0f5584;}.cls-10,.cls-11,.cls-12,.cls-13,.cls-3,.cls-4,.cls-5,.cls-6,.cls-7,.cls-8,.cls-9{stroke-miterlimit:10;}.cls-4{stroke:#234f8f;}.cls-5{stroke:#374a99;}.cls-6{stroke:#4c44a4;}.cls-7{stroke:#603fae;}.cls-8{stroke:#7439b9;}.cls-9{stroke:#8833c3;}.cls-10{stroke:#9c2ecd;}.cls-11{stroke:#b128d8;}.cls-12{stroke:#c523e2;}.cls-13{stroke:#d91ded;}</style><clipPath id="clip-path"><rect class="cls-1" x="136.49" y="32.48" width="606" height="694"/></clipPath></defs><title>waves </title><g id="Layer_2" data-name="Layer 2"><g id="Layer_1-2" data-name="Layer 1"><g class="cls-2"><path class="cls-3" d="M161.49,884.48s-273-365-108-358c0,0,153,42,248,179,0,0,373,390,177-52,0,0-528-455-103-511,0,0,153-28,408,271,0,0,236,242,157,3,0,0-198-358,19-416"/><path class="cls-4" d="M151.29,886.68s-251.5-398.9-82.8-359.7c0,0,148.41,41.62,231,177.74,6.83,11.26,350,373.43,176.24-40.44,0,0-102.71-112.72-179-224.32C219.53,327.16,174.8,171.82,401.89,168.18c0,0,164-19.65,393.24,238.18-.06-2.43,89.39,85.4,129.28,87.56,22.9,1.24,27.38-22.32,5.7-101.72C927.83,383.86,749.35,50.75,960.19,18"/><path class="cls-5" d="M141.09,888.88s-230-432.8-57.6-361.4c0,0,135.75,46.5,213.92,176.48,13.58,22.58,327,356.85,175.48-28.88,0,0-84-120.82-157.13-229C247.72,345.5,195.32,172,428.29,193.88c0,0,175-11.3,378.47,205.36-.12-4.87,78.39,59.66,110,66.86,19.88,4.53,23.16-23.48,3-98.18C915.21,351.23,756.2,43,960.89,35.48"/><path class="cls-6" d="M130.89,891.08S-77.61,424.38,98.49,528c0,0,123.07,51.37,196.88,175.22,20.23,33.95,304,340.28,174.72-17.32,0,0-65.32-128.91-135.24-233.58-59-88.38-119-280.11,119.84-232.72,0,0,186-3,363.7,172.53-.18-7.3,66.46,55.38,90.71,46.16,17.74,1.83,18.94-24.63.24-94.63C902.65,318.59,763.06,35.29,961.59,53"/><path class="cls-7" d="M120.69,893.28s-187-500.6-7.2-364.8c0,0,110.4,56.23,179.84,174,26.77,45.37,281,323.7,174-5.77,0,0-46.61-137-113.35-238.21-50.14-76.06-117.57-286.1,127.15-213.19,0,0,197.05,5.39,348.93,139.71-.24-9.73,55,39.4,71.42,25.45,15.21,1.57,14.72-25.78-2.49-91.08-8.81-33.43-129-291.8,63.34-248.88"/><path class="cls-8" d="M110.49,895.48S-55,361,128.49,529c0,0,97.72,61.09,162.81,172.71,33.17,56.88,258,307.12,173.19,5.79,0,0-27.9-145.06-91.46-242.84C331.66,401,256.89,172.56,507.49,271c0,0,208.06,13.74,334.16,106.88-.3-12.16,43.59,23.42,52.13,4.76,12.68,1.31,10.5-26.93-5.21-87.54C877.72,253.25,776.77,19.83,963,88"/><path class="cls-9" d="M100.29,897.68s-144-568.4,43.2-368.2c0,0,85,65.94,145.77,171.45,39.42,68.48,234.94,290.55,172.43,17.35,0,0-9.18-153.12-69.56-247.47-32.74-51.16-114.72-298.07,141.76-174.13,0,0,219.08,22.08,319.4,74.06-.37-14.6,32.14,7.43,32.83-15.95,10.14,1,6.28-28.07-7.94-84-12.78-50.26-94.56-258.7,85.51-165.32"/><path class="cls-10" d="M90.09,899.88s-122.5-602.3,68.4-369.9c0,0,72.34,70.77,128.73,170.19,45.48,80.19,211.94,274,171.67,28.91,0,0,9.55-161.16-47.67-252.1-24.26-38.56-113.29-304,149.07-154.6,0,0,230.09,30.43,304.63,41.24-.42-17,20.71-8.55,13.55-36.66,7.6.79,2.06-29.21-10.67-80.44C853.21,187.8,790.48,4.36,964.39,123"/><path class="cls-11" d="M79.89,902.08s-101-636.2,93.6-371.6c0,0,59.64,75.59,111.69,168.93,51.31,92,188.93,257.4,170.91,40.47,0,0,28.29-169.18-25.78-256.74-16-25.83-111.86-310,156.38-135.06,0,0,241.1,38.77,289.86,8.41-.48-19.46,9.27-24.53-5.74-57.35,5.07.52-2.16-30.35-13.4-76.9C841.18,155,797.33-3.37,965.09,140.48"/><path class="cls-12" d="M69.69,904.28S-9.81,234.18,188.49,531c0,0,46.93,80.4,94.65,167.67,56.86,104,165.92,240.83,170.15,52,0,0,47-177.19-3.89-261.37-7.86-13-110.43-316,163.69-115.53,0,0,264.38,50,275.09-24.41,3.13-21.68-2.16-40.52-25-78.06,2.54.26-6.37-31.47-16.12-73.35C829.38,122.2,804.19-11.1,965.79,158"/><path class="cls-13" d="M59.49,906.48s-58-704,144-375c0,0,202,503,247,230,0,0,60-182,18-266,0,0-109-322,171-96,0,0,389,82,216-156,0,0-113-348,111-68"/></g></g></g></svg>